<svg width="3312" height="2381" xmlns="http://www.w3.org/2000/svg" xmlns:xlink="http://www.w3.org/1999/xlink" xml:space="preserve" overflow="hidden"><defs><clipPath id="clip0"><rect x="210" y="56" width="3312" height="2381"/></clipPath></defs><g clip-path="url(#clip0)" transform="translate(-210 -56)"><path d="M0 0 3042 0" stroke="#EAF2F3" stroke-width="5.56893" stroke-miterlimit="8" fill="none" fill-rule="evenodd" transform="matrix(-1 0 0 1 3522 1033)"/><path d="M0 0 3042 0" stroke="#EAF2F3" stroke-width="5.56893" stroke-miterlimit="8" fill="none" fill-rule="evenodd" transform="matrix(-1 0 0 1 3522 878)"/><path d="M0 0 3042 0" stroke="#EAF2F3" stroke-width="5.56893" stroke-miterlimit="8" fill="none" fill-rule="evenodd" transform="matrix(-1 0 0 1 3522 723)"/><path d="M0 0 3042 0" stroke="#EAF2F3" stroke-width="5.56893" stroke-miterlimit="8" fill="none" fill-rule="evenodd" transform="matrix(-1 0 0 1 3522 568)"/><path d="M0 0 3042 0" stroke="#EAF2F3" stroke-width="5.56893" stroke-miterlimit="8" fill="none" fill-rule="evenodd" transform="matrix(-1 0 0 1 3522 414)"/><path d="M0 0 3042 0" stroke="#EAF2F3" stroke-width="5.56893" stroke-miterlimit="8" fill="none" fill-rule="evenodd" transform="matrix(-1 0 0 1 3522 259)"/><path d="M0 0 3042 0" stroke="#FF0000" stroke-width="5.56893" stroke-miterlimit="8" stroke-opacity="0.6" fill="none" fill-rule="evenodd" transform="matrix(-1 0 0 1 3522 259)"/><path d="M0 111 0 0" stroke="#BFBFBF" stroke-width="5.56893" stroke-miterlimit="8" fill="none" fill-rule="evenodd" transform="matrix(-1 0 0 1 3438 256)"/><path d="M0 0 28.9999 0" stroke="#BFBFBF" stroke-width="5.56893" stroke-linecap="round" stroke-miterlimit="8" fill="none" fill-rule="evenodd" transform="matrix(-1 0 0 1 3452 256)"/><path d="M0 0 28.9999 0" stroke="#BFBFBF" stroke-width="5.56893" stroke-linecap="round" stroke-miterlimit="8" fill="none" fill-rule="evenodd" transform="matrix(-1 0 0 1 3452 367)"/><path d="M0 161.001 0 0" stroke="#BFBFBF" stroke-width="5.56893" stroke-miterlimit="8" fill="none" fill-rule="evenodd" transform="matrix(-1 0 0 1 3269 250)"/><path d="M0 0 29.0006 0" stroke="#BFBFBF" stroke-width="5.56893" stroke-linecap="round" stroke-miterlimit="8" fill="none" fill-rule="evenodd" transform="matrix(-1 0 0 1 3283 250)"/><path d="M0 0 29.0006 0" stroke="#BFBFBF" stroke-width="5.56893" stroke-linecap="round" stroke-miterlimit="8" fill="none" fill-rule="evenodd" transform="matrix(-1 0 0 1 3283 411)"/><path d="M0 170 0 0" stroke="#BFBFBF" stroke-width="5.56893" stroke-miterlimit="8" fill="none" fill-rule="evenodd" transform="matrix(-1 0 0 1 3100 254)"/><path d="M0 0 29.0002 0" stroke="#BFBFBF" stroke-width="5.56893" stroke-linecap="round" stroke-miterlimit="8" fill="none" fill-rule="evenodd" transform="matrix(-1 0 0 1 3114 254)"/><path d="M0 0 29.0002 0" stroke="#BFBFBF" stroke-width="5.56893" stroke-linecap="round" stroke-miterlimit="8" fill="none" fill-rule="evenodd" transform="matrix(-1 0 0 1 3114 424)"/><path d="M0 156 0 0" stroke="#BFBFBF" stroke-width="5.56893" stroke-miterlimit="8" fill="none" fill-rule="evenodd" transform="matrix(-1 0 0 1 2931 245)"/><path d="M0 0 28.9999 0" stroke="#BFBFBF" stroke-width="5.56893" stroke-linecap="round" stroke-miterlimit="8" fill="none" fill-rule="evenodd" transform="matrix(-1 0 0 1 2945 245)"/><path d="M0 0 28.9999 0" stroke="#BFBFBF" stroke-width="5.56893" stroke-linecap="round" stroke-miterlimit="8" fill="none" fill-rule="evenodd" transform="matrix(-1 0 0 1 2945 401)"/><path d="M0 218 0 0" stroke="#BFBFBF" stroke-width="5.56893" stroke-miterlimit="8" fill="none" fill-rule="evenodd" transform="matrix(-1 0 0 1 2762 265)"/><path d="M0 0 29.0002 0" stroke="#BFBFBF" stroke-width="5.56893" stroke-linecap="round" stroke-miterlimit="8" fill="none" fill-rule="evenodd" transform="matrix(-1 0 0 1 2776 265)"/><path d="M0 0 29.0002 0" stroke="#BFBFBF" stroke-width="5.56893" stroke-linecap="round" stroke-miterlimit="8" fill="none" fill-rule="evenodd" transform="matrix(-1 0 0 1 2776 483)"/><path d="M0 279 0 0" stroke="#BFBFBF" stroke-width="5.56893" stroke-miterlimit="8" fill="none" fill-rule="evenodd" transform="matrix(-1 0 0 1 2593 270)"/><path d="M0 0 28.9999 0" stroke="#BFBFBF" stroke-width="5.56893" stroke-linecap="round" stroke-miterlimit="8" fill="none" fill-rule="evenodd" transform="matrix(-1 0 0 1 2607 270)"/><path d="M0 0 28.9999 0" stroke="#BFBFBF" stroke-width="5.56893" stroke-linecap="round" stroke-miterlimit="8" fill="none" fill-rule="evenodd" transform="matrix(-1 0 0 1 2607 549)"/><path d="M0 302.001 0 0" stroke="#BFBFBF" stroke-width="5.56893" stroke-miterlimit="8" fill="none" fill-rule="evenodd" transform="matrix(-1 0 0 1 2424 262)"/><path d="M0 0 28.9999 0" stroke="#BFBFBF" stroke-width="5.56893" stroke-linecap="round" stroke-miterlimit="8" fill="none" fill-rule="evenodd" transform="matrix(-1 0 0 1 2438 262)"/><path d="M0 0 28.9999 0" stroke="#BFBFBF" stroke-width="5.56893" stroke-linecap="round" stroke-miterlimit="8" fill="none" fill-rule="evenodd" transform="matrix(-1 0 0 1 2438 564)"/><path d="M0 442 0 0" stroke="#BFBFBF" stroke-width="5.56893" stroke-miterlimit="8" fill="none" fill-rule="evenodd" transform="matrix(-1 0 0 1 2255 242)"/><path d="M0 0 29.0002 0" stroke="#BFBFBF" stroke-width="5.56893" stroke-linecap="round" stroke-miterlimit="8" fill="none" fill-rule="evenodd" transform="matrix(-1 0 0 1 2269 242)"/><path d="M0 0 29.0002 0" stroke="#BFBFBF" stroke-width="5.56893" stroke-linecap="round" stroke-miterlimit="8" fill="none" fill-rule="evenodd" transform="matrix(-1 0 0 1 2269 684)"/><path d="M0 415.001 0 0" stroke="#BFBFBF" stroke-width="5.56893" stroke-miterlimit="8" fill="none" fill-rule="evenodd" transform="matrix(-1 0 0 1 2086 283)"/><path d="M0 0 28.9999 0" stroke="#BFBFBF" stroke-width="5.56893" stroke-linecap="round" stroke-miterlimit="8" fill="none" fill-rule="evenodd" transform="matrix(-1 0 0 1 2100 283)"/><path d="M0 0 28.9999 0" stroke="#BFBFBF" stroke-width="5.56893" stroke-linecap="round" stroke-miterlimit="8" fill="none" fill-rule="evenodd" transform="matrix(-1 0 0 1 2100 698)"/><path d="M0 351 0 0" stroke="#BFBFBF" stroke-width="5.56893" stroke-miterlimit="8" fill="none" fill-rule="evenodd" transform="matrix(-1 0 0 1 1917 300)"/><path d="M0 0 29.0002 0" stroke="#BFBFBF" stroke-width="5.56893" stroke-linecap="round" stroke-miterlimit="8" fill="none" fill-rule="evenodd" transform="matrix(-1 0 0 1 1931 300)"/><path d="M0 0 29.0002 0" stroke="#BFBFBF" stroke-width="5.56893" stroke-linecap="round" stroke-miterlimit="8" fill="none" fill-rule="evenodd" transform="matrix(-1 0 0 1 1931 651)"/><path d="M0 271 0 0" stroke="#BFBFBF" stroke-width="5.56893" stroke-miterlimit="8" fill="none" fill-rule="evenodd" transform="matrix(-1 0 0 1 1748 340)"/><path d="M0 0 29.0006 0" stroke="#BFBFBF" stroke-width="5.56893" stroke-linecap="round" stroke-miterlimit="8" fill="none" fill-rule="evenodd" transform="matrix(-1 0 0 1 1762 340)"/><path d="M0 0 29.0006 0" stroke="#BFBFBF" stroke-width="5.56893" stroke-linecap="round" stroke-miterlimit="8" fill="none" fill-rule="evenodd" transform="matrix(-1 0 0 1 1762 611)"/><path d="M0 420 0 0" stroke="#BFBFBF" stroke-width="5.56893" stroke-miterlimit="8" fill="none" fill-rule="evenodd" transform="matrix(-1 0 0 1 1579 308)"/><path d="M0 0 28.9999 0" stroke="#BFBFBF" stroke-width="5.56893" stroke-linecap="round" stroke-miterlimit="8" fill="none" fill-rule="evenodd" transform="matrix(-1 0 0 1 1593 308)"/><path d="M0 0 28.9999 0" stroke="#BFBFBF" stroke-width="5.56893" stroke-linecap="round" stroke-miterlimit="8" fill="none" fill-rule="evenodd" transform="matrix(-1 0 0 1 1593 728)"/><path d="M0 336 0 0" stroke="#BFBFBF" stroke-width="5.56893" stroke-miterlimit="8" fill="none" fill-rule="evenodd" transform="matrix(-1 0 0 1 1410 319)"/><path d="M0 0 29.0002 0" stroke="#BFBFBF" stroke-width="5.56893" stroke-linecap="round" stroke-miterlimit="8" fill="none" fill-rule="evenodd" transform="matrix(-1 0 0 1 1424 319)"/><path d="M0 0 29.0002 0" stroke="#BFBFBF" stroke-width="5.56893" stroke-linecap="round" stroke-miterlimit="8" fill="none" fill-rule="evenodd" transform="matrix(-1 0 0 1 1424 655)"/><path d="M0 504 0 0" stroke="#BFBFBF" stroke-width="5.56893" stroke-miterlimit="8" fill="none" fill-rule="evenodd" transform="matrix(-1 0 0 1 1241 310)"/><path d="M0 0 28.9999 0" stroke="#BFBFBF" stroke-width="5.56893" stroke-linecap="round" stroke-miterlimit="8" fill="none" fill-rule="evenodd" transform="matrix(-1 0 0 1 1255 310)"/><path d="M0 0 28.9999 0" stroke="#BFBFBF" stroke-width="5.56893" stroke-linecap="round" stroke-miterlimit="8" fill="none" fill-rule="evenodd" transform="matrix(-1 0 0 1 1255 814)"/><path d="M0 849 0 0" stroke="#BFBFBF" stroke-width="5.56893" stroke-miterlimit="8" fill="none" fill-rule="evenodd" transform="matrix(-1 0 0 1 1072 206)"/><path d="M0 0 28.0002 0" stroke="#BFBFBF" stroke-width="5.56893" stroke-linecap="round" stroke-miterlimit="8" fill="none" fill-rule="evenodd" transform="matrix(-1 0 0 1 1086 206)"/><path d="M0 0 28.0002 0" stroke="#BFBFBF" stroke-width="5.56893" stroke-linecap="round" stroke-miterlimit="8" fill="none" fill-rule="evenodd" transform="matrix(-1 0 0 1 1086 1055)"/><path d="M0 741 0 0" stroke="#BFBFBF" stroke-width="5.56893" stroke-miterlimit="8" fill="none" fill-rule="evenodd" transform="matrix(-1 0 0 1 903 247)"/><path d="M0 0 28.0002 0" stroke="#BFBFBF" stroke-width="5.56893" stroke-linecap="round" stroke-miterlimit="8" fill="none" fill-rule="evenodd" transform="matrix(-1 0 0 1 917 247)"/><path d="M0 0 28.0002 0" stroke="#BFBFBF" stroke-width="5.56893" stroke-linecap="round" stroke-miterlimit="8" fill="none" fill-rule="evenodd" transform="matrix(-1 0 0 1 917 988)"/><path d="M0 496 0 0" stroke="#BFBFBF" stroke-width="5.56893" stroke-miterlimit="8" fill="none" fill-rule="evenodd" transform="matrix(-1 0 0 1 734 313)"/><path d="M0 0 28.0002 0" stroke="#BFBFBF" stroke-width="5.56893" stroke-linecap="round" stroke-miterlimit="8" fill="none" fill-rule="evenodd" transform="matrix(-1 0 0 1 748 313)"/><path d="M0 0 28.0002 0" stroke="#BFBFBF" stroke-width="5.56893" stroke-linecap="round" stroke-miterlimit="8" fill="none" fill-rule="evenodd" transform="matrix(-1 0 0 1 748 809)"/><path d="M0 701 0 0" stroke="#BFBFBF" stroke-width="5.56893" stroke-miterlimit="8" fill="none" fill-rule="evenodd" transform="matrix(-1 0 0 1 565 263)"/><path d="M0 0 27.9998 0" stroke="#BFBFBF" stroke-width="5.56893" stroke-linecap="round" stroke-miterlimit="8" fill="none" fill-rule="evenodd" transform="matrix(-1 0 0 1 579 263)"/><path d="M0 0 27.9998 0" stroke="#BFBFBF" stroke-width="5.56893" stroke-linecap="round" stroke-miterlimit="8" fill="none" fill-rule="evenodd" transform="matrix(-1 0 0 1 579 964)"/><path d="M28.0002 13.9999C28.0002 21.7319 21.7319 28.0002 13.9999 28.0002 6.26791 28.0002 0 21.7319 0 13.9999 0 6.26791 6.26791 0 13.9999 0 21.7319 0 28.0002 6.26791 28.0002 13.9999Z" fill="#1A476F" fill-rule="evenodd" transform="matrix(-1 0 0 1 3452 297)"/><path d="M28.0006 14.0001C28.0006 21.7322 21.7322 28.0006 14.0001 28.0006 6.26799 28.0006 0 21.7322 0 14.0001 0 6.26799 6.26799 0 14.0001 0 21.7322 0 28.0006 6.26799 28.0006 14.0001Z" stroke="#000000" stroke-width="0" stroke-miterlimit="8" stroke-opacity="0" fill="#0070C0" fill-rule="evenodd" transform="matrix(-1 0 0 1 3452.5 297.5)"/><path d="M28.0006 14.5001C28.0006 22.5084 21.7322 29.0006 14.0001 29.0006 6.26799 29.0006 0 22.5084 0 14.5001 0 6.49185 6.26799 0 14.0001 0 21.7322 0 28.0006 6.49185 28.0006 14.5001Z" fill="#1A476F" fill-rule="evenodd" transform="matrix(-1 0 0 1 3283 316)"/><path d="M28.0002 14.4999C28.0002 22.5081 21.7319 29.0002 13.9999 29.0002 6.26791 29.0002 0 22.5081 0 14.4999 0 6.49177 6.26791 0 13.9999 0 21.7319 0 28.0002 6.49177 28.0002 14.4999Z" stroke="#000000" stroke-width="0" stroke-miterlimit="8" stroke-opacity="0" fill="#0070C0" fill-rule="evenodd" transform="matrix(-1 0 0 1 3283.5 316.5)"/><path d="M28.0006 14.0001C28.0006 21.7322 21.7322 28.0006 14.0001 28.0006 6.26799 28.0006 0 21.7322 0 14.0001 0 6.26799 6.26799 0 14.0001 0 21.7322 0 28.0006 6.26799 28.0006 14.0001Z" fill="#1A476F" fill-rule="evenodd" transform="matrix(-1 0 0 1 3114 325)"/><path d="M28.0002 13.9999C28.0002 21.7319 21.7319 28.0002 13.9999 28.0002 6.26791 28.0002 0 21.7319 0 13.9999 0 6.26791 6.26791 0 13.9999 0 21.7319 0 28.0002 6.26791 28.0002 13.9999Z" stroke="#000000" stroke-width="0" stroke-miterlimit="8" stroke-opacity="0" fill="#0070C0" fill-rule="evenodd" transform="matrix(-1 0 0 1 3114.5 325.5)"/><path d="M28.0002 13.9999C28.0002 21.7319 21.7319 28.0002 13.9999 28.0002 6.26791 28.0002 0 21.7319 0 13.9999 0 6.26791 6.26791 0 13.9999 0 21.7319 0 28.0002 6.26791 28.0002 13.9999Z" fill="#1A476F" fill-rule="evenodd" transform="matrix(-1 0 0 1 2945 309)"/><path d="M28.0006 14.0001C28.0006 21.7322 21.7322 28.0006 14.0001 28.0006 6.26799 28.0006 0 21.7322 0 14.0001 0 6.26799 6.26799 0 14.0001 0 21.7322 0 28.0006 6.26799 28.0006 14.0001Z" stroke="#000000" stroke-width="0" stroke-miterlimit="8" stroke-opacity="0" fill="#0070C0" fill-rule="evenodd" transform="matrix(-1 0 0 1 2945.5 309.5)"/><path d="M28.0006 14.0001C28.0006 21.7322 21.7326 28.0006 14.0005 28.0006 6.26834 28.0006 0 21.7322 0 14.0001 0 6.26799 6.26834 0 14.0005 0 21.7326 0 28.0006 6.26799 28.0006 14.0001Z" fill="#1A476F" fill-rule="evenodd" transform="matrix(-1 0 0 1 2776 360)"/><path d="M28.0002 13.9999C28.0002 21.7319 21.7323 28.0002 14.0003 28.0002 6.26826 28.0002 0 21.7319 0 13.9999 0 6.26791 6.26826 0 14.0003 0 21.7323 0 28.0002 6.26791 28.0002 13.9999Z" stroke="#000000" stroke-width="0" stroke-miterlimit="8" stroke-opacity="0" fill="#0070C0" fill-rule="evenodd" transform="matrix(-1 0 0 1 2776.5 360.5)"/><path d="M28.0002 14.4999C28.0002 22.5081 21.7319 29.0002 13.9999 29.0002 6.26791 29.0002 0 22.5081 0 14.4999 0 6.49177 6.26791 0 13.9999 0 21.7319 0 28.0002 6.49177 28.0002 14.4999Z" fill="#1A476F" fill-rule="evenodd" transform="matrix(-1 0 0 1 2607 395)"/><path d="M28.0002 14.4999C28.0002 22.5081 21.7319 29.0002 13.9999 29.0002 6.26791 29.0002 0 22.5081 0 14.4999 0 6.49177 6.26791 0 13.9999 0 21.7319 0 28.0002 6.49177 28.0002 14.4999Z" stroke="#000000" stroke-width="0" stroke-miterlimit="8" stroke-opacity="0" fill="#0070C0" fill-rule="evenodd" transform="matrix(-1 0 0 1 2607.5 395.5)"/><path d="M28.0002 13.9999C28.0002 21.7319 21.7319 28.0002 13.9999 28.0002 6.26791 28.0002 0 21.7319 0 13.9999 0 6.26791 6.26791 0 13.9999 0 21.7319 0 28.0002 6.26791 28.0002 13.9999Z" fill="#1A476F" fill-rule="evenodd" transform="matrix(-1 0 0 1 2438 399)"/><path d="M28.0006 14.0001C28.0006 21.7322 21.7322 28.0006 14.0001 28.0006 6.26799 28.0006 0 21.7322 0 14.0001 0 6.26799 6.26799 0 14.0001 0 21.7322 0 28.0006 6.26799 28.0006 14.0001Z" stroke="#000000" stroke-width="0" stroke-miterlimit="8" stroke-opacity="0" fill="#0070C0" fill-rule="evenodd" transform="matrix(-1 0 0 1 2438.5 399.5)"/><path d="M28.0006 14.0001C28.0006 21.7322 21.7322 28.0006 14.0001 28.0006 6.26799 28.0006 0 21.7322 0 14.0001 0 6.26799 6.26799 0 14.0001 0 21.7322 0 28.0006 6.26799 28.0006 14.0001Z" fill="#0070C0" fill-rule="evenodd" transform="matrix(-1 0 0 1 2269 449)"/><path d="M28.0002 13.9999C28.0002 21.7319 21.7319 28.0002 13.9999 28.0002 6.26791 28.0002 0 21.7319 0 13.9999 0 6.26791 6.26791 0 13.9999 0 21.7319 0 28.0002 6.26791 28.0002 13.9999Z" stroke="#000000" stroke-width="0" stroke-miterlimit="8" stroke-opacity="0" fill="none" fill-rule="evenodd" transform="matrix(-1 0 0 1 2269.5 449.5)"/><path d="M28.0002 13.9999C28.0002 21.7323 21.7319 28.0002 13.9999 28.0002 6.26826 28.0002 0 21.7323 0 13.9999 0 6.26791 6.26826 0 13.9999 0 21.7319 0 28.0002 6.26791 28.0002 13.9999Z" fill="#0070C0" fill-rule="evenodd" transform="matrix(-1 0 0 1 2100 477)"/><path d="M28.0006 14.0001C28.0006 21.7326 21.7322 28.0006 14.0001 28.0006 6.26834 28.0006 0 21.7326 0 14.0001 0 6.26799 6.26834 0 14.0001 0 21.7322 0 28.0006 6.26799 28.0006 14.0001Z" stroke="#000000" stroke-width="0" stroke-miterlimit="8" stroke-opacity="0" fill="none" fill-rule="evenodd" transform="matrix(-1 0 0 1 2100.5 477.5)"/><path d="M28.0002 13.9999C28.0002 21.7319 21.7323 28.0002 14.0003 28.0002 6.26826 28.0002 0 21.7319 0 13.9999 0 6.26791 6.26826 0 14.0003 0 21.7323 0 28.0002 6.26791 28.0002 13.9999Z" fill="#1A476F" fill-rule="evenodd" transform="matrix(-1 0 0 1 1931 462)"/><path d="M28.0006 14.0001C28.0006 21.7322 21.7326 28.0006 14.0005 28.0006 6.26834 28.0006 0 21.7322 0 14.0001 0 6.26799 6.26834 0 14.0005 0 21.7326 0 28.0006 6.26799 28.0006 14.0001Z" stroke="#000000" stroke-width="0" stroke-miterlimit="8" stroke-opacity="0" fill="#0070C0" fill-rule="evenodd" transform="matrix(-1 0 0 1 1931.5 462.5)"/><path d="M28.0006 13.9999C28.0006 21.7319 21.7322 28.0002 14.0001 28.0002 6.26834 28.0002 0 21.7319 0 13.9999 0 6.26791 6.26834 0 14.0001 0 21.7322 0 28.0006 6.26791 28.0006 13.9999Z" fill="#0070C0" fill-rule="evenodd" transform="matrix(-1 0 0 1 1762 462)"/><path d="M28.0002 14.0001C28.0002 21.7322 21.7319 28.0006 13.9999 28.0006 6.26826 28.0006 0 21.7322 0 14.0001 0 6.26799 6.26826 0 13.9999 0 21.7319 0 28.0002 6.26799 28.0002 14.0001Z" stroke="#000000" stroke-width="0" stroke-miterlimit="8" stroke-opacity="0" fill="none" fill-rule="evenodd" transform="matrix(-1 0 0 1 1762.5 462.5)"/><path d="M28.0002 14.0001C28.0002 21.7326 21.7319 28.0006 13.9999 28.0006 6.26791 28.0006 0 21.7326 0 14.0001 0 6.26799 6.26791 0 13.9999 0 21.7319 0 28.0002 6.26799 28.0002 14.0001Z" fill="#0070C0" fill-rule="evenodd" transform="matrix(-1 0 0 1 1593 504)"/><path d="M28.0006 13.9999C28.0006 21.7323 21.7322 28.0002 14.0001 28.0002 6.26799 28.0002 0 21.7323 0 13.9999 0 6.26791 6.26799 0 14.0001 0 21.7322 0 28.0006 6.26791 28.0006 13.9999Z" stroke="#000000" stroke-width="0" stroke-miterlimit="8" stroke-opacity="0" fill="none" fill-rule="evenodd" transform="matrix(-1 0 0 1 1593.5 504.5)"/><path d="M28.0006 14.4999C28.0006 22.5081 21.7322 29.0002 14.0005 29.0002 6.26834 29.0002 0 22.5081 0 14.4999 0 6.49177 6.26834 0 14.0005 0 21.7322 0 28.0006 6.49177 28.0006 14.4999Z" fill="#0070C0" fill-rule="evenodd" transform="matrix(-1 0 0 1 1424 472)"/><path d="M28.0002 14.4999C28.0002 22.5081 21.7319 29.0002 14.0003 29.0002 6.26826 29.0002 0 22.5081 0 14.4999 0 6.49177 6.26826 0 14.0003 0 21.7319 0 28.0002 6.49177 28.0002 14.4999Z" stroke="#000000" stroke-width="0" stroke-miterlimit="8" stroke-opacity="0" fill="none" fill-rule="evenodd" transform="matrix(-1 0 0 1 1424.5 472.5)"/><path d="M28.0006 14.0001C28.0006 21.7322 21.7322 28.0006 14.0001 28.0006 6.26799 28.0006 0 21.7322 0 14.0001 0 6.26799 6.26799 0 14.0001 0 21.7322 0 28.0006 6.26799 28.0006 14.0001Z" fill="#0070C0" fill-rule="evenodd" transform="matrix(-1 0 0 1 1255 548)"/><path d="M28.0002 13.9999C28.0002 21.7319 21.7319 28.0002 13.9999 28.0002 6.26791 28.0002 0 21.7319 0 13.9999 0 6.26791 6.26791 0 13.9999 0 21.7319 0 28.0002 6.26791 28.0002 13.9999Z" stroke="#000000" stroke-width="0" stroke-miterlimit="8" stroke-opacity="0" fill="none" fill-rule="evenodd" transform="matrix(-1 0 0 1 1255.5 548.5)"/><path d="M28.0002 13.9999C28.0002 21.7323 21.7323 28.0002 14.0003 28.0002 6.26826 28.0002 0 21.7323 0 13.9999 0 6.26791 6.26826 0 14.0003 0 21.7323 0 28.0002 6.26791 28.0002 13.9999Z" fill="#1A476F" fill-rule="evenodd" transform="matrix(-1 0 0 1 1086 616)"/><path d="M28.0006 14.0001C28.0006 21.7326 21.7326 28.0006 14.0005 28.0006 6.26834 28.0006 0 21.7326 0 14.0001 0 6.26799 6.26834 0 14.0005 0 21.7326 0 28.0006 6.26799 28.0006 14.0001Z" stroke="#000000" stroke-width="0" stroke-miterlimit="8" stroke-opacity="0" fill="#0070C0" fill-rule="evenodd" transform="matrix(-1 0 0 1 1086.5 616.5)"/><path d="M28.0006 14.0001C28.0006 21.7322 21.7322 28.0006 14.0001 28.0006 6.26799 28.0006 0 21.7322 0 14.0001 0 6.26799 6.26799 0 14.0001 0 21.7322 0 28.0006 6.26799 28.0006 14.0001Z" fill="#1A476F" fill-rule="evenodd" transform="matrix(-1 0 0 1 917 603)"/><path d="M28.0002 13.9999C28.0002 21.7319 21.7319 28.0002 13.9999 28.0002 6.26791 28.0002 0 21.7319 0 13.9999 0 6.26791 6.26791 0 13.9999 0 21.7319 0 28.0002 6.26791 28.0002 13.9999Z" stroke="#000000" stroke-width="0" stroke-miterlimit="8" stroke-opacity="0" fill="#0070C0" fill-rule="evenodd" transform="matrix(-1 0 0 1 917.5 603.5)"/><path d="M28.0002 14.0001C28.0002 21.7326 21.7323 28.0006 14.0003 28.0006 6.26826 28.0006 0 21.7326 0 14.0001 0 6.26799 6.26826 0 14.0003 0 21.7323 0 28.0002 6.26799 28.0002 14.0001Z" fill="#1A476F" fill-rule="evenodd" transform="matrix(-1 0 0 1 748 547)"/><path d="M28.0002 13.9999C28.0002 21.7323 21.7323 28.0002 14.0003 28.0002 6.26826 28.0002 0 21.7323 0 13.9999 0 6.26791 6.26826 0 14.0003 0 21.7323 0 28.0002 6.26791 28.0002 13.9999Z" stroke="#000000" stroke-width="0" stroke-miterlimit="8" stroke-opacity="0" fill="#0070C0" fill-rule="evenodd" transform="matrix(-1 0 0 1 748.5 547.5)"/><path d="M28.0002 14.4999C28.0002 22.5081 21.7319 29.0002 13.9999 29.0002 6.26791 29.0002 0 22.5081 0 14.4999 0 6.49177 6.26791 0 13.9999 0 21.7319 0 28.0002 6.49177 28.0002 14.4999Z" fill="#1A476F" fill-rule="evenodd" transform="matrix(-1 0 0 1 579 599)"/><path d="M28.0006 14.4999C28.0006 22.5081 21.7322 29.0002 14.0001 29.0002 6.26799 29.0002 0 22.5081 0 14.4999 0 6.49177 6.26799 0 14.0001 0 21.7322 0 28.0006 6.49177 28.0006 14.4999Z" stroke="#000000" stroke-width="0" stroke-miterlimit="8" stroke-opacity="0" fill="#0070C0" fill-rule="evenodd" transform="matrix(-1 0 0 1 579.5 599.5)"/><path d="M0 0 3042 0" stroke="#000000" stroke-width="3.7125" stroke-miterlimit="8" fill="none" fill-rule="evenodd" transform="matrix(-1 0 0 1 3522 1095)"/><path d="M0 0 3042 0" stroke="#EAF2F3" stroke-width="5.56893" stroke-miterlimit="8" fill="none" fill-rule="evenodd" transform="matrix(-1 0 0 1 3522 2104)"/><path d="M0 0 3042 0" stroke="#EAF2F3" stroke-width="5.56893" stroke-miterlimit="8" fill="none" fill-rule="evenodd" transform="matrix(-1 0 0 1 3522 1946)"/><path d="M0 0 3042 0" stroke="#EAF2F3" stroke-width="5.56893" stroke-miterlimit="8" fill="none" fill-rule="evenodd" transform="matrix(-1 0 0 1 3522 1787)"/><path d="M0 0 3042 0" stroke="#EAF2F3" stroke-width="5.56893" stroke-miterlimit="8" fill="none" fill-rule="evenodd" transform="matrix(-1 0 0 1 3522 1629)"/><path d="M0 0 3042 0" stroke="#EAF2F3" stroke-width="5.56893" stroke-miterlimit="8" fill="none" fill-rule="evenodd" transform="matrix(-1 0 0 1 3522 1470)"/><path d="M0 0 3042 0" stroke="#EAF2F3" stroke-width="5.56893" stroke-miterlimit="8" fill="none" fill-rule="evenodd" transform="matrix(-1 0 0 1 3522 1312)"/><path d="M0 0 3042 0" stroke="#FF0000" stroke-width="5.56893" stroke-miterlimit="8" stroke-opacity="0.6" fill="none" fill-rule="evenodd" transform="matrix(-1 0 0 1 3522 1312)"/><path d="M0 342 0 0" stroke="#BFBFBF" stroke-width="5.56893" stroke-miterlimit="8" fill="none" fill-rule="evenodd" transform="matrix(-1 0 0 1 3438 1367)"/><path d="M0 0 28.9999 0" stroke="#BFBFBF" stroke-width="5.56893" stroke-linecap="round" stroke-miterlimit="8" fill="none" fill-rule="evenodd" transform="matrix(-1 0 0 1 3452 1367)"/><path d="M0 0 28.9999 0" stroke="#BFBFBF" stroke-width="5.56893" stroke-linecap="round" stroke-miterlimit="8" fill="none" fill-rule="evenodd" transform="matrix(-1 0 0 1 3452 1709)"/><path d="M0 336 0 0" stroke="#BFBFBF" stroke-width="5.56893" stroke-miterlimit="8" fill="none" fill-rule="evenodd" transform="matrix(-1 0 0 1 3269 1368)"/><path d="M0 0 29.0006 0" stroke="#BFBFBF" stroke-width="5.56893" stroke-linecap="round" stroke-miterlimit="8" fill="none" fill-rule="evenodd" transform="matrix(-1 0 0 1 3283 1368)"/><path d="M0 0 29.0006 0" stroke="#BFBFBF" stroke-width="5.56893" stroke-linecap="round" stroke-miterlimit="8" fill="none" fill-rule="evenodd" transform="matrix(-1 0 0 1 3283 1704)"/><path d="M0 338 0 0" stroke="#BFBFBF" stroke-width="5.56893" stroke-miterlimit="8" fill="none" fill-rule="evenodd" transform="matrix(-1 0 0 1 3100 1368)"/><path d="M0 0 29.0002 0" stroke="#BFBFBF" stroke-width="5.56893" stroke-linecap="round" stroke-miterlimit="8" fill="none" fill-rule="evenodd" transform="matrix(-1 0 0 1 3114 1368)"/><path d="M0 0 29.0002 0" stroke="#BFBFBF" stroke-width="5.56893" stroke-linecap="round" stroke-miterlimit="8" fill="none" fill-rule="evenodd" transform="matrix(-1 0 0 1 3114 1706)"/><path d="M0 340 0 0" stroke="#BFBFBF" stroke-width="5.56893" stroke-miterlimit="8" fill="none" fill-rule="evenodd" transform="matrix(-1 0 0 1 2931 1368)"/><path d="M0 0 28.9999 0" stroke="#BFBFBF" stroke-width="5.56893" stroke-linecap="round" stroke-miterlimit="8" fill="none" fill-rule="evenodd" transform="matrix(-1 0 0 1 2945 1368)"/><path d="M0 0 28.9999 0" stroke="#BFBFBF" stroke-width="5.56893" stroke-linecap="round" stroke-miterlimit="8" fill="none" fill-rule="evenodd" transform="matrix(-1 0 0 1 2945 1708)"/><path d="M0 339 0 0" stroke="#BFBFBF" stroke-width="5.56893" stroke-miterlimit="8" fill="none" fill-rule="evenodd" transform="matrix(-1 0 0 1 2762 1371)"/><path d="M0 0 29.0002 0" stroke="#BFBFBF" stroke-width="5.56893" stroke-linecap="round" stroke-miterlimit="8" fill="none" fill-rule="evenodd" transform="matrix(-1 0 0 1 2776 1371)"/><path d="M0 0 29.0002 0" stroke="#BFBFBF" stroke-width="5.56893" stroke-linecap="round" stroke-miterlimit="8" fill="none" fill-rule="evenodd" transform="matrix(-1 0 0 1 2776 1710)"/><path d="M0 343 0 0" stroke="#BFBFBF" stroke-width="5.56893" stroke-miterlimit="8" fill="none" fill-rule="evenodd" transform="matrix(-1 0 0 1 2593 1372)"/><path d="M0 0 28.9999 0" stroke="#BFBFBF" stroke-width="5.56893" stroke-linecap="round" stroke-miterlimit="8" fill="none" fill-rule="evenodd" transform="matrix(-1 0 0 1 2607 1372)"/><path d="M0 0 28.9999 0" stroke="#BFBFBF" stroke-width="5.56893" stroke-linecap="round" stroke-miterlimit="8" fill="none" fill-rule="evenodd" transform="matrix(-1 0 0 1 2607 1715)"/><path d="M0 339 0 0" stroke="#BFBFBF" stroke-width="5.56893" stroke-miterlimit="8" fill="none" fill-rule="evenodd" transform="matrix(-1 0 0 1 2424 1369)"/><path d="M0 0 28.9999 0" stroke="#BFBFBF" stroke-width="5.56893" stroke-linecap="round" stroke-miterlimit="8" fill="none" fill-rule="evenodd" transform="matrix(-1 0 0 1 2438 1369)"/><path d="M0 0 28.9999 0" stroke="#BFBFBF" stroke-width="5.56893" stroke-linecap="round" stroke-miterlimit="8" fill="none" fill-rule="evenodd" transform="matrix(-1 0 0 1 2438 1708)"/><path d="M0 387 0 0" stroke="#BFBFBF" stroke-width="5.56893" stroke-miterlimit="8" fill="none" fill-rule="evenodd" transform="matrix(-1 0 0 1 2255 1359)"/><path d="M0 0 29.0002 0" stroke="#BFBFBF" stroke-width="5.56893" stroke-linecap="round" stroke-miterlimit="8" fill="none" fill-rule="evenodd" transform="matrix(-1 0 0 1 2269 1359)"/><path d="M0 0 29.0002 0" stroke="#BFBFBF" stroke-width="5.56893" stroke-linecap="round" stroke-miterlimit="8" fill="none" fill-rule="evenodd" transform="matrix(-1 0 0 1 2269 1746)"/><path d="M0 381.001 0 0" stroke="#BFBFBF" stroke-width="5.56893" stroke-miterlimit="8" fill="none" fill-rule="evenodd" transform="matrix(-1 0 0 1 2086 1373)"/><path d="M0 0 28.9999 0" stroke="#BFBFBF" stroke-width="5.56893" stroke-linecap="round" stroke-miterlimit="8" fill="none" fill-rule="evenodd" transform="matrix(-1 0 0 1 2100 1373)"/><path d="M0 0 28.9999 0" stroke="#BFBFBF" stroke-width="5.56893" stroke-linecap="round" stroke-miterlimit="8" fill="none" fill-rule="evenodd" transform="matrix(-1 0 0 1 2100 1754)"/><path d="M0 343 0 0" stroke="#BFBFBF" stroke-width="5.56893" stroke-miterlimit="8" fill="none" fill-rule="evenodd" transform="matrix(-1 0 0 1 1917 1377)"/><path d="M0 0 29.0002 0" stroke="#BFBFBF" stroke-width="5.56893" stroke-linecap="round" stroke-miterlimit="8" fill="none" fill-rule="evenodd" transform="matrix(-1 0 0 1 1931 1377)"/><path d="M0 0 29.0002 0" stroke="#BFBFBF" stroke-width="5.56893" stroke-linecap="round" stroke-miterlimit="8" fill="none" fill-rule="evenodd" transform="matrix(-1 0 0 1 1931 1720)"/><path d="M0 290 0 0" stroke="#BFBFBF" stroke-width="5.56893" stroke-miterlimit="8" fill="none" fill-rule="evenodd" transform="matrix(-1 0 0 1 1748 1403)"/><path d="M0 0 29.0006 0" stroke="#BFBFBF" stroke-width="5.56893" stroke-linecap="round" stroke-miterlimit="8" fill="none" fill-rule="evenodd" transform="matrix(-1 0 0 1 1762 1403)"/><path d="M0 0 29.0006 0" stroke="#BFBFBF" stroke-width="5.56893" stroke-linecap="round" stroke-miterlimit="8" fill="none" fill-rule="evenodd" transform="matrix(-1 0 0 1 1762 1693)"/><path d="M0 390 0 0" stroke="#BFBFBF" stroke-width="5.56893" stroke-miterlimit="8" fill="none" fill-rule="evenodd" transform="matrix(-1 0 0 1 1579 1374)"/><path d="M0 0 28.9999 0" stroke="#BFBFBF" stroke-width="5.56893" stroke-linecap="round" stroke-miterlimit="8" fill="none" fill-rule="evenodd" transform="matrix(-1 0 0 1 1593 1374)"/><path d="M0 0 28.9999 0" stroke="#BFBFBF" stroke-width="5.56893" stroke-linecap="round" stroke-miterlimit="8" fill="none" fill-rule="evenodd" transform="matrix(-1 0 0 1 1593 1764)"/><path d="M0 317 0 0" stroke="#BFBFBF" stroke-width="5.56893" stroke-miterlimit="8" fill="none" fill-rule="evenodd" transform="matrix(-1 0 0 1 1410 1373)"/><path d="M0 0 29.0002 0" stroke="#BFBFBF" stroke-width="5.56893" stroke-linecap="round" stroke-miterlimit="8" fill="none" fill-rule="evenodd" transform="matrix(-1 0 0 1 1424 1373)"/><path d="M0 0 29.0002 0" stroke="#BFBFBF" stroke-width="5.56893" stroke-linecap="round" stroke-miterlimit="8" fill="none" fill-rule="evenodd" transform="matrix(-1 0 0 1 1424 1690)"/><path d="M0 474 0 0" stroke="#BFBFBF" stroke-width="5.56893" stroke-miterlimit="8" fill="none" fill-rule="evenodd" transform="matrix(-1 0 0 1 1241 1358)"/><path d="M0 0 28.9999 0" stroke="#BFBFBF" stroke-width="5.56893" stroke-linecap="round" stroke-miterlimit="8" fill="none" fill-rule="evenodd" transform="matrix(-1 0 0 1 1255 1358)"/><path d="M0 0 28.9999 0" stroke="#BFBFBF" stroke-width="5.56893" stroke-linecap="round" stroke-miterlimit="8" fill="none" fill-rule="evenodd" transform="matrix(-1 0 0 1 1255 1832)"/><path d="M0 812 0 0" stroke="#BFBFBF" stroke-width="5.56893" stroke-miterlimit="8" fill="none" fill-rule="evenodd" transform="matrix(-1 0 0 1 1072 1255)"/><path d="M0 0 28.0002 0" stroke="#BFBFBF" stroke-width="5.56893" stroke-linecap="round" stroke-miterlimit="8" fill="none" fill-rule="evenodd" transform="matrix(-1 0 0 1 1086 1255)"/><path d="M0 0 28.0002 0" stroke="#BFBFBF" stroke-width="5.56893" stroke-linecap="round" stroke-miterlimit="8" fill="none" fill-rule="evenodd" transform="matrix(-1 0 0 1 1086 2067)"/><path d="M0 703 0 0" stroke="#BFBFBF" stroke-width="5.56893" stroke-miterlimit="8" fill="none" fill-rule="evenodd" transform="matrix(-1 0 0 1 903 1300)"/><path d="M0 0 28.0002 0" stroke="#BFBFBF" stroke-width="5.56893" stroke-linecap="round" stroke-miterlimit="8" fill="none" fill-rule="evenodd" transform="matrix(-1 0 0 1 917 1300)"/><path d="M0 0 28.0002 0" stroke="#BFBFBF" stroke-width="5.56893" stroke-linecap="round" stroke-miterlimit="8" fill="none" fill-rule="evenodd" transform="matrix(-1 0 0 1 917 2003)"/><path d="M0 453 0 0" stroke="#BFBFBF" stroke-width="5.56893" stroke-miterlimit="8" fill="none" fill-rule="evenodd" transform="matrix(-1 0 0 1 734 1367)"/><path d="M0 0 28.0002 0" stroke="#BFBFBF" stroke-width="5.56893" stroke-linecap="round" stroke-miterlimit="8" fill="none" fill-rule="evenodd" transform="matrix(-1 0 0 1 748 1367)"/><path d="M0 0 28.0002 0" stroke="#BFBFBF" stroke-width="5.56893" stroke-linecap="round" stroke-miterlimit="8" fill="none" fill-rule="evenodd" transform="matrix(-1 0 0 1 748 1820)"/><path d="M0 558 0 0" stroke="#BFBFBF" stroke-width="5.56893" stroke-miterlimit="8" fill="none" fill-rule="evenodd" transform="matrix(-1 0 0 1 565 1312)"/><path d="M0 0 27.9998 0" stroke="#BFBFBF" stroke-width="5.56893" stroke-linecap="round" stroke-miterlimit="8" fill="none" fill-rule="evenodd" transform="matrix(-1 0 0 1 579 1312)"/><path d="M0 0 27.9998 0" stroke="#BFBFBF" stroke-width="5.56893" stroke-linecap="round" stroke-miterlimit="8" fill="none" fill-rule="evenodd" transform="matrix(-1 0 0 1 579 1870)"/><path d="M28.0002 14.0001C28.0002 21.7322 21.7319 28.0006 13.9999 28.0006 6.26791 28.0006 0 21.7322 0 14.0001 0 6.26799 6.26791 0 13.9999 0 21.7319 0 28.0002 6.26799 28.0002 14.0001Z" fill="#1A476F" fill-rule="evenodd" transform="matrix(-1 0 0 1 3452 1524)"/><path d="M28.0006 13.9999C28.0006 21.7319 21.7322 28.0002 14.0001 28.0002 6.26799 28.0002 0 21.7319 0 13.9999 0 6.26791 6.26799 0 14.0001 0 21.7322 0 28.0006 6.26791 28.0006 13.9999Z" stroke="#000000" stroke-width="0" stroke-miterlimit="8" stroke-opacity="0" fill="#0070C0" fill-rule="evenodd" transform="matrix(-1 0 0 1 3452.5 1524.5)"/><path d="M28.0006 13.9999C28.0006 21.7319 21.7322 28.0002 14.0001 28.0002 6.26799 28.0002 0 21.7319 0 13.9999 0 6.26791 6.26799 0 14.0001 0 21.7322 0 28.0006 6.26791 28.0006 13.9999Z" fill="#0070C0" fill-rule="evenodd" transform="matrix(-1 0 0 1 3283 1522)"/><path d="M28.0002 14.0001C28.0002 21.7322 21.7319 28.0006 13.9999 28.0006 6.26791 28.0006 0 21.7322 0 14.0001 0 6.26799 6.26791 0 13.9999 0 21.7319 0 28.0002 6.26799 28.0002 14.0001Z" stroke="#000000" stroke-width="0" stroke-miterlimit="8" stroke-opacity="0" fill="none" fill-rule="evenodd" transform="matrix(-1 0 0 1 3283.5 1522.5)"/><path d="M28.0006 13.9999C28.0006 21.7319 21.7322 28.0002 14.0001 28.0002 6.26799 28.0002 0 21.7319 0 13.9999 0 6.26791 6.26799 0 14.0001 0 21.7322 0 28.0006 6.26791 28.0006 13.9999Z" fill="#1A476F" fill-rule="evenodd" transform="matrix(-1 0 0 1 3114 1523)"/><path d="M28.0002 13.9999C28.0002 21.7319 21.7319 28.0002 13.9999 28.0002 6.26791 28.0002 0 21.7319 0 13.9999 0 6.26791 6.26791 0 13.9999 0 21.7319 0 28.0002 6.26791 28.0002 13.9999Z" stroke="#000000" stroke-width="0" stroke-miterlimit="8" stroke-opacity="0" fill="#0070C0" fill-rule="evenodd" transform="matrix(-1 0 0 1 3114.5 1523.5)"/><path d="M28.0002 14.0001C28.0002 21.7322 21.7319 28.0006 13.9999 28.0006 6.26791 28.0006 0 21.7322 0 14.0001 0 6.26799 6.26791 0 13.9999 0 21.7319 0 28.0002 6.26799 28.0002 14.0001Z" fill="#0070C0" fill-rule="evenodd" transform="matrix(-1 0 0 1 2945 1524)"/><path d="M28.0006 13.9999C28.0006 21.7319 21.7322 28.0002 14.0001 28.0002 6.26799 28.0002 0 21.7319 0 13.9999 0 6.26791 6.26799 0 14.0001 0 21.7322 0 28.0006 6.26791 28.0006 13.9999Z" stroke="#000000" stroke-width="0" stroke-miterlimit="8" stroke-opacity="0" fill="none" fill-rule="evenodd" transform="matrix(-1 0 0 1 2945.5 1524.5)"/><path d="M28.0006 14.0001C28.0006 21.7322 21.7326 28.0006 14.0005 28.0006 6.26834 28.0006 0 21.7322 0 14.0001 0 6.26834 6.26834 0 14.0005 0 21.7326 0 28.0006 6.26834 28.0006 14.0001Z" fill="#1A476F" fill-rule="evenodd" transform="matrix(-1 0 0 1 2776 1526)"/><path d="M28.0002 13.9999C28.0002 21.7319 21.7323 28.0002 14.0003 28.0002 6.26826 28.0002 0 21.7319 0 13.9999 0 6.26826 6.26826 0 14.0003 0 21.7323 0 28.0002 6.26826 28.0002 13.9999Z" stroke="#000000" stroke-width="0" stroke-miterlimit="8" stroke-opacity="0" fill="#0070C0" fill-rule="evenodd" transform="matrix(-1 0 0 1 2776.5 1526.5)"/><path d="M28.0002 13.9999C28.0002 21.7319 21.7319 28.0002 13.9999 28.0002 6.26791 28.0002 0 21.7319 0 13.9999 0 6.26791 6.26791 0 13.9999 0 21.7319 0 28.0002 6.26791 28.0002 13.9999Z" fill="#0070C0" fill-rule="evenodd" transform="matrix(-1 0 0 1 2607 1530)"/><path d="M28.0002 14.0001C28.0002 21.7322 21.7319 28.0006 13.9999 28.0006 6.26791 28.0006 0 21.7322 0 14.0001 0 6.26799 6.26791 0 13.9999 0 21.7319 0 28.0002 6.26799 28.0002 14.0001Z" stroke="#000000" stroke-width="0" stroke-miterlimit="8" stroke-opacity="0" fill="none" fill-rule="evenodd" transform="matrix(-1 0 0 1 2607.5 1530.5)"/><path d="M28.0002 14.5001C28.0002 22.5084 21.7319 29.0006 13.9999 29.0006 6.26791 29.0006 0 22.5084 0 14.5001 0 6.49185 6.26791 0 13.9999 0 21.7319 0 28.0002 6.49185 28.0002 14.5001Z" fill="#0070C0" fill-rule="evenodd" transform="matrix(-1 0 0 1 2438 1524)"/><path d="M28.0006 14.4999C28.0006 22.5081 21.7322 29.0002 14.0001 29.0002 6.26799 29.0002 0 22.5081 0 14.4999 0 6.49177 6.26799 0 14.0001 0 21.7322 0 28.0006 6.49177 28.0006 14.4999Z" stroke="#000000" stroke-width="0" stroke-miterlimit="8" stroke-opacity="0" fill="none" fill-rule="evenodd" transform="matrix(-1 0 0 1 2438.5 1524.5)"/><path d="M28.0006 14.0001C28.0006 21.7322 21.7322 28.0006 14.0001 28.0006 6.26799 28.0006 0 21.7322 0 14.0001 0 6.26799 6.26799 0 14.0001 0 21.7322 0 28.0006 6.26799 28.0006 14.0001Z" fill="#1A476F" fill-rule="evenodd" transform="matrix(-1 0 0 1 2269 1539)"/><path d="M28.0002 13.9999C28.0002 21.7319 21.7319 28.0002 13.9999 28.0002 6.26791 28.0002 0 21.7319 0 13.9999 0 6.26791 6.26791 0 13.9999 0 21.7319 0 28.0002 6.26791 28.0002 13.9999Z" stroke="#000000" stroke-width="0" stroke-miterlimit="8" stroke-opacity="0" fill="#0070C0" fill-rule="evenodd" transform="matrix(-1 0 0 1 2269.5 1539.5)"/><path d="M28.0002 14.0001C28.0002 21.7322 21.7319 28.0006 13.9999 28.0006 6.26826 28.0006 0 21.7322 0 14.0001 0 6.26799 6.26826 0 13.9999 0 21.7319 0 28.0002 6.26799 28.0002 14.0001Z" fill="#1A476F" fill-rule="evenodd" transform="matrix(-1 0 0 1 2100 1550)"/><path d="M28.0006 13.9999C28.0006 21.7319 21.7322 28.0002 14.0001 28.0002 6.26834 28.0002 0 21.7319 0 13.9999 0 6.26791 6.26834 0 14.0001 0 21.7322 0 28.0006 6.26791 28.0006 13.9999Z" stroke="#000000" stroke-width="0" stroke-miterlimit="8" stroke-opacity="0" fill="#0070C0" fill-rule="evenodd" transform="matrix(-1 0 0 1 2100.5 1550.5)"/><path d="M28.0002 14.0001C28.0002 21.7322 21.7323 28.0006 14.0003 28.0006 6.26826 28.0006 0 21.7322 0 14.0001 0 6.26799 6.26826 0 14.0003 0 21.7323 0 28.0002 6.26799 28.0002 14.0001Z" fill="#1A476F" fill-rule="evenodd" transform="matrix(-1 0 0 1 1931 1535)"/><path d="M28.0006 13.9999C28.0006 21.7319 21.7326 28.0002 14.0005 28.0002 6.26834 28.0002 0 21.7319 0 13.9999 0 6.26791 6.26834 0 14.0005 0 21.7326 0 28.0006 6.26791 28.0006 13.9999Z" stroke="#000000" stroke-width="0" stroke-miterlimit="8" stroke-opacity="0" fill="#0070C0" fill-rule="evenodd" transform="matrix(-1 0 0 1 1931.5 1535.5)"/><path d="M28.0006 13.9999C28.0006 21.7319 21.7322 28.0002 14.0001 28.0002 6.26834 28.0002 0 21.7319 0 13.9999 0 6.26791 6.26834 0 14.0001 0 21.7322 0 28.0006 6.26791 28.0006 13.9999Z" fill="#0070C0" fill-rule="evenodd" transform="matrix(-1 0 0 1 1762 1534)"/><path d="M28.0002 13.9999C28.0002 21.7319 21.7319 28.0002 13.9999 28.0002 6.26826 28.0002 0 21.7319 0 13.9999 0 6.26791 6.26826 0 13.9999 0 21.7319 0 28.0002 6.26791 28.0002 13.9999Z" stroke="#000000" stroke-width="0" stroke-miterlimit="8" stroke-opacity="0" fill="none" fill-rule="evenodd" transform="matrix(-1 0 0 1 1762.5 1534.5)"/><path d="M28.0002 13.9999C28.0002 21.7319 21.7319 28.0002 13.9999 28.0002 6.26791 28.0002 0 21.7319 0 13.9999 0 6.26791 6.26791 0 13.9999 0 21.7319 0 28.0002 6.26791 28.0002 13.9999Z" fill="#1A476F" fill-rule="evenodd" transform="matrix(-1 0 0 1 1593 1555)"/><path d="M28.0006 14.0001C28.0006 21.7322 21.7322 28.0006 14.0001 28.0006 6.26799 28.0006 0 21.7322 0 14.0001 0 6.26799 6.26799 0 14.0001 0 21.7322 0 28.0006 6.26799 28.0006 14.0001Z" stroke="#000000" stroke-width="0" stroke-miterlimit="8" stroke-opacity="0" fill="#0070C0" fill-rule="evenodd" transform="matrix(-1 0 0 1 1593.5 1555.5)"/><path d="M28.0006 13.9999C28.0006 21.7319 21.7322 28.0002 14.0005 28.0002 6.26834 28.0002 0 21.7319 0 13.9999 0 6.26791 6.26834 0 14.0005 0 21.7322 0 28.0006 6.26791 28.0006 13.9999Z" fill="#1A476F" fill-rule="evenodd" transform="matrix(-1 0 0 1 1424 1518)"/><path d="M28.0002 14.0001C28.0002 21.7322 21.7319 28.0006 14.0003 28.0006 6.26826 28.0006 0 21.7322 0 14.0001 0 6.26799 6.26826 0 14.0003 0 21.7319 0 28.0002 6.26799 28.0002 14.0001Z" stroke="#000000" stroke-width="0" stroke-miterlimit="8" stroke-opacity="0" fill="#0070C0" fill-rule="evenodd" transform="matrix(-1 0 0 1 1424.5 1518.5)"/><path d="M28.0006 14.0001C28.0006 21.7322 21.7322 28.0006 14.0001 28.0006 6.26799 28.0006 0 21.7322 0 14.0001 0 6.26799 6.26799 0 14.0001 0 21.7322 0 28.0006 6.26799 28.0006 14.0001Z" fill="#1A476F" fill-rule="evenodd" transform="matrix(-1 0 0 1 1255 1581)"/><path d="M28.0002 13.9999C28.0002 21.7319 21.7319 28.0002 13.9999 28.0002 6.26791 28.0002 0 21.7319 0 13.9999 0 6.26791 6.26791 0 13.9999 0 21.7319 0 28.0002 6.26791 28.0002 13.9999Z" stroke="#000000" stroke-width="0" stroke-miterlimit="8" stroke-opacity="0" fill="#0070C0" fill-rule="evenodd" transform="matrix(-1 0 0 1 1255.5 1581.5)"/><path d="M28.0002 14.0001C28.0002 21.7322 21.7323 28.0006 14.0003 28.0006 6.26826 28.0006 0 21.7322 0 14.0001 0 6.26799 6.26826 0 14.0003 0 21.7323 0 28.0002 6.26799 28.0002 14.0001Z" fill="#1A476F" fill-rule="evenodd" transform="matrix(-1 0 0 1 1086 1647)"/><path d="M28.0006 13.9999C28.0006 21.7319 21.7326 28.0002 14.0005 28.0002 6.26834 28.0002 0 21.7319 0 13.9999 0 6.26791 6.26834 0 14.0005 0 21.7326 0 28.0006 6.26791 28.0006 13.9999Z" stroke="#000000" stroke-width="0" stroke-miterlimit="8" stroke-opacity="0" fill="#0070C0" fill-rule="evenodd" transform="matrix(-1 0 0 1 1086.5 1647.5)"/><path d="M28.0006 14.5001C28.0006 22.5084 21.7322 29.0006 14.0001 29.0006 6.26799 29.0006 0 22.5084 0 14.5001 0 6.49185 6.26799 0 14.0001 0 21.7322 0 28.0006 6.49185 28.0006 14.5001Z" fill="#0070C0" fill-rule="evenodd" transform="matrix(-1 0 0 1 917 1637)"/><path d="M28.0002 14.4999C28.0002 22.5081 21.7319 29.0002 13.9999 29.0002 6.26791 29.0002 0 22.5081 0 14.4999 0 6.49177 6.26791 0 13.9999 0 21.7319 0 28.0002 6.49177 28.0002 14.4999Z" stroke="#000000" stroke-width="0" stroke-miterlimit="8" stroke-opacity="0" fill="none" fill-rule="evenodd" transform="matrix(-1 0 0 1 917.5 1637.5)"/><path d="M28.0002 14.5001C28.0002 22.5084 21.7323 29.0006 14.0003 29.0006 6.26826 29.0006 0 22.5084 0 14.5001 0 6.49222 6.26826 0 14.0003 0 21.7323 0 28.0002 6.49222 28.0002 14.5001Z" fill="#0070C0" fill-rule="evenodd" transform="matrix(-1 0 0 1 748 1579)"/><path d="M28.0002 14.4999C28.0002 22.5081 21.7323 29.0002 14.0003 29.0002 6.26826 29.0002 0 22.5081 0 14.4999 0 6.49214 6.26826 0 14.0003 0 21.7323 0 28.0002 6.49214 28.0002 14.4999Z" stroke="#000000" stroke-width="0" stroke-miterlimit="8" stroke-opacity="0" fill="none" fill-rule="evenodd" transform="matrix(-1 0 0 1 748.5 1579.5)"/><path d="M28.0002 13.9999C28.0002 21.7319 21.7319 28.0002 13.9999 28.0002 6.26791 28.0002 0 21.7319 0 13.9999 0 6.26791 6.26791 0 13.9999 0 21.7319 0 28.0002 6.26791 28.0002 13.9999Z" fill="#0070C0" fill-rule="evenodd" transform="matrix(-1 0 0 1 579 1577)"/><path d="M28.0006 14.0001C28.0006 21.7322 21.7322 28.0006 14.0001 28.0006 6.26799 28.0006 0 21.7322 0 14.0001 0 6.26799 6.26799 0 14.0001 0 21.7322 0 28.0006 6.26799 28.0006 14.0001Z" stroke="#000000" stroke-width="0" stroke-miterlimit="8" stroke-opacity="0" fill="none" fill-rule="evenodd" transform="matrix(-1 0 0 1 579.5 1577.5)"/><path d="M0 0 3042 0" stroke="#000000" stroke-width="3.7125" stroke-miterlimit="8" fill="none" fill-rule="evenodd" transform="matrix(-1 0 0 1 3522 2145)"/><path d="M0 0 0 26.0005" stroke="#000000" stroke-width="3.7125" stroke-miterlimit="8" fill="none" fill-rule="evenodd" transform="matrix(-1 0 0 1 3438 2145)"/><text font-family="Avenir Next LT Pro Light,Avenir Next LT Pro Light_MSFontService,sans-serif" font-weight="300" font-size="50" transform="matrix(1 0 0 1 3417.53 2218)">20</text><path d="M0 0 0 26.0005" stroke="#000000" stroke-width="3.7125" stroke-miterlimit="8" fill="none" fill-rule="evenodd" transform="matrix(-1 0 0 1 3269 2145)"/><text font-family="Avenir Next LT Pro Light,Avenir Next LT Pro Light_MSFontService,sans-serif" font-weight="300" font-size="50" transform="matrix(1 0 0 1 3248.54 2218)">19</text><path d="M0 0 0 26.0005" stroke="#000000" stroke-width="3.7125" stroke-miterlimit="8" fill="none" fill-rule="evenodd" transform="matrix(-1 0 0 1 3100 2145)"/><text font-family="Avenir Next LT Pro Light,Avenir Next LT Pro Light_MSFontService,sans-serif" font-weight="300" font-size="50" transform="matrix(1 0 0 1 3079.55 2218)">18</text><path d="M0 0 0 26.0005" stroke="#000000" stroke-width="3.7125" stroke-miterlimit="8" fill="none" fill-rule="evenodd" transform="matrix(-1 0 0 1 2931 2145)"/><text font-family="Avenir Next LT Pro Light,Avenir Next LT Pro Light_MSFontService,sans-serif" font-weight="300" font-size="50" transform="matrix(1 0 0 1 2910.56 2218)">17</text><path d="M0 0 0 26.0005" stroke="#000000" stroke-width="3.7125" stroke-miterlimit="8" fill="none" fill-rule="evenodd" transform="matrix(-1 0 0 1 2762 2145)"/><text font-family="Avenir Next LT Pro Light,Avenir Next LT Pro Light_MSFontService,sans-serif" font-weight="300" font-size="50" transform="matrix(1 0 0 1 2741.59 2218)">16</text><path d="M0 0 0 26.0005" stroke="#000000" stroke-width="3.7125" stroke-miterlimit="8" fill="none" fill-rule="evenodd" transform="matrix(-1 0 0 1 2593 2145)"/><text font-family="Avenir Next LT Pro Light,Avenir Next LT Pro Light_MSFontService,sans-serif" font-weight="300" font-size="50" transform="matrix(1 0 0 1 2572.6 2218)">15</text><path d="M0 0 0 26.0005" stroke="#000000" stroke-width="3.7125" stroke-miterlimit="8" fill="none" fill-rule="evenodd" transform="matrix(-1 0 0 1 2424 2145)"/><text font-family="Avenir Next LT Pro Light,Avenir Next LT Pro Light_MSFontService,sans-serif" font-weight="300" font-size="50" transform="matrix(1 0 0 1 2403.61 2218)">14</text><path d="M0 0 0 26.0005" stroke="#000000" stroke-width="3.7125" stroke-miterlimit="8" fill="none" fill-rule="evenodd" transform="matrix(-1 0 0 1 2255 2145)"/><text font-family="Avenir Next LT Pro Light,Avenir Next LT Pro Light_MSFontService,sans-serif" font-weight="300" font-size="50" transform="matrix(1 0 0 1 2234.62 2218)">13</text><path d="M0 0 0 26.0005" stroke="#000000" stroke-width="3.7125" stroke-miterlimit="8" fill="none" fill-rule="evenodd" transform="matrix(-1 0 0 1 2086 2145)"/><text font-family="Avenir Next LT Pro Light,Avenir Next LT Pro Light_MSFontService,sans-serif" font-weight="300" font-size="50" transform="matrix(1 0 0 1 2065.64 2218)">12</text><path d="M0 0 0 26.0005" stroke="#000000" stroke-width="3.7125" stroke-miterlimit="8" fill="none" fill-rule="evenodd" transform="matrix(-1 0 0 1 1917 2145)"/><text font-family="Avenir Next LT Pro Light,Avenir Next LT Pro Light_MSFontService,sans-serif" font-weight="300" font-size="50" transform="matrix(1 0 0 1 1894.07 2218)">11</text><path d="M0 0 0 26.0005" stroke="#000000" stroke-width="3.7125" stroke-miterlimit="8" fill="none" fill-rule="evenodd" transform="matrix(-1 0 0 1 1748 2145)"/><text font-family="Avenir Next LT Pro Light,Avenir Next LT Pro Light_MSFontService,sans-serif" font-weight="300" font-size="50" transform="matrix(1 0 0 1 1727.66 2218)">10</text><path d="M0 0 0 26.0005" stroke="#000000" stroke-width="3.7125" stroke-miterlimit="8" fill="none" fill-rule="evenodd" transform="matrix(-1 0 0 1 1579 2145)"/><text font-family="Avenir Next LT Pro Light,Avenir Next LT Pro Light_MSFontService,sans-serif" font-weight="300" font-size="50" transform="matrix(1 0 0 1 1570.13 2218)">9</text><path d="M0 0 0 26.0005" stroke="#000000" stroke-width="3.7125" stroke-miterlimit="8" fill="none" fill-rule="evenodd" transform="matrix(-1 0 0 1 1410 2145)"/><text font-family="Avenir Next LT Pro Light,Avenir Next LT Pro Light_MSFontService,sans-serif" font-weight="300" font-size="50" transform="matrix(1 0 0 1 1401.15 2218)">8</text><path d="M0 0 0 26.0005" stroke="#000000" stroke-width="3.7125" stroke-miterlimit="8" fill="none" fill-rule="evenodd" transform="matrix(-1 0 0 1 1241 2145)"/><text font-family="Avenir Next LT Pro Light,Avenir Next LT Pro Light_MSFontService,sans-serif" font-weight="300" font-size="50" transform="matrix(1 0 0 1 1232.16 2218)">7</text><path d="M0 0 0 26.0005" stroke="#000000" stroke-width="3.7125" stroke-miterlimit="8" fill="none" fill-rule="evenodd" transform="matrix(-1 0 0 1 1072 2145)"/><text font-family="Avenir Next LT Pro Light,Avenir Next LT Pro Light_MSFontService,sans-serif" font-weight="300" font-size="50" transform="matrix(1 0 0 1 1063.18 2218)">6</text><path d="M0 0 0 26.0005" stroke="#000000" stroke-width="3.7125" stroke-miterlimit="8" fill="none" fill-rule="evenodd" transform="matrix(-1 0 0 1 903 2145)"/><text font-family="Avenir Next LT Pro Light,Avenir Next LT Pro Light_MSFontService,sans-serif" font-weight="300" font-size="50" transform="matrix(1 0 0 1 894.188 2218)">5</text><path d="M0 0 0 26.0005" stroke="#000000" stroke-width="3.7125" stroke-miterlimit="8" fill="none" fill-rule="evenodd" transform="matrix(-1 0 0 1 734 2145)"/><text font-family="Avenir Next LT Pro Light,Avenir Next LT Pro Light_MSFontService,sans-serif" font-weight="300" font-size="50" transform="matrix(1 0 0 1 725.201 2218)">4</text><path d="M0 0 0 26.0005" stroke="#000000" stroke-width="3.7125" stroke-miterlimit="8" fill="none" fill-rule="evenodd" transform="matrix(-1 0 0 1 565 2145)"/><text font-family="Avenir Next LT Pro Light,Avenir Next LT Pro Light_MSFontService,sans-serif" font-weight="300" font-size="50" transform="matrix(1 0 0 1 556.214 2218)">3<tspan fill="#1E2D53" font-weight="700" font-size="50" x="1191.58" y="-2097">(a) </tspan><tspan fill="#1E2D53" font-size="50" x="1260.33" y="-2097">Linear specification</tspan><tspan fill="#1E2D53" font-weight="700" font-size="50" x="1130.59" y="-1017">(b) </tspan><tspan fill="#1E2D53" font-size="50" x="1205.07" y="-1017">Quadratic specification</tspan><tspan fill="#1E2D53" font-size="50" x="1295.91" y="106">Bandwidth</tspan></text><path d="M0 0 273 0" stroke="#7F7F7F" stroke-width="3.3" stroke-miterlimit="8" fill="none" fill-rule="evenodd" transform="matrix(-1 0 0 1 1925.5 2378.5)"/><text font-family="Avenir Next LT Pro Light,Avenir Next LT Pro Light_MSFontService,sans-serif" font-weight="300" font-size="46" transform="matrix(1 0 0 1 1459.17 2395)">95% C.I</text><path d="M22.0006 10.5003C22.0006 16.2994 17.0756 21.0005 11.0003 21.0005 4.92502 21.0005 0 16.2994 0 10.5003 0 4.70115 4.92502 0 11.0003 0 17.0756 0 22.0006 4.70115 22.0006 10.5003Z" fill="#0070C0" fill-rule="evenodd" transform="matrix(-1 0 0 1 2404 2370)"/><text font-family="Avenir Next LT Pro Light,Avenir Next LT Pro Light_MSFontService,sans-serif" font-weight="300" font-size="46" transform="matrix(1 0 0 1 2058.46 2398)">Point estimate</text><path d="M480 1095 480 164" stroke="#000000" stroke-width="3.7125" stroke-miterlimit="8" fill="none" fill-rule="evenodd"/><path d="M480 1033 454 1033" stroke="#000000" stroke-width="3.7125" stroke-miterlimit="8" fill="none" fill-rule="evenodd"/><text font-family="Avenir Next LT Pro Light,Avenir Next LT Pro Light_MSFontService,sans-serif" font-weight="300" font-size="50" transform="matrix(-1.83697e-16 -1 1 -1.83697e-16 416.922 1077)">-<tspan font-size="50" x="16" y="2.93915e-15">.25</tspan></text><path d="M480 878 454 878" stroke="#000000" stroke-width="3.7125" stroke-miterlimit="8" fill="none" fill-rule="evenodd"/><text font-family="Avenir Next LT Pro Light,Avenir Next LT Pro Light_MSFontService,sans-serif" font-weight="300" font-size="50" transform="matrix(-1.83697e-16 -1 1 -1.83697e-16 416.922 907)">-<tspan font-size="50" x="16" y="2.93915e-15">.2</tspan></text><path d="M480 723 454 723" stroke="#000000" stroke-width="3.7125" stroke-miterlimit="8" fill="none" fill-rule="evenodd"/><text font-family="Avenir Next LT Pro Light,Avenir Next LT Pro Light_MSFontService,sans-serif" font-weight="300" font-size="50" transform="matrix(-1.83697e-16 -1 1 -1.83697e-16 416.922 767)">-<tspan font-size="50" x="16" y="2.93915e-15">.15</tspan></text><path d="M480 568 454 568" stroke="#000000" stroke-width="3.7125" stroke-miterlimit="8" fill="none" fill-rule="evenodd"/><text font-family="Avenir Next LT Pro Light,Avenir Next LT Pro Light_MSFontService,sans-serif" font-weight="300" font-size="50" transform="matrix(-1.83697e-16 -1 1 -1.83697e-16 416.922 598)">-<tspan font-size="50" x="16" y="2.93915e-15">.1</tspan></text><path d="M480 413 454 413" stroke="#000000" stroke-width="3.7125" stroke-miterlimit="8" fill="none" fill-rule="evenodd"/><text font-family="Avenir Next LT Pro Light,Avenir Next LT Pro Light_MSFontService,sans-serif" font-weight="300" font-size="50" transform="matrix(-1.83697e-16 -1 1 -1.83697e-16 416.922 457)">-<tspan font-size="50" x="16" y="2.93915e-15">.05</tspan></text><path d="M480 258 454 258" stroke="#000000" stroke-width="3.7125" stroke-miterlimit="8" fill="none" fill-rule="evenodd"/><text font-family="Avenir Next LT Pro Light,Avenir Next LT Pro Light_MSFontService,sans-serif" font-weight="300" font-size="50" transform="matrix(-1.83697e-16 -1 1 -1.83697e-16 416.922 273)">0</text><path d="M480 2144 480 1214" stroke="#000000" stroke-width="3.7125" stroke-miterlimit="8" fill="none" fill-rule="evenodd"/><path d="M480 2104 454 2104" stroke="#000000" stroke-width="3.7125" stroke-miterlimit="8" fill="none" fill-rule="evenodd"/><text font-family="Avenir Next LT Pro Light,Avenir Next LT Pro Light_MSFontService,sans-serif" font-weight="300" font-size="50" transform="matrix(-1.83697e-16 -1 1 -1.83697e-16 416.922 2148)">-<tspan font-size="50" x="16" y="2.93915e-15">.25</tspan></text><path d="M480 1945 454 1945" stroke="#000000" stroke-width="3.7125" stroke-miterlimit="8" fill="none" fill-rule="evenodd"/><text font-family="Avenir Next LT Pro Light,Avenir Next LT Pro Light_MSFontService,sans-serif" font-weight="300" font-size="50" transform="matrix(-1.83697e-16 -1 1 -1.83697e-16 416.922 1975)">-<tspan font-size="50" x="16" y="2.93915e-15">.2</tspan></text><path d="M480 1787 454 1787" stroke="#000000" stroke-width="3.7125" stroke-miterlimit="8" fill="none" fill-rule="evenodd"/><text font-family="Avenir Next LT Pro Light,Avenir Next LT Pro Light_MSFontService,sans-serif" font-weight="300" font-size="50" transform="matrix(-1.83697e-16 -1 1 -1.83697e-16 416.921 1831)">-<tspan font-size="50" x="16" y="2.93915e-15">.15</tspan></text><path d="M480 1628 454 1628" stroke="#000000" stroke-width="3.7125" stroke-miterlimit="8" fill="none" fill-rule="evenodd"/><text font-family="Avenir Next LT Pro Light,Avenir Next LT Pro Light_MSFontService,sans-serif" font-weight="300" font-size="50" transform="matrix(-1.83697e-16 -1 1 -1.83697e-16 416.922 1658)">-<tspan font-size="50" x="16" y="2.93915e-15">.1</tspan></text><path d="M480 1470 454 1470" stroke="#000000" stroke-width="3.7125" stroke-miterlimit="8" fill="none" fill-rule="evenodd"/><text font-family="Avenir Next LT Pro Light,Avenir Next LT Pro Light_MSFontService,sans-serif" font-weight="300" font-size="50" transform="matrix(-1.83697e-16 -1 1 -1.83697e-16 416.922 1514)">-<tspan font-size="50" x="16" y="2.93915e-15">.05</tspan></text><path d="M480 1312 454 1312" stroke="#000000" stroke-width="3.7125" stroke-miterlimit="8" fill="none" fill-rule="evenodd"/><text font-family="Avenir Next LT Pro Light,Avenir Next LT Pro Light_MSFontService,sans-serif" font-weight="300" font-size="50" transform="matrix(-1.83697e-16 -1 1 -1.83697e-16 416.921 1327)">0<tspan fill="#1E2D53" font-size="50" x="-267" y="-142.143">Estimated RD treatement effect</tspan></text></g></svg>