<svg width="3744" height="2314" xmlns="http://www.w3.org/2000/svg" xmlns:xlink="http://www.w3.org/1999/xlink" xml:space="preserve" overflow="hidden"><defs><clipPath id="clip0"><rect x="-24" y="197" width="3744" height="2314"/></clipPath></defs><g clip-path="url(#clip0)" transform="translate(24 -197)"><path d="M183.5 2234.5 1723.5 2234.5" stroke="#EAF2F3" stroke-width="7.425" stroke-miterlimit="8" fill="none" fill-rule="evenodd"/><path d="M183.5 1373.5 1723.5 1373.5" stroke="#EAF2F3" stroke-width="7.425" stroke-miterlimit="8" fill="none" fill-rule="evenodd"/><path d="M183.5 512.5 1723.5 512.5" stroke="#EAF2F3" stroke-width="7.425" stroke-miterlimit="8" fill="none" fill-rule="evenodd"/><path d="M219.5 2233.5 270.5 2233.5 270.5 2234.5 219.5 2234.5Z" stroke="#A6A6A6" stroke-width="0.859285" stroke-miterlimit="8" fill="#BFBFBF" fill-rule="evenodd"/><path d="M271.5 2217.5 322.5 2217.5 322.5 2234.5 271.5 2234.5Z" stroke="#A6A6A6" stroke-width="0.859285" stroke-miterlimit="8" fill="#BFBFBF" fill-rule="evenodd"/><path d="M322.5 2203.5 376.5 2203.5 376.5 2234.5 322.5 2234.5Z" stroke="#A6A6A6" stroke-width="0.859285" stroke-miterlimit="8" fill="#BFBFBF" fill-rule="evenodd"/><path d="M376.5 2175.5 431.5 2175.5 431.5 2234.5 376.5 2234.5Z" stroke="#A6A6A6" stroke-width="0.859285" stroke-miterlimit="8" fill="#BFBFBF" fill-rule="evenodd"/><path d="M431.5 2125.5 486.5 2125.5 486.5 2234.5 431.5 2234.5Z" stroke="#A6A6A6" stroke-width="0.859285" stroke-miterlimit="8" fill="#BFBFBF" fill-rule="evenodd"/><path d="M486.5 2081.5 541.5 2081.5 541.5 2234.5 486.5 2234.5Z" stroke="#A6A6A6" stroke-width="0.859285" stroke-miterlimit="8" fill="#BFBFBF" fill-rule="evenodd"/><path d="M541.5 1962.5 596.5 1962.5 596.5 2234.5 541.5 2234.5Z" stroke="#A6A6A6" stroke-width="0.859285" stroke-miterlimit="8" fill="#BFBFBF" fill-rule="evenodd"/><path d="M596.5 1924.5 651.5 1924.5 651.5 2234.5 596.5 2234.5Z" stroke="#A6A6A6" stroke-width="0.859285" stroke-miterlimit="8" fill="#BFBFBF" fill-rule="evenodd"/><path d="M651.5 1762.5 706.5 1762.5 706.5 2234.5 651.5 2234.5Z" stroke="#A6A6A6" stroke-width="0.859285" stroke-miterlimit="8" fill="#BFBFBF" fill-rule="evenodd"/><path d="M706.5 1643.5 761.5 1643.5 761.5 2234.5 706.5 2234.5Z" stroke="#A6A6A6" stroke-width="0.859285" stroke-miterlimit="8" fill="#BFBFBF" fill-rule="evenodd"/><path d="M761.5 1526.5 816.5 1526.5 816.5 2234.5 761.5 2234.5Z" stroke="#A6A6A6" stroke-width="0.859285" stroke-miterlimit="8" fill="#BFBFBF" fill-rule="evenodd"/><path d="M816.5 1266.5 871.5 1266.5 871.5 2234.5 816.5 2234.5Z" stroke="#A6A6A6" stroke-width="0.859285" stroke-miterlimit="8" fill="#BFBFBF" fill-rule="evenodd"/><path d="M871.5 1101.5 926.5 1101.5 926.5 2234.5 871.5 2234.5Z" stroke="#A6A6A6" stroke-width="0.859285" stroke-miterlimit="8" fill="#BFBFBF" fill-rule="evenodd"/><path d="M926.5 1024.5 981.5 1024.5 981.5 2234.5 926.5 2234.5Z" stroke="#A6A6A6" stroke-width="0.859285" stroke-miterlimit="8" fill="#BFBFBF" fill-rule="evenodd"/><path d="M981.5 736.5 1036.5 736.5 1036.5 2234.5 981.5 2234.5Z" stroke="#A6A6A6" stroke-width="0.859285" stroke-miterlimit="8" fill="#BFBFBF" fill-rule="evenodd"/><path d="M1036.5 817.5 1091.5 817.5 1091.5 2234.5 1036.5 2234.5Z" stroke="#A6A6A6" stroke-width="0.859285" stroke-miterlimit="8" fill="#BFBFBF" fill-rule="evenodd"/><path d="M1091.5 727.5 1146.5 727.5 1146.5 2234.5 1091.5 2234.5Z" stroke="#A6A6A6" stroke-width="0.859285" stroke-miterlimit="8" fill="#BFBFBF" fill-rule="evenodd"/><path d="M1146.5 793.5 1201.5 793.5 1201.5 2234.5 1146.5 2234.5Z" stroke="#404040" stroke-width="0.859285" stroke-miterlimit="8" fill="#7F7F7F" fill-rule="evenodd"/><path d="M1201.5 678.5 1256.5 678.5 1256.5 2234.5 1201.5 2234.5Z" stroke="#404040" stroke-width="0.859285" stroke-miterlimit="8" fill="#7F7F7F" fill-rule="evenodd"/><path d="M1256.5 581.5 1311.5 581.5 1311.5 2234.5 1256.5 2234.5Z" stroke="#404040" stroke-width="0.859285" stroke-miterlimit="8" fill="#7F7F7F" fill-rule="evenodd"/><path d="M1311.5 488.5 1366.5 488.5 1366.5 2234.5 1311.5 2234.5Z" stroke="#404040" stroke-width="0.859285" stroke-miterlimit="8" fill="#7F7F7F" fill-rule="evenodd"/><path d="M1366.5 362.5 1420.5 362.5 1420.5 2234.5 1366.5 2234.5Z" stroke="#404040" stroke-width="0.859285" stroke-miterlimit="8" fill="#7F7F7F" fill-rule="evenodd"/><path d="M1420.5 364.5 1475.5 364.5 1475.5 2234.5 1420.5 2234.5Z" stroke="#404040" stroke-width="0.859285" stroke-miterlimit="8" fill="#7F7F7F" fill-rule="evenodd"/><path d="M1475.5 290.5 1530.5 290.5 1530.5 2234.5 1475.5 2234.5Z" stroke="#404040" stroke-width="0.859285" stroke-miterlimit="8" fill="#7F7F7F" fill-rule="evenodd"/><path d="M1530.5 335.5 1585.5 335.5 1585.5 2234.5 1530.5 2234.5Z" stroke="#404040" stroke-width="0.859285" stroke-miterlimit="8" fill="#7F7F7F" fill-rule="evenodd"/><path d="M1585.5 497.5 1640.5 497.5 1640.5 2234.5 1585.5 2234.5Z" stroke="#404040" stroke-width="0.859285" stroke-miterlimit="8" fill="#7F7F7F" fill-rule="evenodd"/><path d="M1640.5 908.5 1695.5 908.5 1695.5 2234.5 1640.5 2234.5Z" stroke="#404040" stroke-width="0.859285" stroke-miterlimit="8" fill="#7F7F7F" fill-rule="evenodd"/><path d="M183.5 2288.5 183.5 236.5" stroke="#000000" stroke-width="4.95" stroke-miterlimit="8" fill="none" fill-rule="evenodd"/><path d="M183.5 2234.5 166.5 2234.5" stroke="#000000" stroke-width="4.95" stroke-miterlimit="8" fill="none" fill-rule="evenodd"/><text font-family="Avenir Next LT Pro,Avenir Next LT Pro_MSFontService,sans-serif" font-weight="400" font-size="50" transform="matrix(-1.83697e-16 -1 1 -1.83697e-16 134.252 2249)">0</text><path d="M183.5 1373.5 166.5 1373.5" stroke="#000000" stroke-width="4.95" stroke-miterlimit="8" fill="none" fill-rule="evenodd"/><text font-family="Avenir Next LT Pro,Avenir Next LT Pro_MSFontService,sans-serif" font-weight="400" font-size="50" transform="matrix(-1.83697e-16 -1 1 -1.83697e-16 134.252 1418)">500</text><path d="M183.5 512.5 166.5 512.5" stroke="#000000" stroke-width="4.95" stroke-miterlimit="8" fill="none" fill-rule="evenodd"/><text font-family="Avenir Next LT Pro,Avenir Next LT Pro_MSFontService,sans-serif" font-weight="400" font-size="50" transform="matrix(-1.83697e-16 -1 1 -1.83697e-16 134.252 572)">1000<tspan font-size="50" x="-818" y="-93.9941">Frequency</tspan></text><path d="M183.5 2288.5 1723.5 2288.5" stroke="#000000" stroke-width="4.95" stroke-miterlimit="8" fill="none" fill-rule="evenodd"/><path d="M212.5 2288.5 212.5 2323.5" stroke="#000000" stroke-width="4.95" stroke-miterlimit="8" fill="none" fill-rule="evenodd"/><text font-family="Avenir Next LT Pro,Avenir Next LT Pro_MSFontService,sans-serif" font-weight="400" font-size="50" transform="matrix(1 0 0 1 180.22 2381)">1940</text><path d="M578.5 2288.5 578.5 2323.5" stroke="#000000" stroke-width="4.95" stroke-miterlimit="8" fill="none" fill-rule="evenodd"/><text font-family="Avenir Next LT Pro,Avenir Next LT Pro_MSFontService,sans-serif" font-weight="400" font-size="50" transform="matrix(1 0 0 1 542.861 2381)">1960</text><path d="M944.5 2288.5 944.5 2323.5" stroke="#000000" stroke-width="4.95" stroke-miterlimit="8" fill="none" fill-rule="evenodd"/><text font-family="Avenir Next LT Pro,Avenir Next LT Pro_MSFontService,sans-serif" font-weight="400" font-size="50" transform="matrix(1 0 0 1 909.169 2381)">1980</text><path d="M1311.5 2288.5 1311.5 2323.5" stroke="#000000" stroke-width="4.95" stroke-miterlimit="8" fill="none" fill-rule="evenodd"/><text font-family="Avenir Next LT Pro,Avenir Next LT Pro_MSFontService,sans-serif" font-weight="400" font-size="50" transform="matrix(1 0 0 1 1275.53 2381)">2000</text><path d="M1677.5 2288.5 1677.5 2323.5" stroke="#000000" stroke-width="4.95" stroke-miterlimit="8" fill="none" fill-rule="evenodd"/><text font-family="Avenir Next LT Pro,Avenir Next LT Pro_MSFontService,sans-serif" font-weight="400" font-size="50" transform="matrix(1 0 0 1 1641.84 2381)">2020<tspan font-size="50" x="-678.856" y="87">A</tspan>dult age year</text><path d="M1146.5 2288.5 1146.5 236.5" stroke="#FF0000" stroke-width="7.425" stroke-miterlimit="8" fill="none" fill-rule="evenodd"/><text font-family="Avenir Next LT Pro,Avenir Next LT Pro_MSFontService,sans-serif" font-weight="400" font-size="50" transform="matrix(1 0 0 1 1201.35 261)">1991</text><path d="M2412.5 234.5 3713.5 234.5 3713.5 2134.5 2412.5 2134.5Z" stroke="#FFFFFF" stroke-width="4.95505" stroke-miterlimit="8" fill="none" fill-rule="evenodd"/><path d="M2409.5 2014.5 3716.5 2014.5" stroke="#EAF2F3" stroke-width="7.43258" stroke-miterlimit="8" fill="none" fill-rule="evenodd"/><path d="M2409.5 1669.5 3716.5 1669.5" stroke="#EAF2F3" stroke-width="7.43258" stroke-miterlimit="8" fill="none" fill-rule="evenodd"/><path d="M2409.5 1323.5 3716.5 1323.5" stroke="#EAF2F3" stroke-width="7.43258" stroke-miterlimit="8" fill="none" fill-rule="evenodd"/><path d="M2409.5 978.5 3716.5 978.5" stroke="#EAF2F3" stroke-width="7.43258" stroke-miterlimit="8" fill="none" fill-rule="evenodd"/><path d="M2409.5 632.5 3716.5 632.5" stroke="#EAF2F3" stroke-width="7.43258" stroke-miterlimit="8" fill="none" fill-rule="evenodd"/><path d="M2409.5 286.5 3716.5 286.5" stroke="#EAF2F3" stroke-width="7.43258" stroke-miterlimit="8" fill="none" fill-rule="evenodd"/><path d="M2572 2023 2572 2023 2639.77 2005.44 2707.64 1957.33 2775.41 1872.08 2843.17 1723.71 2910.94 1502 2978.71 1254.64 3046.47 1022.4 3114.23 872.006 3182 958.855 3182 771 3114.23 815.491 3046.47 973.648 2978.71 1205.47 2910.94 1457.83 2843.17 1684.64 2775.41 1840.47 2707.64 1935.62 2639.77 1981.81 2572 1964.36 2572 2023Z" fill="#D7D7D7" fill-rule="evenodd"/><path d="M2572.5 2023.5 2572.5 2023.5 2640.27 2005.94 2708.14 1957.83 2775.91 1872.58 2843.67 1724.21 2911.44 1502.5 2979.21 1255.14 3046.97 1022.9 3114.73 872.506 3182.5 959.354 3182.5 771.5 3114.73 815.991 3046.97 974.148 2979.21 1205.97 2911.44 1458.33 2843.67 1685.14 2775.91 1840.97 2708.14 1936.12 2640.27 1982.31 2572.5 1964.86 2572.5 2023.5Z" stroke="#FFFFFF" stroke-width="14.8652" stroke-linejoin="round" stroke-miterlimit="10" stroke-opacity="0" fill="none" fill-rule="evenodd"/><path d="M3182 975.692 3182 975.692 3220.62 785.855 3259.15 650.049 3297.67 546.448 3336.29 479.609 3374.82 447.422 3413.33 457.12 3451.85 529.179 3490.48 709.317 3529 1089 3529 868.035 3490.48 596.44 3451.85 458.826 3413.33 392.417 3374.82 376 3336.29 408.085 3297.67 482.064 3259.15 582.685 3220.62 680.325 3182 768.267 3182 975.692Z" fill="#D7D7D7" fill-rule="evenodd"/><path d="M3182.5 976.192 3182.5 976.192 3221.13 786.355 3259.65 650.549 3298.17 546.948 3336.79 480.109 3375.32 447.921 3413.83 457.62 3452.35 529.679 3490.98 709.817 3529.5 1089.5 3529.5 868.535 3490.98 596.94 3452.35 459.326 3413.83 392.917 3375.32 376.5 3336.79 408.584 3298.17 482.564 3259.65 583.184 3221.13 680.825 3182.5 768.767 3182.5 976.192Z" stroke="#FFFFFF" stroke-width="14.8652" stroke-linejoin="round" stroke-miterlimit="10" stroke-opacity="0" fill="none" fill-rule="evenodd"/><path d="M2572 2083 2639.77 2038.17 2707.53 1963.09 2775.29 1847.02 2843.06 1682.29 2910.83 1473.78 2978.71 1250.16 3046.47 1031.22 3114.23 839.862 3182 714" stroke="#0572C0" stroke-width="6.19364" stroke-linejoin="round" stroke-miterlimit="10" fill="none" fill-rule="evenodd"/><path d="M3182 789 3220.52 692.999 3259.15 609.527 3297.67 553.241 3336.18 514.581 3374.71 486.975 3413.33 472 3451.85 478.479 3490.37 524.57 3529 624.287" stroke="#0572C0" stroke-width="6.19364" stroke-linejoin="round" stroke-miterlimit="10" fill="none" fill-rule="evenodd"/><path d="M2406.5 2137.5 2406.5 232.5" stroke="#000000" stroke-width="4.95505" stroke-miterlimit="8" fill="none" fill-rule="evenodd"/><path d="M2406.5 2014.5 2372.5 2014.5" stroke="#000000" stroke-width="4.95505" stroke-miterlimit="8" fill="none" fill-rule="evenodd"/><text font-family="Avenir Next LT Pro,Avenir Next LT Pro_MSFontService,sans-serif" font-weight="400" font-size="50" transform="matrix(-1.83697e-16 -1 1 -1.83697e-16 2316.1 2029)">0</text><path d="M2406.5 1669.5 2372.5 1669.5" stroke="#000000" stroke-width="4.95505" stroke-miterlimit="8" fill="none" fill-rule="evenodd"/><text font-family="Avenir Next LT Pro,Avenir Next LT Pro_MSFontService,sans-serif" font-weight="400" font-size="50" transform="matrix(-1.83697e-16 -1 1 -1.83697e-16 2316.1 1720)">.005</text><path d="M2406.5 1323.5 2372.5 1323.5" stroke="#000000" stroke-width="4.95505" stroke-miterlimit="8" fill="none" fill-rule="evenodd"/><text font-family="Avenir Next LT Pro,Avenir Next LT Pro_MSFontService,sans-serif" font-weight="400" font-size="50" transform="matrix(-1.83697e-16 -1 1 -1.83697e-16 2316.1 1360)">.01</text><path d="M2406.5 978.5 2372.5 978.5" stroke="#000000" stroke-width="4.95505" stroke-miterlimit="8" fill="none" fill-rule="evenodd"/><text font-family="Avenir Next LT Pro,Avenir Next LT Pro_MSFontService,sans-serif" font-weight="400" font-size="50" transform="matrix(-1.83697e-16 -1 1 -1.83697e-16 2316.1 1029)">.015</text><path d="M2406.5 632.5 2372.5 632.5" stroke="#000000" stroke-width="4.95505" stroke-miterlimit="8" fill="none" fill-rule="evenodd"/><text font-family="Avenir Next LT Pro,Avenir Next LT Pro_MSFontService,sans-serif" font-weight="400" font-size="50" transform="matrix(-1.83697e-16 -1 1 -1.83697e-16 2316.1 669)">.02</text><path d="M2406.5 286.5 2372.5 286.5" stroke="#000000" stroke-width="4.95505" stroke-miterlimit="8" fill="none" fill-rule="evenodd"/><text font-family="Avenir Next LT Pro,Avenir Next LT Pro_MSFontService,sans-serif" font-weight="400" font-size="50" transform="matrix(-1.83697e-16 -1 1 -1.83697e-16 2316.1 338)">.025</text><path d="M2409.5 2137.5 3716.5 2137.5" stroke="#000000" stroke-width="4.95505" stroke-miterlimit="8" fill="none" fill-rule="evenodd"/><path d="M2464.5 2137.5 2464.5 2171.5" stroke="#000000" stroke-width="4.95505" stroke-miterlimit="8" fill="none" fill-rule="evenodd"/><text font-family="Avenir Next LT Pro,Avenir Next LT Pro_MSFontService,sans-serif" font-weight="400" font-size="50" transform="matrix(1 0 0 1 2401.44 2219)">-<tspan font-size="50" x="16.0415" y="0">60</tspan></text><path d="M2703.5 2137.5 2703.5 2171.5" stroke="#000000" stroke-width="4.95505" stroke-miterlimit="8" fill="none" fill-rule="evenodd"/><text font-family="Avenir Next LT Pro,Avenir Next LT Pro_MSFontService,sans-serif" font-weight="400" font-size="50" transform="matrix(1 0 0 1 2640.94 2219)">-<tspan font-size="50" x="16.0415" y="0">40</tspan></text><path d="M2943.5 2137.5 2943.5 2171.5" stroke="#000000" stroke-width="4.95505" stroke-miterlimit="8" fill="none" fill-rule="evenodd"/><text font-family="Avenir Next LT Pro,Avenir Next LT Pro_MSFontService,sans-serif" font-weight="400" font-size="50" transform="matrix(1 0 0 1 2880.43 2219)">-<tspan font-size="50" x="16.0417" y="0">20</tspan></text><path d="M3182.5 2137.5 3182.5 2171.5" stroke="#000000" stroke-width="4.95505" stroke-miterlimit="8" fill="none" fill-rule="evenodd"/><text font-family="Avenir Next LT Pro,Avenir Next LT Pro_MSFontService,sans-serif" font-weight="400" font-size="50" transform="matrix(1 0 0 1 3158.11 2219)">0</text><path d="M3422.5 2137.5 3422.5 2171.5" stroke="#000000" stroke-width="4.95505" stroke-miterlimit="8" fill="none" fill-rule="evenodd"/><text font-family="Avenir Next LT Pro,Avenir Next LT Pro_MSFontService,sans-serif" font-weight="400" font-size="50" transform="matrix(1 0 0 1 3373.5 2219)">20</text><path d="M3661.5 2137.5 3661.5 2171.5" stroke="#000000" stroke-width="4.95505" stroke-miterlimit="8" fill="none" fill-rule="evenodd"/><text font-family="Avenir Next LT Pro,Avenir Next LT Pro_MSFontService,sans-serif" font-weight="400" font-size="50" transform="matrix(1 0 0 1 3613 2219)">40</text><path d="M3182 2137 3182 232" stroke="#FF0000" stroke-width="6.19364" stroke-miterlimit="8" fill="none" fill-rule="evenodd"/><text font-family="Avenir Next LT Pro Light,Avenir Next LT Pro Light_MSFontService,sans-serif" font-weight="300" font-size="46" transform="matrix(1 0 0 1 2756.97 2399)">95% C.I</text><rect x="2592" y="2367" width="132" height="36.9998" fill="#BFBFBF"/><text font-family="Avenir Next LT Pro Light,Avenir Next LT Pro Light_MSFontService,sans-serif" font-weight="300" font-size="46" transform="matrix(1 0 0 1 2491.04 2316)">R<tspan font-size="46" x="27.5" y="0">running variable centred around the 1991 cut</tspan><tspan font-size="46" x="964.792" y="0">-</tspan><tspan font-size="46" x="979.115" y="0">off </tspan></text><path d="M2945.5 2380.5 3218.5 2380.5" stroke="#0070C0" stroke-width="3.3" stroke-miterlimit="8" fill="none" fill-rule="evenodd"/><text font-family="Avenir Next LT Pro Light,Avenir Next LT Pro Light_MSFontService,sans-serif" font-weight="300" font-size="46" transform="matrix(1 0 0 1 3250.76 2397)">Density</text><text font-family="Avenir Next LT Pro,Avenir Next LT Pro_MSFontService,sans-serif" font-weight="400" font-size="46" transform="matrix(-1.83697e-16 -1 1 -1.83697e-16 2174.65 1269)">Density</text></g></svg>