<svg width="2717" height="1406" xmlns="http://www.w3.org/2000/svg" xmlns:xlink="http://www.w3.org/1999/xlink" xml:space="preserve" overflow="hidden"><defs><clipPath id="clip0"><rect x="538" y="242" width="2717" height="1406"/></clipPath></defs><g clip-path="url(#clip0)" transform="translate(-538 -242)"><text font-family="Avenir Next LT Pro Light,Avenir Next LT Pro Light_MSFontService,sans-serif" font-weight="300" font-size="46" transform="matrix(1 0 0 1 1590.27 1600)">Point estimate</text><path d="M0 0 2506 0" stroke="#EAF2F3" stroke-width="7.425" stroke-miterlimit="8" fill="none" fill-rule="evenodd" transform="matrix(1 0 0 -1 745.5 1280.5)"/><path d="M745.5 1031.5 3249.5 1031.5" stroke="#EAF2F3" stroke-width="7.425" stroke-miterlimit="8" fill="none" fill-rule="evenodd"/><path d="M745.5 534.5 3247.5 534.5" stroke="#EAF2F3" stroke-width="7.425" stroke-miterlimit="8" fill="none" fill-rule="evenodd"/><path d="M745.5 285.5 3251.5 285.5" stroke="#EAF2F3" stroke-width="7.425" stroke-miterlimit="8" fill="none" fill-rule="evenodd"/><path d="M745.5 783.5 3251.5 783.5" stroke="#FF0000" stroke-width="7.425" stroke-miterlimit="8" fill="none" fill-rule="evenodd"/><path d="M993.5 872.5 993.5 386.5" stroke="#A6A6A6" stroke-width="7.425" stroke-miterlimit="8" fill="none" fill-rule="evenodd"/><path d="M972.5 386.5 1014.5 386.5" stroke="#A6A6A6" stroke-width="7.425" stroke-linecap="round" stroke-miterlimit="8" fill="none" fill-rule="evenodd"/><path d="M972.5 872.5 1014.5 872.5" stroke="#A6A6A6" stroke-width="7.425" stroke-linecap="round" stroke-miterlimit="8" fill="none" fill-rule="evenodd"/><path d="M1006 633C1006 640.18 1000.18 646 993 646 985.82 646 980 640.18 980 633 980 625.82 985.82 620 993 620 1000.18 620 1006 625.82 1006 633Z" fill="#0070C0" fill-rule="evenodd"/><path d="M1480.5 1137.5 1480.5 713.5" stroke="#A6A6A6" stroke-width="7.425" stroke-miterlimit="8" fill="none" fill-rule="evenodd"/><path d="M1459.5 713.5 1501.5 713.5" stroke="#A6A6A6" stroke-width="7.425" stroke-linecap="round" stroke-miterlimit="8" fill="none" fill-rule="evenodd"/><path d="M1459.5 1137.5 1501.5 1137.5" stroke="#A6A6A6" stroke-width="7.425" stroke-linecap="round" stroke-miterlimit="8" fill="none" fill-rule="evenodd"/><path d="M1495 929C1495 936.18 1489.18 942 1482 942 1474.82 942 1469 936.18 1469 929 1469 921.82 1474.82 916 1482 916 1489.18 916 1495 921.82 1495 929Z" fill="#0070C0" fill-rule="evenodd"/><path d="M1970.5 944.5 1970.5 808.5" stroke="#A6A6A6" stroke-width="7.425" stroke-miterlimit="8" fill="none" fill-rule="evenodd"/><path d="M1949.5 808.5 1991.5 808.5" stroke="#A6A6A6" stroke-width="7.425" stroke-linecap="round" stroke-miterlimit="8" fill="none" fill-rule="evenodd"/><path d="M1949.5 944.5 1991.5 944.5" stroke="#A6A6A6" stroke-width="7.425" stroke-linecap="round" stroke-miterlimit="8" fill="none" fill-rule="evenodd"/><path d="M1983 880C1983 887.18 1977.18 893 1970 893 1962.82 893 1957 887.18 1957 880 1957 872.82 1962.82 867 1970 867 1977.18 867 1983 872.82 1983 880Z" fill="#0070C0" fill-rule="evenodd"/><path d="M2517.5 816.5 2517.5 748.5" stroke="#A6A6A6" stroke-width="7.425" stroke-miterlimit="8" fill="none" fill-rule="evenodd"/><path d="M2496.5 748.5 2538.5 748.5" stroke="#A6A6A6" stroke-width="7.425" stroke-linecap="round" stroke-miterlimit="8" fill="none" fill-rule="evenodd"/><path d="M2496.5 816.5 2538.5 816.5" stroke="#A6A6A6" stroke-width="7.425" stroke-linecap="round" stroke-miterlimit="8" fill="none" fill-rule="evenodd"/><path d="M2530 784C2530 791.18 2524.18 797 2517 797 2509.82 797 2504 791.18 2504 784 2504 776.82 2509.82 771 2517 771 2524.18 771 2530 776.82 2530 784Z" fill="#0070C0" fill-rule="evenodd"/><path d="M3004.5 796.5 3004.5 690.5" stroke="#A6A6A6" stroke-width="7.425" stroke-miterlimit="8" fill="none" fill-rule="evenodd"/><path d="M2983.5 690.5 3025.5 690.5" stroke="#A6A6A6" stroke-width="7.425" stroke-linecap="round" stroke-miterlimit="8" fill="none" fill-rule="evenodd"/><path d="M2983.5 796.5 3025.5 796.5" stroke="#A6A6A6" stroke-width="7.425" stroke-linecap="round" stroke-miterlimit="8" fill="none" fill-rule="evenodd"/><path d="M3017 747C3017 754.18 3011.18 760 3004 760 2996.82 760 2991 754.18 2991 747 2991 739.82 2996.82 734 3004 734 3011.18 734 3017 739.82 3017 747Z" fill="#0070C0" fill-rule="evenodd"/><path d="M745.5 1307.5 745.5 259.5" stroke="#000000" stroke-width="4.95" stroke-miterlimit="8" fill="none" fill-rule="evenodd"/><path d="M745.5 1280.5 707.5 1280.5" stroke="#000000" stroke-width="4.95" stroke-miterlimit="8" fill="none" fill-rule="evenodd"/><text font-family="Avenir Next LT Pro Light,Avenir Next LT Pro Light_MSFontService,sans-serif" font-weight="300" font-size="50" transform="matrix(-1.83697e-16 -1 1 -1.83697e-16 683.521 1310)">-<tspan font-size="50" x="16" y="2.93915e-15">.4</tspan></text><path d="M745.5 1031.5 707.5 1031.5" stroke="#000000" stroke-width="4.95" stroke-miterlimit="8" fill="none" fill-rule="evenodd"/><text font-family="Avenir Next LT Pro Light,Avenir Next LT Pro Light_MSFontService,sans-serif" font-weight="300" font-size="50" transform="matrix(-1.83697e-16 -1 1 -1.83697e-16 683.521 1061)">-<tspan font-size="50" x="16" y="2.93915e-15">.2</tspan></text><path d="M745.5 783.5 707.5 783.5" stroke="#000000" stroke-width="4.95" stroke-miterlimit="8" fill="none" fill-rule="evenodd"/><text font-family="Avenir Next LT Pro Light,Avenir Next LT Pro Light_MSFontService,sans-serif" font-weight="300" font-size="50" transform="matrix(-1.83697e-16 -1 1 -1.83697e-16 683.521 791)">0</text><path d="M745.5 534.5 707.5 534.5" stroke="#000000" stroke-width="4.95" stroke-miterlimit="8" fill="none" fill-rule="evenodd"/><text font-family="Avenir Next LT Pro Light,Avenir Next LT Pro Light_MSFontService,sans-serif" font-weight="300" font-size="50" transform="matrix(-1.83697e-16 -1 1 -1.83697e-16 683.521 564)">.2</text><path d="M745.5 285.5 707.5 285.5" stroke="#000000" stroke-width="4.95" stroke-miterlimit="8" fill="none" fill-rule="evenodd"/><text font-family="Avenir Next LT Pro Light,Avenir Next LT Pro Light_MSFontService,sans-serif" font-weight="300" font-size="50" transform="matrix(-1.83697e-16 -1 1 -1.83697e-16 683.521 315)">.4</text><path d="M0 0 2506 0" stroke="#000000" stroke-width="4.95" stroke-miterlimit="8" fill="none" fill-rule="evenodd" transform="matrix(1 0 0 -1 745.5 1307.5)"/><path d="M989.5 1307.5 989.5 1323.5" stroke="#000000" stroke-width="4.95" stroke-miterlimit="8" fill="none" fill-rule="evenodd"/><text font-family="Avenir Next LT Pro Light,Avenir Next LT Pro Light_MSFontService,sans-serif" font-weight="300" font-size="50" transform="matrix(1 0 0 1 957.351 1397)">-<tspan font-size="50" x="16.0417" y="0">7</tspan></text><path d="M1476.5 1307.5 1476.5 1323.5" stroke="#000000" stroke-width="4.95" stroke-miterlimit="8" fill="none" fill-rule="evenodd"/><text font-family="Avenir Next LT Pro Light,Avenir Next LT Pro Light_MSFontService,sans-serif" font-weight="300" font-size="50" transform="matrix(1 0 0 1 1444.75 1397)">-<tspan font-size="50" x="16.0416" y="0">5</tspan></text><path d="M1970.5 1307.5 1970.5 1323.5" stroke="#000000" stroke-width="4.95" stroke-miterlimit="8" fill="none" fill-rule="evenodd"/><text font-family="Avenir Next LT Pro Light,Avenir Next LT Pro Light_MSFontService,sans-serif" font-weight="300" font-size="50" transform="matrix(1 0 0 1 1949.27 1397)">0</text><path d="M2517.5 1307.5 2517.5 1323.5" stroke="#000000" stroke-width="4.95" stroke-miterlimit="8" fill="none" fill-rule="evenodd"/><text font-family="Avenir Next LT Pro Light,Avenir Next LT Pro Light_MSFontService,sans-serif" font-weight="300" font-size="50" transform="matrix(1 0 0 1 2496.16 1397)">5</text><path d="M3004.5 1307.5 3004.5 1323.5" stroke="#000000" stroke-width="4.95" stroke-miterlimit="8" fill="none" fill-rule="evenodd"/><text font-family="Avenir Next LT Pro Light,Avenir Next LT Pro Light_MSFontService,sans-serif" font-weight="300" font-size="50" transform="matrix(1 0 0 1 2983.45 1397)">7</text><path d="M2073.5 1594.5 2376.5 1594.5" stroke="#7F7F7F" stroke-width="3.3" stroke-miterlimit="8" fill="none" fill-rule="evenodd"/><text font-family="Avenir Next LT Pro Light,Avenir Next LT Pro Light_MSFontService,sans-serif" font-weight="300" font-size="46" transform="matrix(1 0 0 1 2408.8 1609)">95% C.I</text><path d="M1570 1589C1570 1596.18 1564.18 1602 1557 1602 1549.82 1602 1544 1596.18 1544 1589 1544 1581.82 1549.82 1576 1557 1576 1564.18 1576 1570 1581.82 1570 1589Z" fill="#0070C0" fill-rule="evenodd"/><text font-family="Avenir Next LT Pro Light,Avenir Next LT Pro Light_MSFontService,sans-serif" font-weight="300" font-size="50" transform="matrix(1 0 0 1 1882.03 1458)">(1<tspan font-size="50" x="44.1146" y="0">991)</tspan><tspan font-size="50" x="-965.049" y="1">(1986</tspan>)<tspan font-size="50" x="-479.265" y="0">(1984</tspan><tspan font-size="50" x="-347.494" y="0">)</tspan><tspan font-size="50" x="561.318" y="0">(1</tspan><tspan font-size="50" x="605.433" y="0">996)</tspan><tspan font-size="50" x="1028.05" y="0">(1</tspan><tspan font-size="50" x="1072.16" y="0">998)</tspan><tspan fill="#1E2D53" font-size="50" x="13.7196" y="106">Cut</tspan><tspan fill="#1E2D53" font-size="50" x="95.0737" y="106">-</tspan><tspan fill="#1E2D53" font-size="50" x="111.115" y="106">off</tspan></text><text fill="#1E2D53" font-family="Avenir Next LT Pro Light,Avenir Next LT Pro Light_MSFontService,sans-serif" font-weight="300" font-size="50" transform="matrix(-1.83697e-16 -1 1 -1.83697e-16 602.944 1128)">Estimated treatement effect</text></g></svg>