<svg width="1788" height="1376" xmlns="http://www.w3.org/2000/svg" xmlns:xlink="http://www.w3.org/1999/xlink" xml:space="preserve" overflow="hidden"><defs><clipPath id="clip0"><rect x="136" y="549" width="1788" height="1376"/></clipPath></defs><g clip-path="url(#clip0)" transform="translate(-136 -549)"><path d="M332.5 625.5 1919.5 625.5 1919.5 1717.5 332.5 1717.5Z" stroke="#FFFFFF" stroke-width="2.63993" stroke-miterlimit="8" fill="none" fill-rule="evenodd"/><path d="M330 1689 1920 1689" stroke="#EAF2F3" stroke-width="3.96007" stroke-miterlimit="8" fill="none" fill-rule="evenodd"/><path d="M330 1230 1920 1230" stroke="#EAF2F3" stroke-width="3.96007" stroke-miterlimit="8" fill="none" fill-rule="evenodd"/><path d="M330 771 1920 771" stroke="#EAF2F3" stroke-width="3.96007" stroke-miterlimit="8" fill="none" fill-rule="evenodd"/><path d="M402.5 1687.5 454.5 1687.5 454.5 1688.5 402.5 1688.5Z" stroke="#7F7F7F" stroke-width="1.14583" stroke-miterlimit="8" fill="#BFBFBF" fill-rule="evenodd"/><path d="M456.5 1678.5 511.5 1678.5 511.5 1689.5 456.5 1689.5Z" stroke="#7F7F7F" stroke-width="1.14583" stroke-miterlimit="8" fill="#BFBFBF" fill-rule="evenodd"/><path d="M511.5 1673.5 566.5 1673.5 566.5 1689.5 511.5 1689.5Z" stroke="#7F7F7F" stroke-width="1.14583" stroke-miterlimit="8" fill="#BFBFBF" fill-rule="evenodd"/><path d="M566.5 1658.5 622.5 1658.5 622.5 1689.5 566.5 1689.5Z" stroke="#7F7F7F" stroke-width="1.14583" stroke-miterlimit="8" fill="#BFBFBF" fill-rule="evenodd"/><path d="M622.5 1636.5 673.5 1636.5 673.5 1690.5 622.5 1690.5Z" stroke="#7F7F7F" stroke-width="1.14583" stroke-miterlimit="8" fill="#BFBFBF" fill-rule="evenodd"/><path d="M673.5 1608.5 728.5 1608.5 728.5 1689.5 673.5 1689.5Z" stroke="#7F7F7F" stroke-width="1.14583" stroke-miterlimit="8" fill="#BFBFBF" fill-rule="evenodd"/><path d="M728.5 1544.5 784.5 1544.5 784.5 1689.5 728.5 1689.5Z" stroke="#7F7F7F" stroke-width="1.14583" stroke-miterlimit="8" fill="#BFBFBF" fill-rule="evenodd"/><path d="M784.5 1524.5 839.5 1524.5 839.5 1689.5 784.5 1689.5Z" stroke="#7F7F7F" stroke-width="1.14583" stroke-miterlimit="8" fill="#BFBFBF" fill-rule="evenodd"/><path d="M839.5 1438.5 894.5 1438.5 894.5 1689.5 839.5 1689.5Z" stroke="#7F7F7F" stroke-width="1.14583" stroke-miterlimit="8" fill="#BFBFBF" fill-rule="evenodd"/><path d="M894.5 1374.5 950.5 1374.5 950.5 1689.5 894.5 1689.5Z" stroke="#7F7F7F" stroke-width="1.14583" stroke-miterlimit="8" fill="#BFBFBF" fill-rule="evenodd"/><path d="M950.5 1312.5 1005.5 1312.5 1005.5 1689.5 950.5 1689.5Z" stroke="#7F7F7F" stroke-width="1.14583" stroke-miterlimit="8" fill="#BFBFBF" fill-rule="evenodd"/><path d="M1005.5 1173.5 1061.5 1173.5 1061.5 1689.5 1005.5 1689.5Z" stroke="#7F7F7F" stroke-width="1.14583" stroke-miterlimit="8" fill="#BFBFBF" fill-rule="evenodd"/><path d="M1061.5 1085.5 1116.5 1085.5 1116.5 1689.5 1061.5 1689.5Z" stroke="#7F7F7F" stroke-width="1.14583" stroke-miterlimit="8" fill="#BFBFBF" fill-rule="evenodd"/><path d="M1116.5 1044.5 1171.5 1044.5 1171.5 1689.5 1116.5 1689.5Z" stroke="#7F7F7F" stroke-width="1.14583" stroke-miterlimit="8" fill="#BFBFBF" fill-rule="evenodd"/><path d="M1171.5 891.5 1227.5 891.5 1227.5 1689.5 1171.5 1689.5Z" stroke="#7F7F7F" stroke-width="1.14583" stroke-miterlimit="8" fill="#BFBFBF" fill-rule="evenodd"/><path d="M1227.5 934.5 1282.5 934.5 1282.5 1689.5 1227.5 1689.5Z" stroke="#7F7F7F" stroke-width="1.14583" stroke-miterlimit="8" fill="#BFBFBF" fill-rule="evenodd"/><path d="M1282.5 886.5 1337.5 886.5 1337.5 1689.5 1282.5 1689.5Z" stroke="#7F7F7F" stroke-width="1.14583" stroke-miterlimit="8" fill="#BFBFBF" fill-rule="evenodd"/><path d="M1337.5 921.5 1393.5 921.5 1393.5 1689.5 1337.5 1689.5Z" stroke="#7F7F7F" stroke-width="1.14583" stroke-miterlimit="8" fill="#BFBFBF" fill-rule="evenodd"/><path d="M1393.5 859.5 1448.5 859.5 1448.5 1689.5 1393.5 1689.5Z" stroke="#7F7F7F" stroke-width="1.14583" stroke-miterlimit="8" fill="#BFBFBF" fill-rule="evenodd"/><path d="M1448.5 808.5 1503.5 808.5 1503.5 1689.5 1448.5 1689.5Z" stroke="#7F7F7F" stroke-width="1.14583" stroke-miterlimit="8" fill="#BFBFBF" fill-rule="evenodd"/><path d="M1503.5 758.5 1559.5 758.5 1559.5 1689.5 1503.5 1689.5Z" stroke="#7F7F7F" stroke-width="1.14583" stroke-miterlimit="8" fill="#BFBFBF" fill-rule="evenodd"/><path d="M1559.5 691.5 1614.5 691.5 1614.5 1689.5 1559.5 1689.5Z" stroke="#7F7F7F" stroke-width="1.14583" stroke-miterlimit="8" fill="#BFBFBF" fill-rule="evenodd"/><path d="M1614.5 692.5 1669.5 692.5 1669.5 1689.5 1614.5 1689.5Z" stroke="#7F7F7F" stroke-width="1.14583" stroke-miterlimit="8" fill="#BFBFBF" fill-rule="evenodd"/><path d="M1671.5 657.5 1723.5 657.5 1723.5 1689.5 1671.5 1689.5Z" stroke="#595959" stroke-width="1.14583" stroke-miterlimit="8" fill="#7F7F7F" fill-rule="evenodd"/><path d="M1723.5 677.5 1778.5 677.5 1778.5 1689.5 1723.5 1689.5Z" stroke="#595959" stroke-width="1.14583" stroke-miterlimit="8" fill="#7F7F7F" fill-rule="evenodd"/><path d="M1778.5 763.5 1833.5 763.5 1833.5 1689.5 1778.5 1689.5Z" stroke="#595959" stroke-width="1.14583" stroke-miterlimit="8" fill="#7F7F7F" fill-rule="evenodd"/><path d="M1833.5 982.5 1889.5 982.5 1889.5 1689.5 1833.5 1689.5Z" stroke="#595959" stroke-width="1.14583" stroke-miterlimit="8" fill="#7F7F7F" fill-rule="evenodd"/><path d="M330.5 1718.5 330.5 624.5" stroke="#000000" stroke-width="2.63993" stroke-miterlimit="8" fill="none" fill-rule="evenodd"/><path d="M330.5 1689.5 312.5 1689.5" stroke="#000000" stroke-width="2.63993" stroke-miterlimit="8" fill="none" fill-rule="evenodd"/><text font-family="Avenir Next LT Pro Light,Avenir Next LT Pro Light_MSFontService,sans-serif" font-weight="300" font-size="46" transform="matrix(-1.83697e-16 -1 1 -1.83697e-16 289.103 1703)">0</text><path d="M330.5 1230.5 312.5 1230.5" stroke="#000000" stroke-width="2.63993" stroke-miterlimit="8" fill="none" fill-rule="evenodd"/><text font-family="Avenir Next LT Pro Light,Avenir Next LT Pro Light_MSFontService,sans-serif" font-weight="300" font-size="46" transform="matrix(-1.83697e-16 -1 1 -1.83697e-16 289.105 1270)">500</text><path d="M330.5 771.5 312.5 771.5" stroke="#000000" stroke-width="2.63993" stroke-miterlimit="8" fill="none" fill-rule="evenodd"/><text font-family="Avenir Next LT Pro Light,Avenir Next LT Pro Light_MSFontService,sans-serif" font-weight="300" font-size="46" transform="matrix(-1.83697e-16 -1 1 -1.83697e-16 289.105 831)">1,000<tspan font-size="46" x="-370" y="-92.7559">Frequency</tspan></text><path d="M330.5 1718.5 1920.5 1718.5" stroke="#000000" stroke-width="2.63993" stroke-miterlimit="8" fill="none" fill-rule="evenodd"/><path d="M359.5 1718.5 359.5 1737.5" stroke="#000000" stroke-width="2.63993" stroke-miterlimit="8" fill="none" fill-rule="evenodd"/><text font-family="Avenir Next LT Pro Light,Avenir Next LT Pro Light_MSFontService,sans-serif" font-weight="300" font-size="46" transform="matrix(1 0 0 1 308.009 1780)">1920</text><path d="M728.5 1718.5 728.5 1737.5" stroke="#000000" stroke-width="2.63993" stroke-miterlimit="8" fill="none" fill-rule="evenodd"/><text font-family="Avenir Next LT Pro Light,Avenir Next LT Pro Light_MSFontService,sans-serif" font-weight="300" font-size="46" transform="matrix(1 0 0 1 677.024 1780)">1940</text><path d="M1097.5 1718.5 1097.5 1737.5" stroke="#000000" stroke-width="2.63993" stroke-miterlimit="8" fill="none" fill-rule="evenodd"/><text font-family="Avenir Next LT Pro Light,Avenir Next LT Pro Light_MSFontService,sans-serif" font-weight="300" font-size="46" transform="matrix(1 0 0 1 1046.09 1780)">1960</text><path d="M1466.5 1718.5 1466.5 1737.5" stroke="#000000" stroke-width="2.63993" stroke-miterlimit="8" fill="none" fill-rule="evenodd"/><text font-family="Avenir Next LT Pro Light,Avenir Next LT Pro Light_MSFontService,sans-serif" font-weight="300" font-size="46" transform="matrix(1 0 0 1 1415.16 1780)">1980</text><path d="M1836.5 1718.5 1836.5 1737.5" stroke="#595959" stroke-width="2.63993" stroke-miterlimit="8" fill="none" fill-rule="evenodd"/><text font-family="Avenir Next LT Pro Light,Avenir Next LT Pro Light_MSFontService,sans-serif" font-weight="300" font-size="46" transform="matrix(1 0 0 1 1784.18 1780)">2000</text><path d="M1671 1718 1671 624" stroke="#FF0000" stroke-width="3.96007" stroke-miterlimit="8" fill="none" fill-rule="evenodd"/><text font-family="Avenir Next LT Pro Light,Avenir Next LT Pro Light_MSFontService,sans-serif" font-weight="300" font-size="46" transform="matrix(1 0 0 1 1619.4 610)">1991<tspan font-size="46" x="-602.499" y="1276">Birth year</tspan></text></g></svg>