<svg width="1846" height="1365" xmlns="http://www.w3.org/2000/svg" xmlns:xlink="http://www.w3.org/1999/xlink" xml:space="preserve" overflow="hidden"><defs><clipPath id="clip0"><rect x="1982" y="603" width="1846" height="1365"/></clipPath></defs><g clip-path="url(#clip0)" transform="translate(-1982 -603)"><path d="M2165.5 760.5 3798.5 760.5 3798.5 1772.5 2165.5 1772.5Z" stroke="#FFFFFF" stroke-width="2.63993" stroke-miterlimit="8" fill="none" fill-rule="evenodd"/><path d="M2164 1503 3799 1503" stroke="#EAF2F3" stroke-width="3.96007" stroke-miterlimit="8" fill="none" fill-rule="evenodd"/><path d="M2164 1264 3799 1264" stroke="#EAF2F3" stroke-width="3.96007" stroke-miterlimit="8" fill="none" fill-rule="evenodd"/><path d="M2164 1025 3799 1025" stroke="#EAF2F3" stroke-width="3.96007" stroke-miterlimit="8" fill="none" fill-rule="evenodd"/><path d="M2164 785 3799 785" stroke="#EAF2F3" stroke-width="3.96007" stroke-miterlimit="8" fill="none" fill-rule="evenodd"/><path d="M2979.5 1702.5 2979.5 755.5" stroke="#FF0000" stroke-width="3.3" stroke-miterlimit="8" fill="none" fill-rule="evenodd"/><path d="M2193.5 1371.5 2193.5 1371.5 2281.06 1266.97 2368.61 1250.64 2456.17 1244.17 2543.72 1233.17 2631.28 1229.08 2718.83 1226.81 2806.39 1198.34 2893.94 1150.76 2981.5 1161.36 2981.5 850.5 2893.94 1027.29 2806.39 1089.84 2718.83 1120.64 2631.28 1139.47 2543.72 1142.42 2456.17 1136.35 2368.61 1143.38 2281.06 1148.27 2193.5 1061.6 2193.5 1371.5Z" stroke="#F2F2F2" stroke-width="0.458333" stroke-linejoin="round" stroke-miterlimit="10" fill="#7C7C7C" fill-rule="evenodd" fill-opacity="0.301961"/><path d="M2981 1157.66 2981 1157.66 3068.67 1039 3156.33 1042.35 3244 1060.28 3331.67 1078.72 3419.33 1118.56 3507 1183.14 3594.67 1255.04 3682.34 1355.43 3770 1594 3770 1288.98 3682.34 1231.49 3594.67 1136.89 3507 1065.96 3419.33 1020.39 3331.67 978.851 3244 938.897 3156.33 919.945 3068.67 903.941 2981 801 2981 1157.66Z" fill="#7C7C7C" fill-rule="evenodd" fill-opacity="0.301961"/><path d="M2981 1157.66 2981 1157.66 3068.67 1039 3156.33 1042.35 3244 1060.28 3331.67 1078.72 3419.33 1118.56 3507 1183.14 3594.67 1255.04 3682.34 1355.43 3770 1594 3770 1288.98 3682.34 1231.49 3594.67 1136.89 3507 1065.96 3419.33 1020.39 3331.67 978.851 3244 938.897 3156.33 919.945 3068.67 903.941 2981 801 2981 1157.66Z" stroke="#FFFFFF" stroke-width="7.92014" stroke-linejoin="round" stroke-miterlimit="10" stroke-opacity="0" fill="none" fill-rule="evenodd"/><path d="M2193.5 1207.5 2281.05 1204.22 2368.6 1203.89 2456.15 1199.76 2543.69 1191.91 2631.25 1178.81 2718.85 1159.95 2806.4 1131.55 2893.95 1092.52 2981.5 1039.5" stroke="#0070C0" stroke-width="3.3" stroke-linejoin="round" stroke-miterlimit="10" fill="none" fill-rule="evenodd"/><path d="M2981.5 972.895 3069.17 972.5 3156.83 978.746 3244.5 996.695 3332.17 1027.82 3419.83 1071.95 3507.5 1130.1 3595.17 1201.84 3682.84 1289.82 3770.5 1402.5" stroke="#0070C0" stroke-width="3.3" stroke-linejoin="round" stroke-miterlimit="10" fill="none" fill-rule="evenodd"/><path d="M2164.5 1503.5 2145.5 1503.5" stroke="#000000" stroke-width="2.63993" stroke-miterlimit="8" fill="none" fill-rule="evenodd"/><text font-family="Avenir Next LT Pro Light,Avenir Next LT Pro Light_MSFontService,sans-serif" font-weight="300" font-size="46" transform="matrix(-1.83697e-16 -1 1 -1.83697e-16 2122.35 1536)">.03</text><path d="M2164.5 1264.5 2145.5 1264.5" stroke="#000000" stroke-width="2.63993" stroke-miterlimit="8" fill="none" fill-rule="evenodd"/><text font-family="Avenir Next LT Pro Light,Avenir Next LT Pro Light_MSFontService,sans-serif" font-weight="300" font-size="46" transform="matrix(-1.83697e-16 -1 1 -1.83697e-16 2122.35 1296)">.04</text><path d="M2164.5 1025.5 2145.5 1025.5" stroke="#000000" stroke-width="2.63993" stroke-miterlimit="8" fill="none" fill-rule="evenodd"/><text font-family="Avenir Next LT Pro Light,Avenir Next LT Pro Light_MSFontService,sans-serif" font-weight="300" font-size="46" transform="matrix(-1.83697e-16 -1 1 -1.83697e-16 2122.35 1057)">.05</text><path d="M2164.5 785.5 2145.5 785.5" stroke="#000000" stroke-width="2.63993" stroke-miterlimit="8" fill="none" fill-rule="evenodd"/><text font-family="Avenir Next LT Pro Light,Avenir Next LT Pro Light_MSFontService,sans-serif" font-weight="300" font-size="46" transform="matrix(-1.83697e-16 -1 1 -1.83697e-16 2122.35 818)">.06</text><path d="M2163.5 1700.5 3799.5 1700.5" stroke="#000000" stroke-width="2.63993" stroke-miterlimit="8" fill="none" fill-rule="evenodd"/><path d="M2191.5 1702.5 2191.5 1721.5" stroke="#000000" stroke-width="2.63993" stroke-miterlimit="8" fill="none" fill-rule="evenodd"/><text font-family="Avenir Next LT Pro Light,Avenir Next LT Pro Light_MSFontService,sans-serif" font-weight="300" font-size="46" transform="matrix(1 0 0 1 2157.71 1767)">-<tspan font-size="46" x="14.323" y="0">10</tspan></text><path d="M2585.5 1702.5 2585.5 1721.5" stroke="#000000" stroke-width="2.63993" stroke-miterlimit="8" fill="none" fill-rule="evenodd"/><text font-family="Avenir Next LT Pro Light,Avenir Next LT Pro Light_MSFontService,sans-serif" font-weight="300" font-size="46" transform="matrix(1 0 0 1 2563.02 1765)">-<tspan font-size="46" x="14.323" y="0">5</tspan></text><path d="M2979.5 1702.5 2979.5 1721.5" stroke="#000000" stroke-width="2.63993" stroke-miterlimit="8" fill="none" fill-rule="evenodd"/><text font-family="Avenir Next LT Pro Light,Avenir Next LT Pro Light_MSFontService,sans-serif" font-weight="300" font-size="46" transform="matrix(1 0 0 1 2964.95 1765)">0</text><path d="M3374.5 1702.5 3374.5 1721.5" stroke="#000000" stroke-width="2.63993" stroke-miterlimit="8" fill="none" fill-rule="evenodd"/><text font-family="Avenir Next LT Pro Light,Avenir Next LT Pro Light_MSFontService,sans-serif" font-weight="300" font-size="46" transform="matrix(1 0 0 1 3359.31 1765)">5</text><path d="M3768.5 1702.5 3768.5 1721.5" stroke="#000000" stroke-width="2.63993" stroke-miterlimit="8" fill="none" fill-rule="evenodd"/><text font-family="Avenir Next LT Pro Light,Avenir Next LT Pro Light_MSFontService,sans-serif" font-weight="300" font-size="46" transform="matrix(1 0 0 1 3740.79 1765)">10<tspan font-size="46" x="-937.596" y="164">95% C.I</tspan></text><rect x="2638" y="1897" width="132" height="36.9998" fill="#BFBFBF"/><path d="M2162.5 1698.5 2162.5 604.5" stroke="#000000" stroke-width="2.63993" stroke-miterlimit="8" fill="none" fill-rule="evenodd"/><text font-family="Avenir Next LT Pro Light,Avenir Next LT Pro Light_MSFontService,sans-serif" font-weight="300" font-size="46" transform="matrix(1 0 0 1 2537.26 1846)">R<tspan font-size="46" x="27.5" y="0">running variable centred around the 1991 cut</tspan><tspan font-size="46" x="964.792" y="0">-</tspan><tspan font-size="46" x="979.115" y="0">off </tspan></text><text font-family="Avenir Next LT Pro Light,Avenir Next LT Pro Light_MSFontService,sans-serif" font-weight="300" font-size="46" transform="matrix(-1.83697e-16 -1 1 -1.83697e-16 2042.96 1188)">Density</text><path d="M2992.5 1910.5 3264.5 1910.5" stroke="#0070C0" stroke-width="3.3" stroke-miterlimit="8" fill="none" fill-rule="evenodd"/><text font-family="Avenir Next LT Pro Light,Avenir Next LT Pro Light_MSFontService,sans-serif" font-weight="300" font-size="46" transform="matrix(1 0 0 1 3296.98 1927)">Density</text></g></svg>