<svg width="2862" height="1720" xmlns="http://www.w3.org/2000/svg" xmlns:xlink="http://www.w3.org/1999/xlink" xml:space="preserve" overflow="hidden"><defs><clipPath id="clip0"><rect x="627" y="459" width="2862" height="1720"/></clipPath></defs><g clip-path="url(#clip0)" transform="translate(-627 -459)"><path d="M883.5 462.5 3475.5 462.5 3475.5 1898.5 883.5 1898.5Z" stroke="#FFFFFF" stroke-width="2.63993" stroke-miterlimit="8" fill="none" fill-rule="evenodd"/><path d="M881 1767 3477 1767" stroke="#EAF2F3" stroke-width="3.96007" stroke-miterlimit="8" fill="none" fill-rule="evenodd"/><path d="M881 1529 3477 1529" stroke="#EAF2F3" stroke-width="3.96007" stroke-miterlimit="8" fill="none" fill-rule="evenodd"/><path d="M881 1292 3477 1292" stroke="#EAF2F3" stroke-width="3.96007" stroke-miterlimit="8" fill="none" fill-rule="evenodd"/><path d="M881 1054 3477 1054" stroke="#EAF2F3" stroke-width="3.96007" stroke-miterlimit="8" fill="none" fill-rule="evenodd"/><path d="M881 816 3477 816" stroke="#EAF2F3" stroke-width="3.96007" stroke-miterlimit="8" fill="none" fill-rule="evenodd"/><path d="M881 579 3477 579" stroke="#EAF2F3" stroke-width="3.96007" stroke-miterlimit="8" fill="none" fill-rule="evenodd"/><path d="M2179.5 1900.5 2179.5 460.5" stroke="#FF0000" stroke-width="3.3" stroke-miterlimit="8" fill="none" fill-rule="evenodd"/><path d="M1052 1856 1052 1534" stroke="#B0B0B0" stroke-width="3.96007" stroke-miterlimit="8" fill="none" fill-rule="evenodd"/><path d="M1036 1534 1068 1534" stroke="#B0B0B0" stroke-width="3.96007" stroke-linecap="round" stroke-miterlimit="8" fill="none" fill-rule="evenodd"/><path d="M1036 1856 1068 1856" stroke="#B0B0B0" stroke-width="3.96007" stroke-linecap="round" stroke-miterlimit="8" fill="none" fill-rule="evenodd"/><path d="M1334 1778 1334 1557" stroke="#B0B0B0" stroke-width="3.96007" stroke-miterlimit="8" fill="none" fill-rule="evenodd"/><path d="M1318 1557 1350 1557" stroke="#B0B0B0" stroke-width="3.96007" stroke-linecap="round" stroke-miterlimit="8" fill="none" fill-rule="evenodd"/><path d="M1318 1778 1350 1778" stroke="#B0B0B0" stroke-width="3.96007" stroke-linecap="round" stroke-miterlimit="8" fill="none" fill-rule="evenodd"/><path d="M1647 1706 1647 1484" stroke="#B0B0B0" stroke-width="3.96007" stroke-miterlimit="8" fill="none" fill-rule="evenodd"/><path d="M1631 1484 1663 1484" stroke="#B0B0B0" stroke-width="3.96007" stroke-linecap="round" stroke-miterlimit="8" fill="none" fill-rule="evenodd"/><path d="M1631 1706 1663 1706" stroke="#B0B0B0" stroke-width="3.96007" stroke-linecap="round" stroke-miterlimit="8" fill="none" fill-rule="evenodd"/><path d="M1991 1487 1991 1256" stroke="#B0B0B0" stroke-width="3.96007" stroke-miterlimit="8" fill="none" fill-rule="evenodd"/><path d="M1975 1256 2007 1256" stroke="#B0B0B0" stroke-width="3.96007" stroke-linecap="round" stroke-miterlimit="8" fill="none" fill-rule="evenodd"/><path d="M1975 1487 2007 1487" stroke="#B0B0B0" stroke-width="3.96007" stroke-linecap="round" stroke-miterlimit="8" fill="none" fill-rule="evenodd"/><path d="M2304 1601 2304 1201" stroke="#B0B0B0" stroke-width="3.96007" stroke-miterlimit="8" fill="none" fill-rule="evenodd"/><path d="M2288 1201 2320 1201" stroke="#B0B0B0" stroke-width="3.96007" stroke-linecap="round" stroke-miterlimit="8" fill="none" fill-rule="evenodd"/><path d="M2288 1601 2320 1601" stroke="#B0B0B0" stroke-width="3.96007" stroke-linecap="round" stroke-miterlimit="8" fill="none" fill-rule="evenodd"/><path d="M2555 1708 2555 1351" stroke="#B0B0B0" stroke-width="3.96007" stroke-miterlimit="8" fill="none" fill-rule="evenodd"/><path d="M2539 1351 2571 1351" stroke="#B0B0B0" stroke-width="3.96007" stroke-linecap="round" stroke-miterlimit="8" fill="none" fill-rule="evenodd"/><path d="M2539 1708 2571 1708" stroke="#B0B0B0" stroke-width="3.96007" stroke-linecap="round" stroke-miterlimit="8" fill="none" fill-rule="evenodd"/><path d="M2805 1333 2805 1168" stroke="#B0B0B0" stroke-width="3.96007" stroke-miterlimit="8" fill="none" fill-rule="evenodd"/><path d="M2789 1168 2821 1168" stroke="#B0B0B0" stroke-width="3.96007" stroke-linecap="round" stroke-miterlimit="8" fill="none" fill-rule="evenodd"/><path d="M2789 1333 2821 1333" stroke="#B0B0B0" stroke-width="3.96007" stroke-linecap="round" stroke-miterlimit="8" fill="none" fill-rule="evenodd"/><path d="M3055 1243 3055 914" stroke="#B0B0B0" stroke-width="3.96007" stroke-miterlimit="8" fill="none" fill-rule="evenodd"/><path d="M3039 914 3071 914" stroke="#B0B0B0" stroke-width="3.96007" stroke-linecap="round" stroke-miterlimit="8" fill="none" fill-rule="evenodd"/><path d="M3039 1243 3071 1243" stroke="#B0B0B0" stroke-width="3.96007" stroke-linecap="round" stroke-miterlimit="8" fill="none" fill-rule="evenodd"/><path d="M3306 1204 3306 504" stroke="#B0B0B0" stroke-width="3.96007" stroke-miterlimit="8" fill="none" fill-rule="evenodd"/><path d="M3290 504 3322 504" stroke="#B0B0B0" stroke-width="3.96007" stroke-linecap="round" stroke-miterlimit="8" fill="none" fill-rule="evenodd"/><path d="M3290 1204 3322 1204" stroke="#B0B0B0" stroke-width="3.96007" stroke-linecap="round" stroke-miterlimit="8" fill="none" fill-rule="evenodd"/><path d="M1066 1695.5C1066 1702.96 1059.73 1709 1052 1709 1044.27 1709 1038 1702.96 1038 1695.5 1038 1688.04 1044.27 1682 1052 1682 1059.73 1682 1066 1688.04 1066 1695.5Z" fill="#A0A0A0" fill-rule="evenodd"/><path d="M1063 1695.5C1063 1701.3 1058.08 1706 1052 1706 1045.92 1706 1041 1701.3 1041 1695.5 1041 1689.7 1045.92 1685 1052 1685 1058.08 1685 1063 1689.7 1063 1695.5Z" stroke="#A0A0A0" stroke-width="3.96007" stroke-miterlimit="8" fill="none" fill-rule="evenodd"/><path d="M1348 1667.5C1348 1674.96 1341.73 1681 1334 1681 1326.27 1681 1320 1674.96 1320 1667.5 1320 1660.04 1326.27 1654 1334 1654 1341.73 1654 1348 1660.04 1348 1667.5Z" fill="#A0A0A0" fill-rule="evenodd"/><path d="M1344 1667.5C1344 1673.3 1339.3 1678 1333.5 1678 1327.7 1678 1323 1673.3 1323 1667.5 1323 1661.7 1327.7 1657 1333.5 1657 1339.3 1657 1344 1661.7 1344 1667.5Z" stroke="#A0A0A0" stroke-width="3.96007" stroke-miterlimit="8" fill="none" fill-rule="evenodd"/><path d="M1661 1594.5C1661 1601.96 1654.73 1608 1647 1608 1639.27 1608 1633 1601.96 1633 1594.5 1633 1587.04 1639.27 1581 1647 1581 1654.73 1581 1661 1587.04 1661 1594.5Z" fill="#A0A0A0" fill-rule="evenodd"/><path d="M1658 1594.5C1658 1600.3 1653.08 1605 1647 1605 1640.92 1605 1636 1600.3 1636 1594.5 1636 1588.7 1640.92 1584 1647 1584 1653.08 1584 1658 1588.7 1658 1594.5Z" stroke="#A0A0A0" stroke-width="3.96007" stroke-miterlimit="8" fill="none" fill-rule="evenodd"/><path d="M2005 1371.5C2005 1378.96 1998.73 1385 1991 1385 1983.27 1385 1977 1378.96 1977 1371.5 1977 1364.04 1983.27 1358 1991 1358 1998.73 1358 2005 1364.04 2005 1371.5Z" fill="#A0A0A0" fill-rule="evenodd"/><path d="M2002 1371.5C2002 1377.3 1997.08 1382 1991 1382 1984.93 1382 1980 1377.3 1980 1371.5 1980 1365.7 1984.93 1361 1991 1361 1997.08 1361 2002 1365.7 2002 1371.5Z" stroke="#A0A0A0" stroke-width="3.96007" stroke-miterlimit="8" fill="none" fill-rule="evenodd"/><path d="M2318 1400.5C2318 1407.96 2311.73 1414 2304 1414 2296.27 1414 2290 1407.96 2290 1400.5 2290 1393.04 2296.27 1387 2304 1387 2311.73 1387 2318 1393.04 2318 1400.5Z" fill="#A0A0A0" fill-rule="evenodd"/><path d="M2315 1400.5C2315 1406.3 2310.08 1411 2304 1411 2297.93 1411 2293 1406.3 2293 1400.5 2293 1394.7 2297.93 1390 2304 1390 2310.08 1390 2315 1394.7 2315 1400.5Z" stroke="#A0A0A0" stroke-width="3.96007" stroke-miterlimit="8" fill="none" fill-rule="evenodd"/><path d="M2568 1529.5C2568 1536.96 2561.73 1543 2554 1543 2546.27 1543 2540 1536.96 2540 1529.5 2540 1522.04 2546.27 1516 2554 1516 2561.73 1516 2568 1522.04 2568 1529.5Z" fill="#A0A0A0" fill-rule="evenodd"/><path d="M2565 1529.5C2565 1535.3 2560.3 1540 2554.5 1540 2548.7 1540 2544 1535.3 2544 1529.5 2544 1523.7 2548.7 1519 2554.5 1519 2560.3 1519 2565 1523.7 2565 1529.5Z" stroke="#A0A0A0" stroke-width="3.96007" stroke-miterlimit="8" fill="none" fill-rule="evenodd"/><path d="M2819 1250.5C2819 1257.96 2812.73 1264 2805 1264 2797.27 1264 2791 1257.96 2791 1250.5 2791 1243.04 2797.27 1237 2805 1237 2812.73 1237 2819 1243.04 2819 1250.5Z" fill="#A0A0A0" fill-rule="evenodd"/><path d="M2816 1250.5C2816 1256.3 2811.08 1261 2805 1261 2798.93 1261 2794 1256.3 2794 1250.5 2794 1244.7 2798.93 1240 2805 1240 2811.08 1240 2816 1244.7 2816 1250.5Z" stroke="#A0A0A0" stroke-width="3.96007" stroke-miterlimit="8" fill="none" fill-rule="evenodd"/><path d="M3069 1078.5C3069 1085.96 3062.73 1092 3055 1092 3047.27 1092 3041 1085.96 3041 1078.5 3041 1071.04 3047.27 1065 3055 1065 3062.73 1065 3069 1071.04 3069 1078.5Z" fill="#A0A0A0" fill-rule="evenodd"/><path d="M3066 1078.5C3066 1084.3 3061.08 1089 3055 1089 3048.93 1089 3044 1084.3 3044 1078.5 3044 1072.7 3048.93 1068 3055 1068 3061.08 1068 3066 1072.7 3066 1078.5Z" stroke="#A0A0A0" stroke-width="3.96007" stroke-miterlimit="8" fill="none" fill-rule="evenodd"/><path d="M3320 854.5C3320 861.956 3313.73 868.001 3306 868.001 3298.27 868.001 3292 861.956 3292 854.5 3292 847.044 3298.27 841 3306 841 3313.73 841 3320 847.044 3320 854.5Z" fill="#A0A0A0" fill-rule="evenodd"/><path d="M3317 854.5C3317 860.299 3312.08 865 3306 865 3299.92 865 3295 860.299 3295 854.5 3295 848.701 3299.92 844 3306 844 3312.08 844 3317 848.701 3317 854.5Z" stroke="#A0A0A0" stroke-width="3.96007" stroke-miterlimit="8" fill="none" fill-rule="evenodd"/><path d="M927.5 1691.4 930.017 1691.83 932.542 1692.35 935.059 1692.78 937.583 1693.22 940.101 1693.65 942.531 1694.17 945.055 1694.6 947.573 1695.04 950.097 1695.38 952.614 1695.82 955.139 1696.25 957.657 1696.68 960.181 1697.03 962.611 1697.46 965.135 1697.81 967.653 1698.24 970.177 1698.59 972.694 1698.94 975.219 1699.37 977.737 1699.71 980.166 1700.06 982.691 1700.41 985.208 1700.76 987.733 1701.02 990.25 1701.36 992.775 1701.71 995.292 1701.97 997.817 1702.31 1000.25 1702.57 1002.76 1702.92 1005.29 1703.18 1007.81 1703.44 1010.33 1703.7 1012.85 1704.05 1015.37 1704.31 1017.8 1704.48 1020.32 1704.74 1022.84 1705 1025.36 1705.26 1027.89 1705.43 1030.41 1705.69 1032.93 1705.95 1035.45 1706.13 1037.88 1706.3 1040.4 1706.56 1042.92 1706.73 1045.44 1706.9 1047.97 1707.08 1050.48 1707.25 1053.01 1707.42 1055.44 1707.6 1057.96 1707.69 1060.48 1707.85 1063 1708.03 1065.52 1708.11 1068.04 1708.29 1070.56 1708.38 1073.08 1708.46 1075.51 1708.64 1078.04 1708.72 1080.55 1708.81 1083.08 1708.9 1085.59 1708.98 1088.12 1709.07 1090.64 1709.16 1093.07 1709.16 1095.59 1709.24 1098.11 1709.33 1100.63 1709.33 1103.16 1709.42 1105.67 1709.42 1108.19 1709.42 1110.72 1709.42 1113.15 1709.5 1115.67 1709.5 1118.19 1709.5 1120.71 1709.5 1123.23 1709.42 1125.75 1709.42 1128.27 1709.42 1130.7 1709.42 1133.23 1709.33 1135.74 1709.33 1138.27 1709.24 1140.79 1709.16 1143.31 1709.16 1145.83 1709.07 1148.35 1708.98 1150.78 1708.9 1153.3 1708.81 1155.82 1708.72 1158.34 1708.64 1160.87 1708.46 1163.38 1708.38 1165.91 1708.29 1168.34 1708.11 1170.85 1708.03 1173.38 1707.85 1175.9 1707.69 1178.42 1707.6 1180.94 1707.42 1183.46 1707.25 1185.99 1707.08 1188.42 1706.9 1190.93 1706.73 1193.46 1706.47 1195.98 1706.3 1198.5 1706.13 1201.02 1705.87 1203.54 1705.69 1205.97 1705.43 1208.49 1705.26 1211.01 1705 1213.53 1704.74 1216.06 1704.48 1218.57 1704.22 1221.1 1703.96 1223.62 1703.7 1226.05 1703.44 1228.57 1703.18 1231.09 1702.92 1233.61 1702.57 1236.13 1702.31 1238.65 1701.97 1241.17 1701.71 1243.6 1701.36 1246.13 1701.02 1248.65 1700.67 1251.17 1700.41 1253.69 1700.06 1256.21 1699.71 1258.73 1699.28 1261.16 1698.94 1263.68 1698.59 1266.21 1698.24 1268.72 1697.81 1271.25 1697.46 1273.77 1697.03 1276.29 1696.68 1278.81 1696.25 1281.24 1695.82 1283.76 1695.38 1286.28 1694.95 1288.8 1694.51 1291.32 1694.09 1293.85 1693.65 1296.36 1693.22 1298.79 1692.78 1301.32 1692.27 1303.83 1691.83 1306.36 1691.31 1308.88 1690.88 1311.4 1690.36 1313.92 1689.84 1316.44 1689.4 1318.87 1688.89 1321.4 1688.37 1323.91 1687.85 1326.43 1687.32 1328.96 1686.81 1331.48 1686.2 1334 1685.68 1336.43 1685.16 1338.95 1684.55 1341.47 1684.03 1343.99 1683.43 1346.51 1682.82 1349.04 1682.31 1351.55 1681.7 1354.08 1681.09 1356.51 1680.49 1359.03 1679.88 1361.55 1679.27 1364.07 1678.67 1366.59 1677.97 1369.11 1677.36 1371.63 1676.76 1374.06 1676.07 1376.58 1675.46 1379.11 1674.77 1381.62 1674.07 1384.15 1673.38 1386.66 1672.77 1389.19 1672.08 1391.71 1671.39 1394.14 1670.69 1396.66 1669.92 1399.19 1669.22 1401.7 1668.53 1404.22 1667.84 1406.74 1667.05 1409.27 1666.36 1411.7 1665.58 1414.22 1664.81 1416.74 1664.11 1419.26 1663.33 1421.78 1662.55 1424.3 1661.77 1426.82 1660.99 1429.34 1660.21 1431.77 1659.43 1434.3 1658.57 1436.81 1657.78 1439.34 1657.01 1441.86 1656.14 1444.38 1655.36 1446.9 1654.5 1449.33 1653.63 1451.85 1652.85 1454.37 1651.98 1456.89 1651.11 1459.41 1650.25 1461.94 1649.38 1464.45 1648.52 1466.98 1647.65 1469.41 1646.7 1471.93 1645.84 1474.45 1644.97 1476.97 1644.02 1479.49 1643.06 1482.01 1642.2 1484.53 1641.24 1486.96 1640.29 1489.49 1639.33 1492.01 1638.47 1494.53 1637.51 1497.05 1636.48 1499.57 1635.53 1502.09 1634.57 1504.61 1633.62 1507.04 1632.58 1509.56 1631.63 1512.09 1630.58 1514.6 1629.63 1517.13 1628.6 1519.64 1627.55 1522.17 1626.6 1524.6 1625.56 1527.12 1624.52 1529.64 1623.49 1532.16 1622.44 1534.68 1621.32 1537.2 1620.28 1539.72 1619.24 1542.24 1618.11 1544.68 1617.07 1547.2 1615.95 1549.72 1614.91 1552.24 1613.78 1554.76 1612.66 1557.28 1611.61 1559.8 1610.49 1562.23 1609.36 1564.75 1608.24 1567.28 1607.02 1569.79 1605.89 1572.32 1604.77 1574.84 1603.65 1577.36 1602.43 1579.88 1601.31 1582.31 1600.09 1584.83 1598.88 1587.35 1597.75 1589.87 1596.54 1592.39 1595.33 1594.92 1594.11 1597.43 1592.9 1599.86 1591.69 1602.39 1590.48 1604.9 1589.26 1607.43 1587.97 1609.95 1586.76 1612.47 1585.45 1614.99 1584.24 1617.51 1582.94 1619.94 1581.73 1622.47 1580.43 1624.98 1579.13 1627.5 1577.83 1630.03 1576.53 1632.54 1575.24 1635.07 1573.93 1637.5 1572.63 1640.02 1571.34 1642.54 1569.95 1645.06 1568.65 1647.58 1567.26 1650.11 1565.96 1652.62 1564.57 1655.15 1563.19 1657.58 1561.89 1660.1 1560.51 1662.62 1559.12 1665.14 1557.74 1667.66 1556.35 1670.18 1554.96 1672.7 1553.58 1675.13 1552.1 1677.65 1550.71 1680.18 1549.24 1682.69 1547.86 1685.22 1546.39 1687.73 1545 1690.26 1543.53 1692.78 1542.06 1695.21 1540.58 1697.73 1539.11 1700.25 1537.64 1702.77 1536.16 1705.3 1534.69 1707.81 1533.22 1710.34 1531.66 1712.77 1530.18 1715.29 1528.71 1717.81 1527.15 1720.33 1525.59 1722.85 1524.12 1725.37 1522.56 1727.9 1521.01 1730.41 1519.45 1732.84 1517.89 1735.37 1516.32 1737.88 1514.77 1740.41 1513.21 1742.93 1511.65 1745.45 1510 1747.97 1508.44 1750.4 1506.8 1752.92 1505.24 1755.44 1503.59 1757.96 1502.03 1760.48 1500.39 1763.01 1498.74 1765.52 1497.1 1768.05 1495.45 1770.48 1493.81 1772.99 1492.16 1775.52 1490.42 1778.04 1488.78 1780.56 1487.13 1783.09 1485.4 1785.6 1483.75 1788.03 1482.02 1790.56 1480.38 1793.08 1478.64 1795.6 1476.92 1798.12 1475.18 1800.64 1473.45 1803.16 1471.71 1805.68 1469.98 1808.11 1468.25 1810.63 1466.51 1813.16 1464.7 1815.67 1462.96 1818.2 1461.14 1820.71 1459.42 1823.24 1457.6 1825.67 1455.86 1828.19 1454.04 1830.71 1452.23 1833.23 1450.41 1835.75 1448.59 1838.27 1446.77 1840.79 1444.95 1843.31 1443.13 1845.74 1441.22 1848.27 1439.4 1850.79 1437.58 1853.31 1435.68 1855.83 1433.86 1858.35 1431.95 1860.87 1430.04 1863.3 1428.14 1865.82 1426.32 1868.35 1424.42 1870.86 1422.51 1873.39 1420.61 1875.91 1418.61 1878.43 1416.71 1880.95 1414.8 1883.38 1412.81 1885.9 1410.9 1888.42 1408.91 1890.94 1407.01 1893.46 1405.01 1895.99 1403.02 1898.5 1401.11 1900.93 1399.12 1903.46 1397.13 1905.97 1395.14 1908.5 1393.15 1911.02 1391.07 1913.54 1389.07 1916.06 1387.08 1918.58 1385 1921.01 1383.01 1923.54 1380.93 1926.05 1378.94 1928.58 1376.86 1931.1 1374.78 1933.61 1372.7 1936.14 1370.71 1938.57 1368.63 1941.09 1366.46 1943.61 1364.39 1946.14 1362.31 1948.65 1360.23 1951.18 1358.15 1953.69 1355.98 1956.22 1353.9 1958.65 1351.74 1961.17 1349.57 1963.69 1347.49 1966.21 1345.32 1968.73 1343.16 1971.25 1341 1973.77 1338.83 1976.2 1336.67 1978.72 1334.5 1981.25 1332.25 1983.76 1330.08 1986.29 1327.92 1988.8 1325.66 1991.33 1323.5 1993.85 1321.24 1996.28 1318.99 1998.8 1316.83 2001.33 1314.57 2003.84 1312.32 2006.36 1310.07 2008.89 1307.82 2011.41 1305.57 2013.84 1303.31 2016.36 1300.97 2018.88 1298.72 2021.4 1296.47 2023.92 1294.13 2026.44 1291.88 2028.97 1289.54 2031.48 1287.2 2033.91 1284.86 2036.44 1282.61 2038.95 1280.27 2041.48 1277.93 2044 1275.59 2046.52 1273.17 2049.04 1270.82 2051.47 1268.49 2053.99 1266.15 2056.51 1263.73 2059.03 1261.39 2061.55 1258.96 2064.08 1256.54 2066.59 1254.19 2069.12 1251.77 2071.55 1249.34 2074.07 1246.92 2076.59 1244.49 2079.11 1242.07 2081.63 1239.64 2084.16 1237.13 2086.67 1234.71 2089.1 1232.28 2091.63 1229.77 2094.15 1227.34 2096.67 1224.83 2099.19 1222.32 2101.71 1219.89 2104.23 1217.38 2106.66 1214.87 2109.18 1212.35 2111.7 1209.84 2114.23 1207.33 2116.74 1204.82 2119.27 1202.22 2121.78 1199.71 2124.31 1197.11 2126.74 1194.6 2129.26 1192 2131.78 1189.49 2134.3 1186.89 2136.82 1184.29 2139.34 1181.69 2141.86 1179.09 2144.29 1176.49 2146.81 1173.89 2149.34 1171.29 2151.85 1168.7 2154.38 1166.1 2156.9 1163.41 2159.42 1160.81 2161.94 1158.13 2164.38 1155.53 2166.89 1152.84 2169.42 1150.16 2171.93 1147.56 2174.46 1144.88 2176.98 1142.19 2179.5 1139.5" stroke="#0070C0" stroke-width="3.3" stroke-linejoin="round" stroke-miterlimit="10" fill="none" fill-rule="evenodd"/><path d="M2179.5 1461.5 2181.93 1461.41 2184.45 1461.41 2186.97 1461.33 2189.49 1461.23 2192.01 1461.15 2194.53 1461.07 2197.06 1460.98 2199.57 1460.89 2202 1460.81 2204.53 1460.72 2207.05 1460.63 2209.57 1460.54 2212.09 1460.37 2214.61 1460.28 2217.13 1460.11 2219.57 1460.02 2222.09 1459.85 2224.6 1459.76 2227.13 1459.59 2229.65 1459.42 2232.17 1459.25 2234.7 1459.07 2237.21 1458.9 2239.64 1458.73 2242.17 1458.55 2244.68 1458.38 2247.21 1458.2 2249.73 1457.94 2252.25 1457.77 2254.77 1457.6 2257.2 1457.34 2259.72 1457.08 2262.24 1456.91 2264.77 1456.65 2267.28 1456.38 2269.81 1456.22 2272.33 1455.96 2274.85 1455.69 2277.28 1455.43 2279.8 1455.17 2282.32 1454.83 2284.84 1454.57 2287.37 1454.3 2289.88 1454.05 2292.41 1453.7 2294.84 1453.44 2297.36 1453.09 2299.88 1452.84 2302.41 1452.49 2304.92 1452.14 2307.44 1451.8 2309.96 1451.45 2312.49 1451.19 2314.92 1450.84 2317.44 1450.41 2319.96 1450.06 2322.48 1449.72 2325 1449.37 2327.52 1449.03 2330.05 1448.59 2332.48 1448.24 2334.99 1447.81 2337.52 1447.47 2340.04 1447.03 2342.56 1446.6 2345.08 1446.26 2347.6 1445.82 2350.12 1445.39 2352.55 1444.95 2355.08 1444.52 2357.59 1444.09 2360.12 1443.65 2362.64 1443.13 2365.16 1442.7 2367.68 1442.27 2370.11 1441.75 2372.63 1441.31 2375.15 1440.8 2377.67 1440.36 2380.2 1439.84 2382.72 1439.32 2385.23 1438.8 2387.76 1438.37 2390.19 1437.85 2392.71 1437.33 2395.23 1436.81 2397.76 1436.2 2400.27 1435.69 2402.8 1435.16 2405.32 1434.64 2407.75 1434.04 2410.27 1433.52 2412.79 1432.91 2415.31 1432.39 2417.83 1431.79 2420.36 1431.18 2422.87 1430.66 2425.4 1430.05 2427.83 1429.45 2430.34 1428.84 2432.87 1428.23 2435.39 1427.63 2437.91 1427.02 2440.43 1426.33 2442.95 1425.73 2445.38 1425.12 2447.91 1424.42 2450.43 1423.82 2452.94 1423.12 2455.47 1422.52 2457.99 1421.83 2460.51 1421.13 2463.04 1420.53 2465.47 1419.83 2467.98 1419.14 2470.51 1418.45 2473.03 1417.75 2475.55 1417.06 2478.07 1416.28 2480.59 1415.59 2483.02 1414.9 2485.54 1414.11 2488.07 1413.42 2490.58 1412.64 2493.11 1411.95 2495.63 1411.17 2498.15 1410.39 2500.67 1409.7 2503.1 1408.92 2505.62 1408.14 2508.14 1407.36 2510.66 1406.58 2513.18 1405.8 2515.71 1405.02 2518.22 1404.15 2520.65 1403.38 2523.18 1402.59 2525.7 1401.73 2528.22 1400.95 2530.74 1400.08 2533.26 1399.3 2535.78 1398.44 2538.31 1397.57 2540.74 1396.71 2543.26 1395.92 2545.78 1395.06 2548.3 1394.19 2550.82 1393.33 2553.35 1392.37 2555.86 1391.51 2558.29 1390.64 2560.82 1389.78 2563.33 1388.82 2565.86 1387.96 2568.38 1387.01 2570.9 1386.14 2573.42 1385.19 2575.94 1384.23 2578.37 1383.37 2580.89 1382.41 2583.42 1381.46 2585.93 1380.51 2588.46 1379.55 2590.98 1378.6 2593.5 1377.65 2595.93 1376.61 2598.45 1375.66 2600.97 1374.7 2603.5 1373.66 2606.02 1372.71 2608.54 1371.67 2611.06 1370.72 2613.58 1369.68 2616.01 1368.64 2618.53 1367.6 2621.05 1366.56 2623.57 1365.61 2626.1 1364.57 2628.61 1363.44 2631.14 1362.4 2633.57 1361.37 2636.09 1360.32 2638.61 1359.29 2641.13 1358.16 2643.65 1357.12 2646.17 1355.99 2648.7 1354.95 2651.21 1353.83 2653.64 1352.7 2656.17 1351.57 2658.69 1350.54 2661.21 1349.41 2663.73 1348.28 2666.25 1347.16 2668.77 1346.03 2671.21 1344.82 2673.73 1343.69 2676.24 1342.57 2678.77 1341.44 2681.29 1340.23 2683.81 1339.1 2686.33 1337.89 2688.85 1336.68 2691.28 1335.55 2693.81 1334.34 2696.32 1333.12 2698.85 1331.91 2701.37 1330.7 2703.89 1329.48 2706.41 1328.27 2708.84 1327.06 2711.36 1325.85 2713.88 1324.63 2716.41 1323.34 2718.92 1322.13 2721.45 1320.83 2723.97 1319.61 2726.49 1318.31 2728.92 1317.1 2731.44 1315.8 2733.96 1314.5 2736.48 1313.2 2739.01 1311.9 2741.52 1310.61 2744.05 1309.3 2746.48 1308 2749 1306.71 2751.52 1305.41 2754.04 1304.11 2756.56 1302.72 2759.08 1301.42 2761.6 1300.04 2764.13 1298.73 2766.56 1297.35 2769.08 1295.96 2771.6 1294.67 2774.12 1293.28 2776.64 1291.9 2779.16 1290.51 2781.69 1289.12 2784.12 1287.74 2786.63 1286.35 2789.16 1284.97 2791.68 1283.49 2794.2 1282.1 2796.72 1280.72 2799.24 1279.25 2801.76 1277.86 2804.19 1276.39 2806.72 1274.92 2809.23 1273.53 2811.76 1272.06 2814.27 1270.58 2816.8 1269.11 2819.32 1267.64 2821.75 1266.17 2824.27 1264.7 2826.79 1263.22 2829.31 1261.75 2831.84 1260.19 2834.36 1258.72 2836.87 1257.16 2839.4 1255.69 2841.83 1254.13 2844.35 1252.66 2846.87 1251.1 2849.4 1249.54 2851.91 1247.97 2854.44 1246.5 2856.96 1244.94 2859.39 1243.38 2861.91 1241.83 2864.43 1240.18 2866.95 1238.62 2869.47 1237.06 2871.99 1235.5 2874.51 1233.86 2877.04 1232.3 2879.47 1230.65 2881.98 1229.09 2884.51 1227.45 2887.03 1225.8 2889.55 1224.16 2892.07 1222.59 2894.59 1220.95 2897.02 1219.3 2899.55 1217.66 2902.07 1216.01 2904.58 1214.28 2907.11 1212.63 2909.63 1210.99 2912.15 1209.25 2914.68 1207.61 2917.11 1205.88 2919.62 1204.23 2922.15 1202.5 2924.67 1200.85 2927.19 1199.13 2929.71 1197.39 2932.23 1195.66 2934.66 1193.92 2937.18 1192.2 2939.71 1190.46 2942.22 1188.72 2944.75 1187 2947.26 1185.18 2949.79 1183.45 2952.31 1181.71 2954.74 1179.89 2957.26 1178.16 2959.78 1176.34 2962.3 1174.52 2964.82 1172.79 2967.35 1170.97 2969.86 1169.15 2972.29 1167.33 2974.82 1165.51 2977.34 1163.69 2979.86 1161.87 2982.38 1160.05 2984.9 1158.23 2987.42 1156.33 2989.86 1154.51 2992.38 1152.61 2994.9 1150.79 2997.42 1148.88 2999.94 1147.06 3002.46 1145.16 3004.98 1143.25 3007.5 1141.34 3009.93 1139.52 3012.46 1137.62 3014.97 1135.72 3017.5 1133.81 3020.02 1131.82 3022.54 1129.91 3025.06 1128 3027.49 1126.1 3030.01 1124.11 3032.53 1122.2 3035.06 1120.21 3037.57 1118.22 3040.1 1116.31 3042.62 1114.32 3045.14 1112.32 3047.57 1110.34 3050.09 1108.43 3052.61 1106.44 3055.14 1104.36 3057.66 1102.36 3060.18 1100.38 3062.7 1098.38 3065.13 1096.39 3067.65 1094.31 3070.17 1092.32 3072.69 1090.24 3075.21 1088.25 3077.74 1086.17 3080.25 1084.09 3082.78 1082.09 3085.21 1080.02 3087.73 1077.94 3090.25 1075.86 3092.77 1073.78 3095.29 1071.7 3097.81 1069.62 3100.34 1067.46 3102.77 1065.38 3105.28 1063.3 3107.81 1061.14 3110.33 1059.06 3112.85 1056.89 3115.37 1054.81 3117.89 1052.65 3120.41 1050.48 3122.85 1048.4 3125.36 1046.24 3127.89 1044.07 3130.41 1041.9 3132.93 1039.74 3135.45 1037.57 3137.97 1035.32 3140.4 1033.15 3142.92 1030.99 3145.45 1028.83 3147.96 1026.57 3150.49 1024.4 3153.01 1022.16 3155.53 1019.9 3158.05 1017.73 3160.48 1015.49 3163 1013.23 3165.52 1010.98 3168.05 1008.73 3170.56 1006.48 3173.09 1004.23 3175.61 1001.97 3178.04 999.718 3180.56 997.38 3183.08 995.126 3185.6 992.879 3188.12 990.541 3190.65 988.287 3193.16 985.95 3195.69 983.612 3198.12 981.358 3200.64 979.02 3203.16 976.682 3205.68 974.338 3208.2 972 3210.72 969.662 3213.24 967.324 3215.67 964.986 3218.2 962.557 3220.72 960.22 3223.24 957.882 3225.76 955.46 3228.28 953.115 3230.8 950.693 3233.33 948.355 3235.76 945.926 3238.27 943.505 3240.8 941.076 3243.32 938.654 3245.84 936.225 3248.36 933.803 3250.88 931.375 3253.31 928.953 3255.83 926.524 3258.35 924.102 3260.87 921.589 3263.4 919.16 3265.91 916.648 3268.44 914.226 3270.96 911.713 3273.39 909.284 3275.91 906.778 3278.43 904.266 3280.95 901.753 3283.48 899.24 3286 896.727 3288.51 894.215 3290.95 891.701 3293.47 889.189 3295.99 886.683 3298.51 884.079 3301.04 881.567 3303.55 878.97 3306.08 876.457 3308.6 873.86 3311.03 871.347 3313.55 868.75 3316.07 866.153 3318.59 863.55 3321.11 860.953 3323.63 858.356 3326.15 855.759 3328.58 853.155 3331.11 850.559 3333.62 847.962 3336.15 845.358 3338.67 842.677 3341.19 840.081 3343.71 837.393 3346.23 834.796 3348.66 832.108 3351.19 829.511 3353.71 826.823 3356.22 824.136 3358.75 821.455 3361.27 818.767 3363.79 816.086 3366.22 813.398 3368.75 810.711 3371.26 808.03 3373.79 805.342 3376.31 802.571 3378.83 799.883 3381.35 797.111 3383.87 794.43 3386.3 791.658 3388.82 788.97 3391.34 786.198 3393.86 783.427 3396.39 780.655 3398.9 777.883 3401.43 775.111 3403.86 772.339 3406.38 769.568 3408.9 766.796 3411.42 764.024 3413.94 761.252 3416.46 758.397 3418.99 755.625 3421.5 752.762 3423.93 749.99 3426.46 747.134 3428.98 744.363 3431.5 741.5" stroke="#0070C0" stroke-width="3.3" stroke-linejoin="round" stroke-miterlimit="10" fill="none" fill-rule="evenodd"/><path d="M881.5 1900.5 881.5 460.5" stroke="#000000" stroke-width="2.63993" stroke-miterlimit="8" fill="none" fill-rule="evenodd"/><path d="M881.5 1767.5 851.5 1767.5" stroke="#000000" stroke-width="2.63993" stroke-miterlimit="8" fill="none" fill-rule="evenodd"/><text font-family="Avenir Next LT Pro Light,Avenir Next LT Pro Light_MSFontService,sans-serif" font-weight="300" font-size="46" transform="matrix(-1.83697e-16 -1 1 -1.83697e-16 805.655 1786)">.4</text><path d="M881.5 1529.5 851.5 1529.5" stroke="#000000" stroke-width="2.63993" stroke-miterlimit="8" fill="none" fill-rule="evenodd"/><text font-family="Avenir Next LT Pro Light,Avenir Next LT Pro Light_MSFontService,sans-serif" font-weight="300" font-size="46" transform="matrix(-1.83697e-16 -1 1 -1.83697e-16 805.657 1562)">.45</text><path d="M881.5 1292.5 851.5 1292.5" stroke="#000000" stroke-width="2.63993" stroke-miterlimit="8" fill="none" fill-rule="evenodd"/><text font-family="Avenir Next LT Pro Light,Avenir Next LT Pro Light_MSFontService,sans-serif" font-weight="300" font-size="46" transform="matrix(-1.83697e-16 -1 1 -1.83697e-16 805.657 1311)">.5</text><path d="M881.5 1054.5 851.5 1054.5" stroke="#000000" stroke-width="2.63993" stroke-miterlimit="8" fill="none" fill-rule="evenodd"/><text font-family="Avenir Next LT Pro Light,Avenir Next LT Pro Light_MSFontService,sans-serif" font-weight="300" font-size="46" transform="matrix(-1.83697e-16 -1 1 -1.83697e-16 805.657 1087)">.55</text><path d="M881.5 816.5 851.5 816.5" stroke="#000000" stroke-width="2.63993" stroke-miterlimit="8" fill="none" fill-rule="evenodd"/><text font-family="Avenir Next LT Pro Light,Avenir Next LT Pro Light_MSFontService,sans-serif" font-weight="300" font-size="46" transform="matrix(-1.83697e-16 -1 1 -1.83697e-16 805.657 836)">.6</text><path d="M881.5 579.5 851.5 579.5" stroke="#000000" stroke-width="2.63993" stroke-miterlimit="8" fill="none" fill-rule="evenodd"/><text font-family="Avenir Next LT Pro Light,Avenir Next LT Pro Light_MSFontService,sans-serif" font-weight="300" font-size="46" transform="matrix(-1.83697e-16 -1 1 -1.83697e-16 805.657 611)">.65</text><path d="M881.5 1900.5 3477.5 1900.5" stroke="#000000" stroke-width="2.63993" stroke-miterlimit="8" fill="none" fill-rule="evenodd"/><path d="M927.5 1900.5 927.5 1928.5" stroke="#000000" stroke-width="2.63993" stroke-miterlimit="8" fill="none" fill-rule="evenodd"/><text font-family="Avenir Next LT Pro Light,Avenir Next LT Pro Light_MSFontService,sans-serif" font-weight="300" font-size="46" transform="matrix(1 0 0 1 886.097 1977)">-<tspan font-size="46" x="14.3229" y="0">10</tspan></text><path d="M1553.5 1900.5 1553.5 1928.5" stroke="#000000" stroke-width="2.63993" stroke-miterlimit="8" fill="none" fill-rule="evenodd"/><text font-family="Avenir Next LT Pro Light,Avenir Next LT Pro Light_MSFontService,sans-serif" font-weight="300" font-size="46" transform="matrix(1 0 0 1 1532.52 1977)">-<tspan font-size="46" x="14.323" y="0">5</tspan></text><path d="M2179.5 1900.5 2179.5 1928.5" stroke="#000000" stroke-width="2.63993" stroke-miterlimit="8" fill="none" fill-rule="evenodd"/><text font-family="Avenir Next LT Pro Light,Avenir Next LT Pro Light_MSFontService,sans-serif" font-weight="300" font-size="46" transform="matrix(1 0 0 1 2170.67 1977)">0</text><path d="M2805.5 1900.5 2805.5 1928.5" stroke="#000000" stroke-width="2.63993" stroke-miterlimit="8" fill="none" fill-rule="evenodd"/><text font-family="Avenir Next LT Pro Light,Avenir Next LT Pro Light_MSFontService,sans-serif" font-weight="300" font-size="46" transform="matrix(1 0 0 1 2796.8 1977)">5</text><path d="M3431.5 1900.5 3431.5 1928.5" stroke="#000000" stroke-width="2.63993" stroke-miterlimit="8" fill="none" fill-rule="evenodd"/><text font-family="Avenir Next LT Pro Light,Avenir Next LT Pro Light_MSFontService,sans-serif" font-weight="300" font-size="46" transform="matrix(1 0 0 1 3402.48 1977)">10</text><path d="M1194 2122.5C1194 2129.96 1187.73 2136 1180 2136 1172.27 2136 1166 2129.96 1166 2122.5 1166 2115.04 1172.27 2109 1180 2109 1187.73 2109 1194 2115.04 1194 2122.5Z" fill="#A0A0A0" fill-rule="evenodd"/><path d="M1191 2122.5C1191 2128.3 1186.08 2133 1180 2133 1173.93 2133 1169 2128.3 1169 2122.5 1169 2116.7 1173.93 2112 1180 2112 1186.08 2112 1191 2116.7 1191 2122.5Z" stroke="#A0A0A0" stroke-width="3.96007" stroke-miterlimit="8" fill="none" fill-rule="evenodd"/><path d="M2130.5 2123.5 2402.5 2123.5" stroke="#0070C0" stroke-width="3.3" stroke-miterlimit="8" fill="none" fill-rule="evenodd"/><text font-family="Avenir Next LT Pro Light,Avenir Next LT Pro Light_MSFontService,sans-serif" font-weight="300" font-size="46" transform="matrix(1 0 0 1 1217.19 2140)">Sample average within bin<tspan font-size="46" x="1218.16" y="0">Polynomial fit of order 2</tspan><tspan font-size="46" x="485.812" y="-83">Running variable </tspan><tspan font-size="46" x="843.885" y="-83">centred</tspan><tspan font-size="46" x="1015.19" y="-83">around the 1991 cut off</tspan></text><text font-family="Avenir Next LT Pro Light,Avenir Next LT Pro Light_MSFontService,sans-serif" font-weight="300" font-size="46" transform="matrix(-1.83697e-16 -1 1 -1.83697e-16 687.336 1600)">Inaction when facing a justiciable problem </text></g></svg>