<svg width="3344" height="1786" xmlns="http://www.w3.org/2000/svg" xmlns:xlink="http://www.w3.org/1999/xlink" xml:space="preserve" overflow="hidden"><defs><clipPath id="clip0"><rect x="466" y="78" width="3344" height="1786"/></clipPath></defs><g clip-path="url(#clip0)" transform="translate(-466 -78)"><path d="M742.5 83.5 3803.5 83.5 3803.5 1515.5 742.5 1515.5Z" stroke="#FFFFFF" stroke-width="4.94495" stroke-miterlimit="8" fill="none" fill-rule="evenodd"/><path d="M740.5 1438.5 3806.5 1438.5" stroke="#EAF2F3" stroke-width="7.41742" stroke-miterlimit="8" fill="none" fill-rule="evenodd"/><path d="M740.5 1112.5 3806.5 1112.5" stroke="#EAF2F3" stroke-width="7.41742" stroke-miterlimit="8" fill="none" fill-rule="evenodd"/><path d="M740.5 786.5 3806.5 786.5" stroke="#EAF2F3" stroke-width="7.41742" stroke-miterlimit="8" fill="none" fill-rule="evenodd"/><path d="M740.5 460.5 3806.5 460.5" stroke="#EAF2F3" stroke-width="7.41742" stroke-miterlimit="8" fill="none" fill-rule="evenodd"/><path d="M740.5 135.5 3806.5 135.5" stroke="#EAF2F3" stroke-width="7.41742" stroke-miterlimit="8" fill="none" fill-rule="evenodd"/><path d="M740.5 786.5 3806.5 786.5" stroke="#C10534" stroke-width="7.41742" stroke-miterlimit="8" fill="none" fill-rule="evenodd"/><path d="M740.5 786.5 3806.5 786.5" stroke="#FF0000" stroke-width="7.41742" stroke-miterlimit="8" fill="none" fill-rule="evenodd"/><path d="M1018.5 1024.5 1018.5 392.5" stroke="#A6A6A6" stroke-width="7.41742" stroke-miterlimit="8" fill="none" fill-rule="evenodd"/><path d="M999.5 392.5 1037.5 392.5" stroke="#A6A6A6" stroke-width="7.41742" stroke-linecap="round" stroke-miterlimit="8" fill="none" fill-rule="evenodd"/><path d="M999.5 1024.5 1037.5 1024.5" stroke="#A6A6A6" stroke-width="7.41742" stroke-linecap="round" stroke-miterlimit="8" fill="none" fill-rule="evenodd"/><path d="M1041 708.5C1041 720.927 1030.93 731 1018.5 731 1006.07 731 996 720.927 996 708.5 996 696.074 1006.07 686 1018.5 686 1030.93 686 1041 696.074 1041 708.5Z" fill="#0070C0" fill-rule="evenodd"/><path d="M1297.5 1134.5 1297.5 580.5" stroke="#A6A6A6" stroke-width="7.41742" stroke-miterlimit="8" fill="none" fill-rule="evenodd"/><path d="M1278.5 580.5 1316.5 580.5" stroke="#A6A6A6" stroke-width="7.41742" stroke-linecap="round" stroke-miterlimit="8" fill="none" fill-rule="evenodd"/><path d="M1278.5 1134.5 1316.5 1134.5" stroke="#A6A6A6" stroke-width="7.41742" stroke-linecap="round" stroke-miterlimit="8" fill="none" fill-rule="evenodd"/><path d="M1320 857.5C1320 869.927 1309.7 880 1297 880 1284.3 880 1274 869.927 1274 857.5 1274 845.074 1284.3 835 1297 835 1309.7 835 1320 845.074 1320 857.5Z" fill="#0070C0" fill-rule="evenodd"/><path d="M1576.5 1006.5 1576.5 245.5" stroke="#A6A6A6" stroke-width="7.41742" stroke-miterlimit="8" fill="none" fill-rule="evenodd"/><path d="M1557.5 245.5 1595.5 245.5" stroke="#A6A6A6" stroke-width="7.41742" stroke-linecap="round" stroke-miterlimit="8" fill="none" fill-rule="evenodd"/><path d="M1557.5 1006.5 1595.5 1006.5" stroke="#A6A6A6" stroke-width="7.41742" stroke-linecap="round" stroke-miterlimit="8" fill="none" fill-rule="evenodd"/><path d="M1598 625.5C1598 637.927 1587.93 648 1575.5 648 1563.07 648 1553 637.927 1553 625.5 1553 613.073 1563.07 603 1575.5 603 1587.93 603 1598 613.073 1598 625.5Z" fill="#0070C0" fill-rule="evenodd"/><path d="M1855.5 1204.5 1855.5 712.5" stroke="#A6A6A6" stroke-width="7.41742" stroke-miterlimit="8" fill="none" fill-rule="evenodd"/><path d="M1836.5 712.5 1873.5 712.5" stroke="#A6A6A6" stroke-width="7.41742" stroke-linecap="round" stroke-miterlimit="8" fill="none" fill-rule="evenodd"/><path d="M1836.5 1204.5 1873.5 1204.5" stroke="#A6A6A6" stroke-width="7.41742" stroke-linecap="round" stroke-miterlimit="8" fill="none" fill-rule="evenodd"/><path d="M1877 958C1877 970.703 1866.93 981 1854.5 981 1842.07 981 1832 970.703 1832 958 1832 945.297 1842.07 935 1854.5 935 1866.93 935 1877 945.297 1877 958Z" fill="#0070C0" fill-rule="evenodd"/><path d="M2133.5 1066.5 2133.5 503.5" stroke="#A6A6A6" stroke-width="7.41742" stroke-miterlimit="8" fill="none" fill-rule="evenodd"/><path d="M2114.5 503.5 2152.5 503.5" stroke="#A6A6A6" stroke-width="7.41742" stroke-linecap="round" stroke-miterlimit="8" fill="none" fill-rule="evenodd"/><path d="M2114.5 1066.5 2152.5 1066.5" stroke="#A6A6A6" stroke-width="7.41742" stroke-linecap="round" stroke-miterlimit="8" fill="none" fill-rule="evenodd"/><path d="M2152 784.5C2152 794.717 2143.49 803 2133 803 2122.51 803 2114 794.717 2114 784.5 2114 774.283 2122.51 766 2133 766 2143.49 766 2152 774.283 2152 784.5Z" fill="#0070C0" fill-rule="evenodd"/><path d="M2412.5 1152.5 2412.5 655.5" stroke="#A6A6A6" stroke-width="7.41742" stroke-miterlimit="8" fill="none" fill-rule="evenodd"/><path d="M2393.5 655.5 2431.5 655.5" stroke="#A6A6A6" stroke-width="7.41742" stroke-linecap="round" stroke-miterlimit="8" fill="none" fill-rule="evenodd"/><path d="M2393.5 1152.5 2431.5 1152.5" stroke="#A6A6A6" stroke-width="7.41742" stroke-linecap="round" stroke-miterlimit="8" fill="none" fill-rule="evenodd"/><path d="M2435 903.5C2435 915.927 2424.7 926 2412 926 2399.3 926 2389 915.927 2389 903.5 2389 891.074 2399.3 881 2412 881 2424.7 881 2435 891.074 2435 903.5Z" fill="#0070C0" fill-rule="evenodd"/><path d="M2691.5 1348.5 2691.5 580.5" stroke="#A6A6A6" stroke-width="7.41742" stroke-miterlimit="8" fill="none" fill-rule="evenodd"/><path d="M2672.5 580.5 2710.5 580.5" stroke="#A6A6A6" stroke-width="7.41742" stroke-linecap="round" stroke-miterlimit="8" fill="none" fill-rule="evenodd"/><path d="M2672.5 1348.5 2710.5 1348.5" stroke="#A6A6A6" stroke-width="7.41742" stroke-linecap="round" stroke-miterlimit="8" fill="none" fill-rule="evenodd"/><path d="M2713 964C2713 976.703 2702.93 987 2690.5 987 2678.07 987 2668 976.703 2668 964 2668 951.297 2678.07 941 2690.5 941 2702.93 941 2713 951.297 2713 964Z" fill="#0070C0" fill-rule="evenodd"/><path d="M2970.5 1463.5 2970.5 857.5" stroke="#A6A6A6" stroke-width="7.41742" stroke-miterlimit="8" fill="none" fill-rule="evenodd"/><path d="M2951.5 857.5 2988.5 857.5" stroke="#A6A6A6" stroke-width="7.41742" stroke-linecap="round" stroke-miterlimit="8" fill="none" fill-rule="evenodd"/><path d="M2951.5 1463.5 2988.5 1463.5" stroke="#A6A6A6" stroke-width="7.41742" stroke-linecap="round" stroke-miterlimit="8" fill="none" fill-rule="evenodd"/><path d="M2992 1160.5C2992 1172.93 2981.93 1183 2969.5 1183 2957.07 1183 2947 1172.93 2947 1160.5 2947 1148.07 2957.07 1138 2969.5 1138 2981.93 1138 2992 1148.07 2992 1160.5Z" fill="#0070C0" fill-rule="evenodd"/><path d="M3248.5 1096.5 3248.5 146.5" stroke="#A6A6A6" stroke-width="7.41742" stroke-miterlimit="8" fill="none" fill-rule="evenodd"/><path d="M3229.5 146.5 3267.5 146.5" stroke="#A6A6A6" stroke-width="7.41742" stroke-linecap="round" stroke-miterlimit="8" fill="none" fill-rule="evenodd"/><path d="M3229.5 1096.5 3267.5 1096.5" stroke="#A6A6A6" stroke-width="7.41742" stroke-linecap="round" stroke-miterlimit="8" fill="none" fill-rule="evenodd"/><path d="M3267 621C3267 631.493 3258.49 640 3248 640 3237.51 640 3229 631.493 3229 621 3229 610.506 3237.51 602 3248 602 3258.49 602 3267 610.506 3267 621Z" fill="#0070C0" fill-rule="evenodd"/><path d="M3527.5 1352.5 3527.5 590.5" stroke="#A6A6A6" stroke-width="7.41742" stroke-miterlimit="8" fill="none" fill-rule="evenodd"/><path d="M3508.5 590.5 3546.5 590.5" stroke="#A6A6A6" stroke-width="7.41742" stroke-linecap="round" stroke-miterlimit="8" fill="none" fill-rule="evenodd"/><path d="M3508.5 1352.5 3546.5 1352.5" stroke="#A6A6A6" stroke-width="7.41742" stroke-linecap="round" stroke-miterlimit="8" fill="none" fill-rule="evenodd"/><path d="M3550 971C3550 983.703 3539.7 994 3527 994 3514.3 994 3504 983.703 3504 971 3504 958.298 3514.3 948 3527 948 3539.7 948 3550 958.298 3550 971Z" fill="#0070C0" fill-rule="evenodd"/><path d="M740.5 1518.5 740.5 80.4999" stroke="#000000" stroke-width="4.94495" stroke-miterlimit="8" fill="none" fill-rule="evenodd"/><path d="M740.5 1438.5 705.5 1438.5" stroke="#000000" stroke-width="4.94495" stroke-miterlimit="8" fill="none" fill-rule="evenodd"/><text font-family="Avenir Next LT Pro Light,Avenir Next LT Pro Light_MSFontService,sans-serif" font-weight="300" font-size="41" transform="matrix(-1.83697e-16 -1 1 -1.83697e-16 646.802 1462)">-<tspan font-size="41" x="13" y="2.38806e-15">.1</tspan></text><path d="M740.5 1112.5 705.5 1112.5" stroke="#000000" stroke-width="4.94495" stroke-miterlimit="8" fill="none" fill-rule="evenodd"/><text font-family="Avenir Next LT Pro Light,Avenir Next LT Pro Light_MSFontService,sans-serif" font-weight="300" font-size="41" transform="matrix(-1.83697e-16 -1 1 -1.83697e-16 646.803 1148)">-<tspan font-size="41" x="13" y="2.38806e-15">.05</tspan></text><path d="M740.5 786.5 705.5 786.5" stroke="#000000" stroke-width="4.94495" stroke-miterlimit="8" fill="none" fill-rule="evenodd"/><text font-family="Avenir Next LT Pro Light,Avenir Next LT Pro Light_MSFontService,sans-serif" font-weight="300" font-size="41" transform="matrix(-1.83697e-16 -1 1 -1.83697e-16 646.803 798)">0</text><path d="M740.5 460.5 705.5 460.5" stroke="#000000" stroke-width="4.94495" stroke-miterlimit="8" fill="none" fill-rule="evenodd"/><text font-family="Avenir Next LT Pro Light,Avenir Next LT Pro Light_MSFontService,sans-serif" font-weight="300" font-size="41" transform="matrix(-1.83697e-16 -1 1 -1.83697e-16 646.802 490)">.05</text><path d="M740.5 135.5 705.5 135.5" stroke="#000000" stroke-width="4.94495" stroke-miterlimit="8" fill="none" fill-rule="evenodd"/><text font-family="Avenir Next LT Pro Light,Avenir Next LT Pro Light_MSFontService,sans-serif" font-weight="300" font-size="41" transform="matrix(-1.83697e-16 -1 1 -1.83697e-16 646.802 152)">.1</text><path d="M740.5 1518.5 3806.5 1518.5" stroke="#000000" stroke-width="4.94495" stroke-miterlimit="8" fill="none" fill-rule="evenodd"/><path d="M1002.5 1520.5 1002.5 1548.5" stroke="#000000" stroke-width="4.95" stroke-miterlimit="8" fill="none" fill-rule="evenodd"/><text font-family="Avenir Next LT Pro Light,Avenir Next LT Pro Light_MSFontService,sans-serif" font-weight="300" font-size="41" transform="matrix(1 0 0 1 2952.58 1630)">0</text><path d="M1294.5 1524.5 1294.5 1551.5" stroke="#000000" stroke-width="4.95" stroke-miterlimit="8" fill="none" fill-rule="evenodd"/><path d="M1566.5 1522.5 1566.5 1550.5" stroke="#000000" stroke-width="4.95" stroke-miterlimit="8" fill="none" fill-rule="evenodd"/><path d="M1844.5 1520.5 1844.5 1548.5" stroke="#000000" stroke-width="4.95" stroke-miterlimit="8" fill="none" fill-rule="evenodd"/><path d="M2133.5 1520.5 2133.5 1548.5" stroke="#000000" stroke-width="4.95" stroke-miterlimit="8" fill="none" fill-rule="evenodd"/><path d="M2412.5 1519.5 2412.5 1546.5" stroke="#000000" stroke-width="4.95" stroke-miterlimit="8" fill="none" fill-rule="evenodd"/><path d="M2688.5 1522.5 2688.5 1549.5" stroke="#000000" stroke-width="4.95" stroke-miterlimit="8" fill="none" fill-rule="evenodd"/><path d="M2968.5 1521.5 2968.5 1548.5" stroke="#000000" stroke-width="4.95" stroke-miterlimit="8" fill="none" fill-rule="evenodd"/><path d="M3246.5 1521.5 3246.5 1548.5" stroke="#000000" stroke-width="4.95" stroke-miterlimit="8" fill="none" fill-rule="evenodd"/><path d="M3534.5 1516.5 3534.5 1544.5" stroke="#000000" stroke-width="4.95" stroke-miterlimit="8" fill="none" fill-rule="evenodd"/><text font-family="Avenir Next LT Pro Light,Avenir Next LT Pro Light_MSFontService,sans-serif" font-weight="300" font-size="41" transform="matrix(1 0 0 1 3231.74 1630)">4<tspan font-size="41" x="284.236" y="-3">5</tspan><tspan font-size="41" x="-576.705" y="4">-</tspan><tspan font-size="41" x="-563.527" y="4">4</tspan><tspan font-size="41" x="-842.951" y="-3">-</tspan><tspan font-size="41" x="-829.774" y="-3">5</tspan><tspan font-size="41" x="-1129.64" y="-3">-</tspan><tspan font-size="41" x="-1116.46" y="-3">6</tspan><tspan font-size="41" x="-1414.95" y="1">-</tspan><tspan font-size="41" x="-1401.77" y="1">7</tspan><tspan font-size="41" x="-1693.67" y="1">-</tspan>8<tspan font-size="41" x="-1972.49" y="1">-</tspan><tspan font-size="41" x="-1959.31" y="1">9</tspan><tspan font-size="41" x="-2288" y="1">-</tspan>10</text><path d="M2339.5 1799.5 2642.5 1799.5" stroke="#7F7F7F" stroke-width="3.3" stroke-miterlimit="8" fill="none" fill-rule="evenodd"/><text font-family="Avenir Next LT Pro Light,Avenir Next LT Pro Light_MSFontService,sans-serif" font-weight="300" font-size="46" transform="matrix(1 0 0 1 2675 1825)">90% C.I<tspan font-size="46" x="-676.018" y="-14">Point estimate</tspan><tspan fill="#1E2D53" font-size="50" x="-424.566" y="-82">Cut</tspan><tspan fill="#1E2D53" font-size="50" x="-343.212" y="-82">-</tspan><tspan fill="#1E2D53" font-size="50" x="-327.17" y="-82">off</tspan></text><path d="M1985 1793C1985 1803.49 1976.49 1812 1966 1812 1955.51 1812 1947 1803.49 1947 1793 1947 1782.51 1955.51 1774 1966 1774 1976.49 1774 1985 1782.51 1985 1793Z" fill="#0070C0" fill-rule="evenodd"/><text font-family="Avenir Next LT Pro Light,Avenir Next LT Pro Light_MSFontService,sans-serif" font-weight="300" font-size="50" transform="matrix(-1.83697e-16 -1 1 -1.83697e-16 530.771 1357)">Inaction when facing a justiciable problem </text></g></svg>