<svg width="3178" height="682" xmlns="http://www.w3.org/2000/svg" xmlns:xlink="http://www.w3.org/1999/xlink" xml:space="preserve" overflow="hidden"><defs><clipPath id="clip0"><rect x="520" y="957" width="3178" height="682"/></clipPath></defs><g clip-path="url(#clip0)" transform="translate(-520 -957)"><rect x="883" y="959" width="2814" height="389" fill="#F2F2F2"/><rect x="2212" y="959" width="825" height="390" fill="#0070C0" fill-opacity="0.301961"/><path d="M1548 958 1548.59 1347.76" stroke="#FF0000" stroke-width="2.29167" stroke-miterlimit="8" fill="none" fill-rule="evenodd"/><text font-family="Avenir Next LT Pro,Avenir Next LT Pro_MSFontService,sans-serif" font-weight="400" font-size="48" transform="matrix(1 0 0 1 553.17 1330)">Time</text><path d="M0 0 3144.55 0.000360892" stroke="#A6A6A6" stroke-width="4.58333" stroke-miterlimit="8" fill="none" fill-rule="evenodd" transform="matrix(-1 0 0 1 3697.05 1349.5)"/><text fill="#767171" font-family="Avenir Next LT Pro,Avenir Next LT Pro_MSFontService,sans-serif" font-weight="400" font-size="48" transform="matrix(1 0 0 1 915.671 1424)">Life state at <tspan font-size="48" x="0" y="58">moment </tspan><tspan font-weight="700" font-size="48" x="197.083" y="58">a</tspan>.<tspan font-size="48" x="672.195" y="0">Life state at moment </tspan><tspan font-weight="700" font-size="48" x="1130.53" y="0">b</tspan><tspan font-size="48" x="1162.04" y="0">,</tspan><tspan font-size="48" x="672.195" y="58">after the detrimental </tspan><tspan font-size="48" x="672.195" y="115">shock of the justiciable </tspan><tspan font-size="48" x="672.195" y="173">problem.</tspan></text><path d="M919.327 1265.56 931.889 1265.56 931.546 1267.09C930.754 1267.25 930.186 1267.44 929.843 1267.65 929.499 1267.86 929.186 1268.17 928.905 1268.59 928.624 1269 928.343 1269.65 928.061 1270.54 927.78 1271.43 927.421 1272.87 926.983 1274.87L923.077 1292.37C922.806 1293.56 922.593 1294.69 922.436 1295.76 922.28 1296.83 922.202 1297.94 922.202 1299.09 922.202 1301.36 922.759 1303.08 923.874 1304.24 924.988 1305.41 926.671 1305.99 928.921 1305.99 931.046 1305.99 932.817 1305.56 934.233 1304.68 935.65 1303.81 936.785 1302.54 937.639 1300.9 938.494 1299.25 939.212 1297.12 939.796 1294.49L944.139 1274.84C944.598 1272.75 944.827 1271.08 944.827 1269.81 944.827 1268.83 944.582 1268.14 944.093 1267.76 943.603 1267.37 942.827 1267.15 941.764 1267.09L942.108 1265.56 953.983 1265.56 953.639 1267.09C952.869 1267.25 952.301 1267.45 951.936 1267.66 951.572 1267.88 951.249 1268.2 950.968 1268.62 950.686 1269.03 950.41 1269.69 950.139 1270.59 949.869 1271.48 949.514 1272.91 949.077 1274.87L945.014 1293.59C944.202 1297.32 943.056 1300.28 941.577 1302.49 940.098 1304.7 938.249 1306.29 936.03 1307.27 933.811 1308.25 931.098 1308.74 927.889 1308.74 924.285 1308.74 921.525 1307.87 919.608 1306.13 917.692 1304.39 916.733 1301.86 916.733 1298.52 916.733 1297.36 916.853 1296.02 917.093 1294.51 917.332 1293 917.671 1291.29 918.108 1289.4L921.358 1274.84C921.837 1272.69 922.077 1271.01 922.077 1269.81 922.077 1268.87 921.837 1268.2 921.358 1267.79 920.879 1267.38 920.087 1267.15 918.983 1267.09Z" fill="#7F7F7F" fill-rule="evenodd"/><text fill="#000000" fill-opacity="0" font-family="Arial,Arial_MSFontService,sans-serif" font-size="43.1875" x="916.733" y="1303.34">ğ‘ˆ</text><path d="M967.921 1300.14C967.018 1300.14 966.177 1300.34 965.396 1300.73 964.616 1301.13 963.905 1301.68 963.262 1302.36 962.62 1303.05 962.05 1303.85 961.552 1304.75 961.055 1305.65 960.634 1306.61 960.29 1307.62 959.946 1308.63 959.686 1309.67 959.51 1310.73 959.334 1311.79 959.246 1312.81 959.246 1313.79 959.246 1315.44 959.479 1316.67 959.946 1317.48 960.413 1318.28 961.166 1318.68 962.206 1318.68 962.727 1318.68 963.228 1318.59 963.71 1318.41 964.192 1318.22 964.7 1317.93 965.236 1317.53 966.582 1316.48 967.73 1315.19 968.678 1313.68 969.627 1312.16 970.338 1310.37 970.812 1308.31 971.027 1307.36 971.195 1306.5 971.317 1305.74 971.44 1304.97 971.501 1304.25 971.501 1303.56 971.501 1302.33 971.214 1301.46 970.64 1300.93 970.067 1300.4 969.16 1300.14 967.921 1300.14ZM967.508 1297.87C968.716 1297.87 969.784 1298.01 970.709 1298.29 971.635 1298.57 972.48 1298.96 973.245 1299.45L975.471 1297.87 977.33 1298.35 973.865 1313.38C973.666 1314.24 973.528 1314.94 973.452 1315.5 973.375 1316.06 973.337 1316.55 973.337 1316.98 973.337 1317.56 973.455 1317.98 973.693 1318.24 973.93 1318.5 974.27 1318.63 974.714 1318.63 974.989 1318.63 975.261 1318.58 975.528 1318.47 975.796 1318.37 976.087 1318.2 976.401 1317.97 976.714 1317.74 977.058 1317.45 977.433 1317.09 977.808 1316.73 978.233 1316.29 978.707 1315.79 978.952 1316.05 979.204 1316.31 979.464 1316.56 979.724 1316.81 979.977 1317.06 980.222 1317.3 979.457 1318.08 978.76 1318.75 978.133 1319.31 977.506 1319.87 976.898 1320.33 976.309 1320.69 975.72 1321.05 975.142 1321.31 974.576 1321.47 974.01 1321.63 973.421 1321.71 972.809 1321.71 971.707 1321.71 970.851 1321.35 970.239 1320.64 969.627 1319.93 969.321 1318.96 969.321 1317.72 969.321 1317.03 969.428 1316.37 969.642 1315.74L969.321 1315.61C968.54 1316.69 967.783 1317.62 967.049 1318.38 966.314 1319.15 965.588 1319.78 964.869 1320.28 964.149 1320.77 963.423 1321.14 962.688 1321.37 961.954 1321.6 961.189 1321.71 960.393 1321.71 958.573 1321.71 957.165 1321.06 956.171 1319.75 955.176 1318.44 954.679 1316.54 954.679 1314.05 954.679 1312.56 954.836 1311.13 955.15 1309.77 955.463 1308.4 955.907 1307.11 956.481 1305.91 957.054 1304.71 957.739 1303.61 958.535 1302.63 959.33 1301.64 960.202 1300.8 961.151 1300.09 962.099 1299.39 963.109 1298.84 964.18 1298.45 965.251 1298.06 966.36 1297.87 967.508 1297.87Z" fill="#7F7F7F" fill-rule="evenodd"/><text fill="#000000" fill-opacity="0" font-family="Arial,Arial_MSFontService,sans-serif" font-size="23.8442" x="954.679" y="1318.73">ğ‘</text><path d="M1589.17 1265.56 1601.73 1265.56 1601.38 1267.09C1600.59 1267.25 1600.03 1267.44 1599.68 1267.65 1599.34 1267.86 1599.03 1268.17 1598.74 1268.59 1598.46 1269 1598.18 1269.65 1597.9 1270.54 1597.62 1271.43 1597.26 1272.87 1596.82 1274.87L1592.92 1292.37C1592.64 1293.56 1592.43 1294.69 1592.28 1295.76 1592.12 1296.83 1592.04 1297.94 1592.04 1299.09 1592.04 1301.36 1592.6 1303.08 1593.71 1304.24 1594.83 1305.41 1596.51 1305.99 1598.76 1305.99 1600.88 1305.99 1602.66 1305.56 1604.07 1304.68 1605.49 1303.81 1606.62 1302.54 1607.48 1300.9 1608.33 1299.25 1609.05 1297.12 1609.63 1294.49L1613.98 1274.84C1614.44 1272.75 1614.67 1271.08 1614.67 1269.81 1614.67 1268.83 1614.42 1268.14 1613.93 1267.76 1613.44 1267.37 1612.67 1267.15 1611.6 1267.09L1611.95 1265.56 1623.82 1265.56 1623.48 1267.09C1622.71 1267.25 1622.14 1267.45 1621.78 1267.66 1621.41 1267.88 1621.09 1268.2 1620.81 1268.62 1620.53 1269.03 1620.25 1269.69 1619.98 1270.59 1619.71 1271.48 1619.35 1272.91 1618.92 1274.87L1614.85 1293.59C1614.04 1297.32 1612.89 1300.28 1611.42 1302.49 1609.94 1304.7 1608.09 1306.29 1605.87 1307.27 1603.65 1308.25 1600.94 1308.74 1597.73 1308.74 1594.12 1308.74 1591.36 1307.87 1589.45 1306.13 1587.53 1304.39 1586.57 1301.86 1586.57 1298.52 1586.57 1297.36 1586.69 1296.02 1586.93 1294.51 1587.17 1293 1587.51 1291.29 1587.95 1289.4L1591.2 1274.84C1591.68 1272.69 1591.92 1271.01 1591.92 1269.81 1591.92 1268.87 1591.68 1268.2 1591.2 1267.79 1590.72 1267.38 1589.93 1267.15 1588.82 1267.09Z" fill="#7F7F7F" fill-rule="evenodd"/><text fill="#000000" fill-opacity="0" font-family="Arial,Arial_MSFontService,sans-serif" font-size="43.1875" x="1586.57" y="1303.34">ğ‘ˆ</text><path d="M1639.3 1300.94C1638.61 1300.94 1637.85 1301.17 1637.03 1301.62 1636.2 1302.07 1635.38 1302.74 1634.58 1303.63 1633.78 1304.51 1633.04 1305.61 1632.35 1306.92 1631.67 1308.23 1631.13 1309.73 1630.74 1311.43 1630.61 1312.26 1630.48 1313.07 1630.32 1313.86 1630.17 1314.66 1630.09 1315.4 1630.09 1316.09 1630.09 1317.33 1630.37 1318.2 1630.93 1318.72 1631.49 1319.23 1632.39 1319.48 1633.63 1319.48 1634.88 1319.48 1636.04 1319.08 1637.09 1318.28 1638.15 1317.48 1639.06 1316.42 1639.81 1315.12 1640.57 1313.82 1641.16 1312.36 1641.59 1310.74 1642.02 1309.12 1642.23 1307.48 1642.23 1305.83 1642.23 1304.19 1642 1302.97 1641.53 1302.16 1641.07 1301.35 1640.32 1300.94 1639.3 1300.94ZM1633.93 1289.97 1635.58 1289.97 1632.37 1303.08 1632.69 1303.24C1633.47 1302.32 1634.21 1301.52 1634.93 1300.84 1635.64 1300.16 1636.33 1299.6 1637.01 1299.16 1637.69 1298.73 1638.37 1298.4 1639.04 1298.19 1639.72 1297.97 1640.41 1297.87 1641.13 1297.87 1642.94 1297.87 1644.33 1298.52 1645.31 1299.84 1646.29 1301.16 1646.78 1303.08 1646.78 1305.6 1646.78 1307.8 1646.44 1309.88 1645.76 1311.83 1645.08 1313.78 1644.15 1315.49 1642.99 1316.96 1641.83 1318.43 1640.48 1319.59 1638.94 1320.44 1637.4 1321.29 1635.78 1321.71 1634.06 1321.71 1632.96 1321.71 1631.95 1321.6 1631.01 1321.38 1630.08 1321.16 1629.17 1320.78 1628.28 1320.26 1627.9 1320.48 1627.51 1320.72 1627.11 1320.98 1626.71 1321.24 1626.34 1321.48 1625.99 1321.71 1625.71 1321.63 1625.42 1321.56 1625.11 1321.49 1624.81 1321.42 1624.52 1321.34 1624.24 1321.25L1629.75 1296.65C1629.92 1295.88 1630.04 1295.26 1630.13 1294.77 1630.21 1294.28 1630.26 1293.85 1630.26 1293.48 1630.26 1293.19 1630.21 1292.94 1630.12 1292.73 1630.03 1292.51 1629.86 1292.34 1629.64 1292.21 1629.41 1292.08 1629.1 1291.98 1628.72 1291.92 1628.33 1291.86 1627.85 1291.82 1627.27 1291.81L1627.62 1290.25Z" fill="#7F7F7F" fill-rule="evenodd"/><text fill="#000000" fill-opacity="0" font-family="Arial,Arial_MSFontService,sans-serif" font-size="31.7388" x="1624.24" y="1317.74">ğ‘</text><path d="M1497.05 979.766C1495.76 979.766 1494.41 979.797 1492.99 979.86L1488.74 998.797 1491.99 998.797C1494.51 998.797 1496.55 998.537 1498.1 998.016 1499.65 997.495 1500.92 996.688 1501.91 995.594 1502.9 994.5 1503.67 993.204 1504.21 991.704 1504.75 990.204 1505.02 988.558 1505.02 986.766 1505.02 984.349 1504.41 982.579 1503.18 981.454 1501.95 980.329 1499.91 979.766 1497.05 979.766ZM1483.96 977.016 1497.74 977.016C1500.22 977.016 1502.26 977.209 1503.85 977.594 1505.44 977.98 1506.76 978.573 1507.79 979.375 1508.82 980.178 1509.59 981.193 1510.1 982.422 1510.61 983.652 1510.86 985.079 1510.86 986.704 1510.86 989.829 1510.12 992.537 1508.65 994.829 1507.17 997.12 1505.16 998.808 1502.63 999.891 1500.1 1000.97 1497.06 1001.52 1493.52 1001.52 1491.4 1001.52 1489.62 1001.47 1488.21 1001.39L1486.21 1010.58C1486.02 1011.43 1485.89 1012.09 1485.82 1012.55 1485.74 1013.01 1485.68 1013.5 1485.63 1014.03 1485.58 1014.56 1485.55 1015.04 1485.55 1015.45 1485.55 1016.1 1485.66 1016.6 1485.86 1016.97 1486.07 1017.33 1486.39 1017.6 1486.8 1017.77 1487.22 1017.93 1487.94 1018.06 1488.96 1018.14L1488.61 1019.67 1475.77 1019.67 1476.11 1018.14C1476.91 1018.02 1477.5 1017.81 1477.9 1017.53 1478.29 1017.25 1478.62 1016.86 1478.9 1016.36 1479.17 1015.86 1479.42 1015.25 1479.65 1014.53 1479.87 1013.81 1480.22 1012.42 1480.68 1010.36L1485.99 986.297C1486.45 984.214 1486.68 982.568 1486.68 981.36 1486.68 980.339 1486.44 979.631 1485.96 979.235 1485.48 978.839 1484.7 978.61 1483.61 978.547ZM1459.15 977.016 1471.65 977.016 1471.3 978.547C1470.51 978.714 1469.94 978.902 1469.6 979.11 1469.26 979.318 1468.94 979.631 1468.66 980.047 1468.38 980.464 1468.1 981.115 1467.82 982 1467.54 982.886 1467.18 984.329 1466.74 986.329L1459.71 1018.33C1459 1021.58 1458.09 1024.17 1456.99 1026.09 1455.89 1028.02 1454.45 1029.45 1452.69 1030.38 1450.93 1031.3 1448.77 1031.77 1446.21 1031.77 1445 1031.77 1444.01 1031.66 1443.24 1031.45L1444.05 1028.45C1444.49 1028.62 1445.28 1028.7 1446.43 1028.7 1448.41 1028.7 1449.96 1027.94 1451.08 1026.41 1452.21 1024.88 1453.14 1022.48 1453.86 1019.23L1461.18 986.297C1461.64 984.235 1461.86 982.558 1461.86 981.266 1461.86 980.287 1461.62 979.605 1461.13 979.219 1460.64 978.834 1459.86 978.61 1458.8 978.547Z" fill="#7F7F7F" fill-rule="evenodd"/><text fill="#000000" fill-opacity="0" font-family="Arial,Arial_MSFontService,sans-serif" font-size="54.75" x="1443.24" y="1024.92">ğ½ğ‘ƒ</text><path d="M1516.8 1011.6C1515.9 1011.6 1515.06 1011.8 1514.28 1012.2 1513.5 1012.59 1512.78 1013.14 1512.14 1013.82 1511.5 1014.51 1510.93 1015.31 1510.43 1016.21 1509.93 1017.11 1509.51 1018.07 1509.17 1019.08 1508.82 1020.09 1508.56 1021.13 1508.39 1022.19 1508.21 1023.25 1508.12 1024.27 1508.12 1025.25 1508.12 1026.91 1508.36 1028.13 1508.82 1028.94 1509.29 1029.74 1510.05 1030.14 1511.09 1030.14 1511.61 1030.14 1512.11 1030.05 1512.59 1029.87 1513.07 1029.68 1513.58 1029.39 1514.11 1028.99 1515.46 1027.94 1516.61 1026.65 1517.56 1025.14 1518.51 1023.62 1519.22 1021.83 1519.69 1019.77 1519.91 1018.82 1520.07 1017.96 1520.2 1017.2 1520.32 1016.43 1520.38 1015.71 1520.38 1015.02 1520.38 1013.79 1520.09 1012.92 1519.52 1012.39 1518.95 1011.86 1518.04 1011.6 1516.8 1011.6ZM1516.39 1009.33C1517.6 1009.33 1518.66 1009.47 1519.59 1009.75 1520.51 1010.03 1521.36 1010.42 1522.12 1010.91L1524.35 1009.33 1526.21 1009.81 1522.74 1024.84C1522.54 1025.7 1522.41 1026.4 1522.33 1026.96 1522.25 1027.52 1522.22 1028.02 1522.22 1028.44 1522.22 1029.02 1522.33 1029.45 1522.57 1029.71 1522.81 1029.97 1523.15 1030.1 1523.59 1030.1 1523.87 1030.1 1524.14 1030.04 1524.41 1029.94 1524.68 1029.83 1524.97 1029.66 1525.28 1029.43 1525.59 1029.2 1525.94 1028.91 1526.31 1028.55 1526.69 1028.19 1527.11 1027.75 1527.59 1027.25 1527.83 1027.51 1528.08 1027.77 1528.34 1028.02 1528.6 1028.27 1528.86 1028.52 1529.1 1028.76 1528.34 1029.54 1527.64 1030.21 1527.01 1030.77 1526.38 1031.33 1525.78 1031.79 1525.19 1032.15 1524.6 1032.51 1524.02 1032.77 1523.46 1032.93 1522.89 1033.09 1522.3 1033.17 1521.69 1033.17 1520.59 1033.17 1519.73 1032.82 1519.12 1032.1 1518.51 1031.39 1518.2 1030.42 1518.2 1029.18 1518.2 1028.49 1518.31 1027.83 1518.52 1027.2L1518.2 1027.07C1517.42 1028.15 1516.66 1029.08 1515.93 1029.84 1515.19 1030.61 1514.47 1031.24 1513.75 1031.74 1513.03 1032.23 1512.3 1032.6 1511.57 1032.83 1510.83 1033.06 1510.07 1033.17 1509.27 1033.17 1507.45 1033.17 1506.04 1032.52 1505.05 1031.21 1504.06 1029.9 1503.56 1028 1503.56 1025.51 1503.56 1024.02 1503.71 1022.6 1504.03 1021.23 1504.34 1019.86 1504.79 1018.57 1505.36 1017.37 1505.93 1016.17 1506.62 1015.08 1507.41 1014.09 1508.21 1013.1 1509.08 1012.26 1510.03 1011.55 1510.98 1010.85 1511.99 1010.3 1513.06 1009.91 1514.13 1009.52 1515.24 1009.33 1516.39 1009.33Z" fill="#7F7F7F" fill-rule="evenodd"/><text fill="#000000" fill-opacity="0" font-family="Arial,Arial_MSFontService,sans-serif" font-size="23.8442" x="1503.56" y="1030.19">ğ‘</text><text fill="#767171" font-family="Avenir Next LT Pro,Avenir Next LT Pro_MSFontService,sans-serif" font-weight="400" font-size="48" transform="matrix(1 0 0 1 3068.51 1412)">Life state at moment <tspan font-weight="700" font-size="48" x="458.333" y="0">c, </tspan><tspan font-size="48" x="0" y="58">after the access to justice </tspan><tspan font-size="48" x="0" y="115">outcome has been </tspan><tspan font-size="48" x="0" y="173">achieved.</tspan></text><path d="M3073.67 1265.56 3086.23 1265.56 3085.89 1267.09C3085.1 1267.25 3084.53 1267.44 3084.19 1267.65 3083.84 1267.86 3083.53 1268.17 3083.25 1268.59 3082.97 1269 3082.69 1269.65 3082.41 1270.54 3082.12 1271.43 3081.77 1272.87 3081.33 1274.87L3077.42 1292.37C3077.15 1293.56 3076.94 1294.69 3076.78 1295.76 3076.62 1296.83 3076.55 1297.94 3076.55 1299.09 3076.55 1301.36 3077.1 1303.08 3078.22 1304.24 3079.33 1305.41 3081.02 1305.99 3083.27 1305.99 3085.39 1305.99 3087.16 1305.56 3088.58 1304.68 3089.99 1303.81 3091.13 1302.54 3091.98 1300.9 3092.84 1299.25 3093.56 1297.12 3094.14 1294.49L3098.48 1274.84C3098.94 1272.75 3099.17 1271.08 3099.17 1269.81 3099.17 1268.83 3098.93 1268.14 3098.44 1267.76 3097.95 1267.37 3097.17 1267.15 3096.11 1267.09L3096.45 1265.56 3108.33 1265.56 3107.98 1267.09C3107.21 1267.25 3106.65 1267.45 3106.28 1267.66 3105.92 1267.88 3105.59 1268.2 3105.31 1268.62 3105.03 1269.03 3104.75 1269.69 3104.48 1270.59 3104.21 1271.48 3103.86 1272.91 3103.42 1274.87L3099.36 1293.59C3098.55 1297.32 3097.4 1300.28 3095.92 1302.49 3094.44 1304.7 3092.59 1306.29 3090.37 1307.27 3088.16 1308.25 3085.44 1308.74 3082.23 1308.74 3078.63 1308.74 3075.87 1307.87 3073.95 1306.13 3072.04 1304.39 3071.08 1301.86 3071.08 1298.52 3071.08 1297.36 3071.2 1296.02 3071.44 1294.51 3071.68 1293 3072.02 1291.29 3072.45 1289.4L3075.7 1274.84C3076.18 1272.69 3076.42 1271.01 3076.42 1269.81 3076.42 1268.87 3076.18 1268.2 3075.7 1267.79 3075.22 1267.38 3074.43 1267.15 3073.33 1267.09Z" fill="#7F7F7F" fill-rule="evenodd"/><text fill="#000000" fill-opacity="0" font-family="Arial,Arial_MSFontService,sans-serif" font-size="43.1875" x="3071.08" y="1303.34">ğ‘ˆ</text><path d="M3123.07 1297.87C3124.19 1297.87 3125.22 1297.93 3126.18 1298.05 3127.13 1298.17 3128.12 1298.36 3129.15 1298.62L3127.86 1304.25 3125.16 1304.25C3125.14 1303.45 3125.08 1302.79 3124.98 1302.26 3124.89 1301.73 3124.72 1301.32 3124.5 1301.01 3124.28 1300.7 3123.99 1300.49 3123.63 1300.36 3123.27 1300.23 3122.83 1300.15 3122.31 1300.14 3121.49 1300.14 3120.69 1300.32 3119.94 1300.69 3119.18 1301.06 3118.47 1301.56 3117.82 1302.21 3117.17 1302.86 3116.58 1303.63 3116.05 1304.5 3115.51 1305.37 3115.05 1306.31 3114.67 1307.32 3114.29 1308.33 3113.99 1309.38 3113.79 1310.48 3113.58 1311.57 3113.48 1312.66 3113.48 1313.75 3113.48 1315.37 3113.8 1316.6 3114.44 1317.45 3115.08 1318.3 3116.05 1318.73 3117.33 1318.73 3118.05 1318.73 3118.72 1318.66 3119.33 1318.53 3119.94 1318.4 3120.54 1318.18 3121.12 1317.88 3121.7 1317.57 3122.3 1317.17 3122.92 1316.67 3123.54 1316.18 3124.22 1315.56 3124.97 1314.83 3125.26 1315.13 3125.54 1315.43 3125.81 1315.73 3126.08 1316.03 3126.36 1316.33 3126.65 1316.64 3125 1318.35 3123.34 1319.63 3121.69 1320.46 3120.04 1321.29 3118.26 1321.71 3116.37 1321.71 3114 1321.71 3112.18 1321.02 3110.92 1319.63 3109.65 1318.25 3109.02 1316.27 3109.02 1313.7 3109.02 1312.26 3109.18 1310.87 3109.51 1309.54 3109.83 1308.2 3110.29 1306.94 3110.89 1305.76 3111.5 1304.58 3112.22 1303.51 3113.06 1302.55 3113.9 1301.58 3114.85 1300.75 3115.89 1300.06 3116.93 1299.36 3118.05 1298.82 3119.26 1298.44 3120.47 1298.06 3121.74 1297.87 3123.07 1297.87Z" fill="#7F7F7F" fill-rule="evenodd"/><text fill="#000000" fill-opacity="0" font-family="Arial,Arial_MSFontService,sans-serif" font-size="23.8442" x="3109.02" y="1318.73">ğ‘</text><text fill="#767171" font-family="Avenir Next LT Pro,Avenir Next LT Pro_MSFontService,sans-serif" font-weight="400" font-size="48" transform="matrix(1 0 0 1 2246.08 1424)">Access to justice path after <tspan font-size="48" x="0" y="58">and effective problem</tspan><tspan font-size="48" x="484.688" y="58">-</tspan><tspan font-size="48" x="0" y="115">solving decision.</tspan></text><path d="M883 958 884.299 1347.76" stroke="#A6A6A6" stroke-width="2.29167" stroke-miterlimit="8" fill="none" fill-rule="evenodd"/></g></svg>